SplineFontDB: 3.2
FontName: FunkySample
FullName: FunkySample
FamilyName: FunkySample
Weight: Regular
Copyright: Copyright (c) 2021 Mikhail Merkuryev\nYou just DO WHAT THE FUNK YOU WANT TO.
UComments: "2021-9-15: Created with FontForge (http://fontforge.org)"
Version: 001.000
ItalicAngle: 0
UnderlinePosition: -100
UnderlineWidth: 50
Ascent: 800
Descent: 200
InvalidEm: 0
LayerCount: 2
Layer: 0 0 "+BBcEMAQ0BD0EOAQ5 +BD8EOwQwBD0A" 1
Layer: 1 0 "+BB8ENQRABDUENAQ9BDgEOQAA +BD8EOwQwBD0A" 0
XUID: [1021 59 1751208496 15025]
FSType: 0
OS2Version: 0
OS2_WeightWidthSlopeOnly: 0
OS2_UseTypoMetrics: 1
CreationTime: 1631732133
ModificationTime: 1632865245
PfmFamily: 33
TTFWeight: 400
TTFWidth: 5
LineGap: 90
VLineGap: 0
OS2TypoAscent: 0
OS2TypoAOffset: 1
OS2TypoDescent: 0
OS2TypoDOffset: 1
OS2TypoLinegap: 90
OS2WinAscent: 0
OS2WinAOffset: 1
OS2WinDescent: 0
OS2WinDOffset: 1
HheadAscent: 0
HheadAOffset: 1
HheadDescent: 0
HheadDOffset: 1
OS2Vendor: 'PfEd'
OS2UnicodeRanges: 00002000.02002080.00000008.00000000
Lookup: 257 1 0 "Single Positioning in 'Chrs' lookup 0" { "Chrs"  } ['Chrs' ('Chrs' <'dflt' > ) ]
MarkAttachClasses: 1
DEI: 91125
Encoding: UnicodeFull
UnicodeInterp: none
NameList: AGL For New Fonts
DisplaySize: -48
AntiAlias: 1
FitToEm: 0
WinInfo: 72039 33 14
BeginPrivate: 0
EndPrivate
Grid
780 -700 m 0
 780 1300 l 0
 780 -700 l 0
20 1300 m 0
 20 -700 l 1024
-1004 20.1669921875 m 0
 1996 20.1669921875 l 1024
-1004 781 m 0
 1996 781 l 1024
-1000 400 m 0
 2000 400 l 1024
399 1300 m 0
 399 -700 l 1024
EndSplineSet
TeXData: 1 0 0 346030 173015 115343 0 1048576 115343 783286 444596 497025 792723 393216 433062 380633 303038 157286 324010 404750 52429 2506097 1059062 262144
BeginChars: 1114113 114

StartChar: u10FB0
Encoding: 69552 69552 1
Width: 948
Flags: HW
LayerCount: 2
Fore
SplineSet
776.728515625 453.470703125 m 0
 803.995117188 457.833984375 829.63671875 439.266601562 834 412 c 0
 847.53515625 327.405273438 917.705078125 175.736328125 917.705078125 175.736328125 c 2
 933.607421875 142.594726562 909.515625 104.19921875 872.755859375 104.099609375 c 2
 80.755859375 102.099609375 l 2
 53.1416015625 102.029296875 30.69921875 124.358398438 30.62890625 151.97265625 c 0
 30.55859375 179.586914062 52.8876953125 202.030273438 80.501953125 202.099609375 c 2
 795.5078125 203.904296875 l 1
 773.125976562 257.356445312 745.603515625 331.541992188 735.2578125 396.19921875 c 0
 730.895507812 423.466796875 749.461914062 449.107421875 776.728515625 453.470703125 c 0
EndSplineSet
Position2: "Chrs" dx=0 dy=0 dh=0 dv=0
EndChar

StartChar: u10FB1
Encoding: 69553 69553 2
Width: 343
Flags: HW
LayerCount: 2
Fore
SplineSet
190.767578125 334.66015625 m 0
 218.041015625 334.375976562 240.055664062 312.2890625 240.25 285.015625 c 0
 240.25 257.241210938 244.120117188 227.526367188 249.892578125 213.1640625 c 0
 252.159179688 207.526367188 253.888671875 205.415039062 254.52734375 204.66015625 c 0
 254.7578125 204.69140625 254.774414062 204.715820312 255.10546875 204.75 c 0
 282.573242188 207.590820312 307.143554688 187.627929688 309.984375 160.16015625 c 0
 312.826171875 132.692382812 292.862304688 108.123046875 265.39453125 105.28125 c 0
 240.255859375 102.680664062 213.524414062 109.86328125 194.56640625 124.2890625 c 0
 190.96875 127.026367188 187.734375 129.962890625 184.671875 132.984375 c 1
 156.669921875 111.02734375 119.618164062 101.984375 81.5 101.03125 c 0
 53.89453125 100.340820312 30.9560546875 122.16015625 30.265625 149.765625 c 0
 29.5751953125 177.37109375 51.39453125 200.309570312 79 201 c 0
 111.653320312 201.81640625 119.924804688 207.1875 125.6796875 214.27734375 c 0
 131.435546875 221.368164062 139.360351562 242.78515625 140.26171875 286.056640625 c 0
 141.025390625 313.3203125 163.495117188 334.944335938 190.767578125 334.66015625 c 0
EndSplineSet
Position2: "Chrs" dx=0 dy=0 dh=0 dv=0
EndChar

StartChar: u10FB2
Encoding: 69554 69554 3
Width: 548
Flags: HW
LayerCount: 2
Fore
SplineSet
381.103515625 477.306640625 m 0
 383.798828125 477.756835938 386.48828125 478.04296875 389.310546875 478.04296875 c 0
 407.205078125 478.04296875 422.916015625 468.623046875 431.751953125 454.474609375 c 0
 491.815429688 358.293945312 509.766601562 297.247070312 509.03125 217.53515625 c 0
 508.750976562 187.159179688 494.541992188 157.381835938 474.318359375 139.140625 c 0
 454.094726562 120.900390625 430.8359375 112.083007812 408.123046875 106.400390625 c 0
 362.697265625 95.0361328125 315.240234375 96 279 96 c 0
 205.028320312 96 265.861328125 99.017578125 80.734375 102.005859375 c 0
 53.5166015625 102.446289062 31.5419921875 124.6640625 31.5419921875 151.985351562 c 0
 31.5419921875 152.259765625 31.5439453125 152.533203125 31.548828125 152.806640625 c 0
 31.98828125 180.0234375 54.2060546875 201.999023438 81.52734375 201.999023438 c 0
 81.8017578125 201.999023438 82.076171875 201.997070312 82.349609375 201.9921875 c 0
 268.905273438 198.98046875 207.783203125 196 279 196 c 0
 315.353515625 196 357.577148438 196.838867188 383.853515625 203.412109375 c 0
 396.991210938 206.69921875 405.088867188 211.3671875 407.341796875 213.3984375 c 0
 409.59375 215.4296875 408.981445312 212.712890625 409.03515625 218.458984375 c 0
 409.665039062 286.735351562 403.020507812 311.693359375 346.93359375 401.505859375 c 0
 342.143554688 409.17578125 339.290039062 418.2578125 339.290039062 427.958984375 c 0
 339.290039062 445.852539062 348.709960938 461.563476562 362.857421875 470.3984375 c 0
 368.295898438 473.795898438 374.533203125 476.208984375 381.103515625 477.306640625 c 0
EndSplineSet
Position2: "Chrs" dx=0 dy=0 dh=0 dv=0
EndChar

StartChar: u10FB3
Encoding: 69555 69555 4
Width: 576
Flags: HW
LayerCount: 2
Fore
SplineSet
86.3017578125 398.916015625 m 2
 486.301757812 380.916015625 l 2
 512.83984375 379.71875 534.052734375 357.837890625 534.052734375 331.005859375 c 0
 534.052734375 327.958007812 533.780273438 324.974609375 533.256835938 322.076171875 c 0
 533.256835938 322.076171875 518.5390625 240.56640625 495.407226562 144.734375 c 0
 472.275390625 48.90234375 443.484375 -58.9365234375 403.129882812 -127.41796875 c 0
 394.432617188 -142.174804688 378.353515625 -152 360 -152 c 0
 350.758789062 -152 342.099609375 -149.48828125 334.668945312 -145.109375 c 0
 319.911132812 -136.412109375 310.0859375 -120.333007812 310.0859375 -101.979492188 c 0
 310.0859375 -92.73828125 312.598632812 -84.0791015625 316.977539062 -76.6484375 c 0
 342.622070312 -33.1298828125 375.83203125 75.5322265625 398.200195312 168.19921875 c 0
 408.857421875 212.349609375 417.508789062 252.75 423.825195312 283.626953125 c 1
 81.8056640625 299.017578125 l 2
 55.2666015625 300.211914062 34.052734375 322.102539062 34.052734375 348.93359375 c 0
 34.052734375 349.698242188 34.0703125 350.458984375 34.1044921875 351.21484375 c 0
 35.298828125 377.75390625 57.189453125 398.967773438 84.01953125 398.967773438 c 0
 84.7841796875 398.967773438 85.544921875 398.950195312 86.3017578125 398.916015625 c 2
EndSplineSet
Position2: "Chrs" dx=0 dy=0 dh=0 dv=0
EndChar

StartChar: u10FB4
Encoding: 69556 69556 5
Width: 562
Flags: HW
LayerCount: 2
Fore
SplineSet
24.009765625 427.997070312 m 0
 24.009765625 440.795898438 28.8876953125 453.595703125 38.64453125 463.3515625 c 0
 48.400390625 473.108398438 61.2001953125 477.987304688 73.9990234375 477.987304688 c 0
 77.3505859375 477.987304688 80.7021484375 477.65234375 83.9990234375 476.983398438 c 0
 138.741210938 465.875976562 311.83984375 439.3828125 409.255859375 424.244140625 c 1
 417.688476562 460.893554688 423.782226562 490.618164062 426.549804688 509.3515625 c 0
 428.063476562 519.6015625 432.76171875 529.469726562 440.64453125 537.3515625 c 0
 450.400390625 547.108398438 463.200195312 551.987304688 475.999023438 551.987304688 c 0
 488.798828125 551.987304688 501.598632812 547.108398438 511.354492188 537.3515625 c 0
 521.111328125 527.595703125 525.989257812 514.795898438 525.989257812 501.997070312 c 0
 525.989257812 499.538085938 525.809570312 497.079101562 525.44921875 494.641601562 c 0
 511.34765625 399.182617188 438.71484375 120.873046875 379.249023438 -51.373046875 c 0
 376.854492188 -58.310546875 372.889648438 -64.82421875 367.354492188 -70.3583984375 c 0
 357.598632812 -80.115234375 344.798828125 -84.9931640625 331.999023438 -84.9931640625 c 0
 319.200195312 -84.9931640625 306.400390625 -80.115234375 296.64453125 -70.3583984375 c 0
 286.887695312 -60.6025390625 282.009765625 -47.802734375 282.009765625 -35.0029296875 c 0
 282.009765625 -29.46484375 282.922851562 -23.92578125 284.75 -18.6337890625 c 0
 317.778320312 77.0341796875 356.55078125 213.63671875 385.45703125 326.751953125 c 1
 286.8359375 342.056640625 123.217773438 366.994140625 64 379.009765625 c 0
 54.7060546875 380.895507812 45.845703125 385.439453125 38.64453125 392.641601562 c 0
 28.8876953125 402.397460938 24.009765625 415.197265625 24.009765625 427.997070312 c 0
EndSplineSet
Position2: "Chrs" dx=0 dy=0 dh=0 dv=0
EndChar

StartChar: u10FB5
Encoding: 69557 69557 6
Width: 641
Flags: HW
LayerCount: 2
Fore
SplineSet
26.294921875 607.544921875 m 0
 26.294921875 620.344726562 31.1728515625 633.14453125 40.9296875 642.900390625 c 0
 50.685546875 652.657226562 63.4853515625 657.53515625 76.28515625 657.53515625 c 0
 79.732421875 657.53515625 83.1806640625 657.181640625 86.5693359375 656.473632812 c 0
 162.856445312 640.533203125 268.629882812 613.723632812 359.8828125 588 c 0
 433.228515625 567.32421875 495.465820312 548.154296875 529.848632812 533.567382812 c 0
 542.291992188 528.2890625 553.411132812 520.751953125 562.756835938 511.40625 c 0
 582.946289062 491.216796875 593.241210938 464.20703125 593.241210938 436.51953125 c 0
 593.241210938 419.165039062 589.197265625 401.544921875 581.009765625 385.169921875 c 0
 579.266601562 381.684570312 572.86328125 367.915039062 564.100585938 348.958984375 c 0
 518.02734375 249.284179688 400.892578125 -6.0244140625 315.360351562 -128.9765625 c 0
 313.688476562 -131.379882812 311.782226562 -133.66796875 309.639648438 -135.809570312 c 0
 299.883789062 -145.56640625 287.083984375 -150.4453125 274.28515625 -150.4453125 c 0
 261.485351562 -150.4453125 248.685546875 -145.56640625 238.9296875 -135.809570312 c 0
 229.172851562 -126.053710938 224.294921875 -113.25390625 224.294921875 -100.455078125 c 0
 224.294921875 -90.4658203125 227.265625 -80.4755859375 233.208984375 -71.93359375 c 0
 308.525390625 36.333984375 428.03515625 292.973632812 473.333007812 390.96875 c 0
 482.267578125 410.296875 488.110351562 423.021484375 491.560546875 429.920898438 c 0
 492.9921875 432.78515625 493.452148438 434.983398438 493.452148438 436.627929688 c 0
 493.452148438 440.12890625 492.34375 440.833984375 490.720703125 441.522460938 c 0
 466.436523438 451.825195312 403.63671875 471.765625 332.631835938 491.782226562 c 0
 243.4453125 516.922851562 138.6015625 543.446289062 66 558.6171875 c 0
 56.8095703125 560.537109375 48.0576171875 565.061523438 40.9296875 572.190429688 c 0
 31.1728515625 581.946289062 26.294921875 594.74609375 26.294921875 607.544921875 c 0
EndSplineSet
Position2: "Chrs" dx=0 dy=0 dh=0 dv=0
EndChar

StartChar: u10FB6
Encoding: 69558 69558 7
Width: 262
Flags: HW
LayerCount: 2
Fore
SplineSet
65.009804473 530 m 0
 65.009804473 542.79938404 69.8880899622 555.598768081 79.6446609407 565.355339059 c 0
 89.4012319191 575.111910038 102.20061596 579.990195527 115 579.990195527 c 0
 127.79938404 579.990195527 140.598768081 575.111910038 150.355339059 565.355339059 c 0
 158.118504462 557.592173656 162.793149462 547.902554739 164.379274057 537.819334095 c 0
 181.715527851 427.610292118 190.355077474 283.839278963 190.355077474 154.624610849 c 0
 190.355077474 68.2454560759 186.394890797 -6.80610002906 175.902597958 -56.4060298129 c 0
 173.967935841 -65.5517052774 169.452182875 -74.2584952441 162.355339059 -81.3553390593 c 0
 152.598768081 -91.1119100378 139.79938404 -95.990195527 127 -95.990195527 c 0
 114.20061596 -95.990195527 101.401231919 -91.1119100378 91.6446609407 -81.3553390593 c 0
 81.8880899622 -71.5987680809 77.009804473 -58.7993840404 77.009804473 -46 c 0
 77.009804473 -42.5107752017 77.3723369958 -39.0215504033 78.0974020416 -35.5939701871 c 0
 85.6470320636 0.0951899167839 90.3534905587 74.657080606 90.3534905587 159.443208485 c 0
 90.3534905587 281.724007701 81.438267719 421.626293185 65.6207259428 522.180665905 c 0
 65.2134449629 524.769809277 65.009804473 527.384904639 65.009804473 530 c 0
EndSplineSet
Position2: "Chrs" dx=0 dy=0 dh=0 dv=0
EndChar

StartChar: u10FB7
Encoding: 69559 69559 8
Width: 407
Flags: HW
LayerCount: 2
Fore
SplineSet
61.009765625 166 m 0
 61.009765625 178.799804688 65.8876953125 191.598632812 75.64453125 201.35546875 c 0
 85.4013671875 211.112304688 98.2001953125 215.990234375 111 215.990234375 c 0
 117.768554688 215.990234375 124.537109375 214.625976562 130.856445312 211.897460938 c 0
 133.100585938 210.927734375 141.799804688 208.265625 152.556640625 206.719726562 c 0
 160.51953125 205.575195312 169.6796875 204.89453125 179.1171875 204.89453125 c 0
 185.73828125 204.89453125 192.49609375 205.229492188 199.072265625 205.974609375 c 0
 222.703125 208.650390625 241.288085938 216.72265625 250.025390625 225.459960938 c 0
 255.833007812 231.267578125 260.16015625 238.251953125 261.111328125 253.198242188 c 0
 261.251953125 255.400390625 261.3203125 257.549804688 261.3203125 259.6484375 c 0
 261.3203125 282.409179688 253.233398438 299.189453125 240.393554688 312.029296875 c 0
 224.98046875 327.442382812 199.7578125 338.244140625 169.450195312 338.244140625 c 0
 150.734375 338.244140625 130.079101562 334.125 108.59765625 324.4296875 c 0
 102.068359375 321.483398438 95.0341796875 320.009765625 88 320.009765625 c 0
 75.2001953125 320.009765625 62.4013671875 324.887695312 52.64453125 334.64453125 c 0
 42.8876953125 344.401367188 38.009765625 357.200195312 38.009765625 370 c 0
 38.009765625 382.799804688 42.8876953125 395.598632812 52.64453125 405.35546875 c 0
 57.0390625 409.75 62.0517578125 413.155273438 67.40234375 415.5703125 c 0
 101.161132812 430.806640625 136.2421875 438.2421875 170.009765625 438.2421875 c 0
 223.981445312 438.2421875 274.598632812 419.24609375 311.104492188 382.740234375 c 0
 342.483398438 351.361328125 361.279296875 307.8515625 361.279296875 259.043945312 c 0
 361.279296875 214.447265625 346.032226562 180.045898438 320.735351562 154.749023438 c 0
 288.483398438 122.497070312 246.88671875 110.765625 210.404296875 106.633789062 c 0
 199.661132812 105.416992188 189.109375 104.869140625 178.88671875 104.869140625 c 0
 164.5625 104.869140625 150.884765625 105.944335938 138.234375 107.762695312 c 0
 120.809570312 110.267578125 105.477539062 113.913085938 91.1435546875 120.102539062 c 0
 85.5146484375 122.533203125 80.2412109375 126.047851562 75.64453125 130.64453125 c 0
 65.8876953125 140.401367188 61.009765625 153.200195312 61.009765625 166 c 0
EndSplineSet
Position2: "Chrs" dx=0 dy=0 dh=0 dv=0
EndChar

StartChar: u10FB8
Encoding: 69560 69560 9
Width: 255
Flags: HW
LayerCount: 2
Fore
SplineSet
95.3701171875 40.333984375 m 0
 82.5703125 40.333984375 69.771484375 45.212890625 60.0146484375 54.96875 c 0
 50.2578125 64.7255859375 45.3798828125 77.525390625 45.3798828125 90.32421875 c 0
 45.3798828125 93.71484375 45.7216796875 97.10546875 46.4072265625 100.439453125 c 0
 58.939453125 161.466796875 71.6259765625 234.858398438 80.4921875 294.232421875 c 0
 88.0224609375 344.65234375 92.4443359375 380.791992188 92.4443359375 397.46875 c 0
 92.4443359375 425.984375 84.0966796875 445.631835938 68.162109375 459.077148438 c 0
 57.115234375 468.397460938 50.3798828125 482.98828125 50.3798828125 497.32421875 c 0
 50.3798828125 510.124023438 55.2578125 522.922851562 65.0146484375 532.6796875 c 0
 74.771484375 542.436523438 87.5703125 547.314453125 100.370117188 547.314453125 c 0
 111.834960938 547.314453125 123.299804688 543.400390625 132.578125 535.572265625 c 0
 136.208007812 532.509765625 139.68359375 529.31640625 143 526 c 0
 180.06640625 488.93359375 192.418945312 441.084960938 192.418945312 397.020507812 c 0
 192.418945312 367.791015625 187.366210938 332.912109375 179.369140625 279.366210938 c 0
 170.225585938 218.135742188 157.356445312 143.625976562 144.333007812 80.208984375 c 0
 142.43359375 70.95703125 137.897460938 62.1416015625 130.725585938 54.96875 c 0
 120.96875 45.212890625 108.168945312 40.333984375 95.3701171875 40.333984375 c 0
EndSplineSet
Position2: "Chrs" dx=0 dy=0 dh=0 dv=0
EndChar

StartChar: u10FB9
Encoding: 69561 69561 10
Width: 840
Flags: HW
LayerCount: 2
Fore
SplineSet
184 1.009765625 m 0
 171.200195312 1.009765625 158.401367188 5.8876953125 148.64453125 15.64453125 c 0
 138.887695312 25.4013671875 134.009765625 38.2001953125 134.009765625 51 c 0
 134.009765625 52.9521484375 134.123046875 54.9033203125 134.349609375 56.8447265625 c 0
 141.908203125 121.513671875 145.092773438 227.640625 145.092773438 329.72265625 c 0
 145.092773438 399.5703125 143.602539062 467.5234375 141.001953125 519.009765625 c 1
 106 519.009765625 l 2
 93.2001953125 519.009765625 80.4013671875 523.887695312 70.64453125 533.64453125 c 0
 60.8876953125 543.401367188 56.009765625 556.200195312 56.009765625 569 c 0
 56.009765625 581.799804688 60.8876953125 594.598632812 70.64453125 604.35546875 c 0
 80.4013671875 614.112304688 93.2001953125 618.990234375 106 618.990234375 c 2
 548.797851562 618.990234375 l 2
 577.446289062 620.37890625 604.81640625 622.990234375 636 622.990234375 c 0
 664.0625 622.990234375 691.51171875 613.981445312 710.9765625 594.516601562 c 0
 739.1328125 566.359375 743.990234375 529.754882812 743.990234375 483.884765625 c 0
 743.990234375 482.912109375 743.990234375 481.951171875 743.990234375 481 c 0
 743.990234375 479.053710938 743.877929688 477.108398438 743.65234375 475.172851562 c 0
 741.248046875 438.916992188 726.188476562 242.119140625 703.676757812 41.388671875 c 0
 702.458007812 30.5185546875 697.68359375 19.97265625 689.35546875 11.64453125 c 0
 679.598632812 1.8876953125 666.799804688 -2.990234375 654 -2.990234375 c 0
 641.200195312 -2.990234375 628.401367188 1.8876953125 618.64453125 11.64453125 c 0
 608.887695312 21.4013671875 604.009765625 34.2001953125 604.009765625 47 c 0
 604.009765625 48.873046875 604.114257812 50.7470703125 604.323242188 52.611328125 c 0
 626.94921875 254.360351562 642.4375 461.53125 644.010742188 482.852539062 c 0
 644.017578125 499.584960938 644.0546875 512.684570312 640.408203125 522.747070312 c 0
 639.405273438 522.88671875 637.963867188 523.009765625 636 523.009765625 c 0
 609.538085938 523.009765625 579.395507812 520.336914062 552.3671875 519.065429688 c 0
 551.579101562 519.028320312 550.7890625 519.009765625 550 519.009765625 c 2
 241.184570312 519.009765625 l 1
 243.904296875 465.193359375 245.478515625 397.3359375 245.478515625 327.658203125 c 0
 245.478515625 224.155273438 242.004882812 116.635742188 233.650390625 45.1552734375 c 0
 232.388671875 34.3681640625 227.624023438 23.9130859375 219.35546875 15.64453125 c 0
 209.598632812 5.8876953125 196.799804688 1.009765625 184 1.009765625 c 0
EndSplineSet
Position2: "Chrs" dx=0 dy=0 dh=0 dv=0
EndChar

StartChar: u10FBA
Encoding: 69562 69562 11
Width: 364
Flags: HW
LayerCount: 2
Fore
SplineSet
146.009765625 521 m 0
 146.009765625 533.799804688 150.887695312 546.598632812 160.64453125 556.35546875 c 0
 170.401367188 566.112304688 183.200195312 570.990234375 196 570.990234375 c 0
 208.799804688 570.990234375 221.598632812 566.112304688 231.35546875 556.35546875 c 0
 237.94140625 549.76953125 242.3046875 541.796875 244.444335938 533.373046875 c 0
 281.225585938 388.615234375 283.517578125 278.03125 285.108398438 198.584960938 c 0
 285.426757812 182.700195312 286.087890625 169.419921875 286.087890625 154.927734375 c 0
 286.087890625 71.8583984375 242.822265625 -3.4619140625 175.625976562 -70.658203125 c 0
 164.037109375 -82.2470703125 151.6796875 -93.6591796875 138.579101562 -104.931640625 c 0
 129.236328125 -112.970703125 117.618164062 -116.990234375 106 -116.990234375 c 0
 93.2001953125 -116.990234375 80.4013671875 -112.112304688 70.64453125 -102.35546875 c 0
 60.8876953125 -92.5986328125 56.009765625 -79.7998046875 56.009765625 -67 c 0
 56.009765625 -52.8388671875 62.517578125 -38.4501953125 73.4208984375 -29.068359375 c 0
 84.783203125 -19.291015625 95.291015625 -9.572265625 104.915039062 0.0517578125 c 0
 161.833984375 56.9716796875 186.104492188 108.547851562 186.104492188 155.107421875 c 0
 186.104492188 168.771484375 185.436523438 182.150390625 185.1484375 196.568359375 c 0
 183.56640625 275.584960938 181.666992188 374.37109375 147.555664062 508.626953125 c 0
 146.525390625 512.681640625 146.009765625 516.840820312 146.009765625 521 c 0
EndSplineSet
Position2: "Chrs" dx=0 dy=0 dh=0 dv=0
EndChar

StartChar: u10FBB
Encoding: 69563 69563 12
Width: 902
Flags: HW
LayerCount: 2
Fore
SplineSet
174 -101 m 1025
700.565429688 558.041992188 m 1
 618.208007812 537.225585938 510.240234375 520.916992188 397.159179688 520.916992188 c 0
 294.049804688 520.916992188 186.252929688 534.977539062 94.810546875 577.702148438 c 0
 89.681640625 580.098632812 84.876953125 583.412109375 80.64453125 587.64453125 c 0
 70.8876953125 597.401367188 66.009765625 610.200195312 66.009765625 623 c 0
 66.009765625 635.799804688 70.8876953125 648.598632812 80.64453125 658.35546875 c 0
 90.4013671875 668.112304688 103.200195312 672.990234375 116 672.990234375 c 0
 123.247070312 672.990234375 130.494140625 671.42578125 137.189453125 668.297851562 c 0
 209.825195312 634.361328125 305.452148438 621.001953125 400.4609375 621.001953125 c 0
 494.358398438 621.001953125 591.040039062 634.887695312 658.625 650.75 c 0
 702.522460938 661.053710938 736.178710938 673.3984375 745.64453125 678.677734375 c 0
 753.188476562 682.885742188 761.59375 684.990234375 770 684.990234375 c 0
 782.799804688 684.990234375 795.598632812 680.112304688 805.35546875 670.35546875 c 0
 815.112304688 660.598632812 819.990234375 647.799804688 819.990234375 635 c 0
 819.990234375 632.387695312 819.787109375 629.775390625 819.380859375 627.188476562 c 0
 803.797851562 528.020507812 765.1484375 433.700195312 715.188476562 347.194335938 c 0
 652.709960938 239.01171875 572.224609375 142.55078125 493.439453125 63.765625 c 0
 415.23828125 -14.435546875 339.022460938 -75.0009765625 281.71484375 -112.20703125 c 0
 256.075195312 -128.852539062 234.627929688 -140.9140625 214.834960938 -148.466796875 c 0
 205.03125 -152.208007812 194.669921875 -155.67578125 180.068359375 -155.67578125 c 0
 170.177734375 -155.67578125 154.362304688 -153.643554688 139.984375 -139.265625 c 0
 130.551757812 -129.833007812 125.713867188 -117.526367188 124.416992188 -107.390625 c 0
 124.145507812 -105.26953125 124.009765625 -103.134765625 124.009765625 -101 c 0
 124.009765625 -88.2001953125 128.887695312 -75.4013671875 138.64453125 -65.64453125 c 0
 148.401367188 -55.8876953125 161.200195312 -51.009765625 174 -51.009765625 c 0
 177.84375 -51.009765625 181.6875 -51.4501953125 185.448242188 -52.3291015625 c 0
 201.219726562 -44.935546875 229.96875 -27.728515625 263.654296875 -3.140625 c 0
 309.467773438 30.30078125 365.751953125 77.5 422.729492188 134.4765625 c 0
 496.620117188 208.3671875 571.776367188 298.865234375 628.5625 397.192382812 c 0
 658.596679688 449.197265625 683.404296875 503.25390625 700.565429688 558.041992188 c 1
EndSplineSet
Position2: "Chrs" dx=0 dy=0 dh=0 dv=0
EndChar

StartChar: u10FBC
Encoding: 69564 69564 13
Width: 760
Flags: HW
LayerCount: 2
Fore
SplineSet
82.009765625 689 m 0
 82.009765625 701.799804688 86.8876953125 714.598632812 96.64453125 724.35546875 c 0
 106.401367188 734.112304688 119.200195312 738.990234375 132 738.990234375 c 0
 142.733398438 738.990234375 153.467773438 735.559570312 162.407226562 728.697265625 c 0
 324.446289062 604.31640625 444.84375 512.076171875 529.198242188 427.720703125 c 0
 610.330078125 346.588867188 660.750976562 269.267578125 669.748046875 177.936523438 c 0
 670.823242188 167.018554688 671.362304688 156.34765625 671.362304688 145.936523438 c 0
 671.362304688 122.200195312 668.560546875 99.80859375 662.926757812 78.900390625 c 0
 652.7734375 41.22265625 633.430664062 9.2841796875 608.114257812 -16.03125 c 0
 561.482421875 -62.6640625 498.637695312 -85.732421875 434.190429688 -98.9990234375 c 0
 353.15234375 -115.6796875 265.497070312 -116.990234375 190 -116.990234375 c 0
 177.200195312 -116.990234375 164.401367188 -112.112304688 154.64453125 -102.35546875 c 0
 144.887695312 -92.5986328125 140.009765625 -79.7998046875 140.009765625 -67 c 0
 140.009765625 -54.2001953125 144.887695312 -41.4013671875 154.64453125 -31.64453125 c 0
 164.401367188 -21.8876953125 177.200195312 -17.009765625 190 -17.009765625 c 0
 263.926757812 -17.009765625 345.891601562 -15.0830078125 413.9140625 -1.08203125 c 0
 468.716796875 10.1982421875 511.96484375 29.240234375 537.404296875 54.6796875 c 0
 558.73828125 76.013671875 571.391601562 103.551757812 571.391601562 145.830078125 c 0
 571.391601562 152.779296875 571.029296875 160.176757812 570.251953125 168.063476562 c 0
 564.515625 226.297851562 532.799804688 282.698242188 458.48828125 357.009765625 c 0
 382.140625 433.357421875 263.482421875 525.036132812 101.592773438 649.302734375 c 0
 89.7802734375 658.370117188 82.009765625 673.779296875 82.009765625 689 c 0
EndSplineSet
Position2: "Chrs" dx=0 dy=0 dh=0 dv=0
EndChar

StartChar: u10FBD
Encoding: 69565 69565 14
Width: 782
Flags: HW
LayerCount: 2
Fore
SplineSet
190.009765625 609 m 0
 190.009765625 621.799804688 194.887695312 634.598632812 204.64453125 644.35546875 c 0
 214.401367188 654.112304688 227.200195312 658.990234375 240 658.990234375 c 0
 252.799804688 658.990234375 265.598632812 654.112304688 275.35546875 644.35546875 c 0
 284.573242188 635.137695312 289.436523438 623.203125 289.9453125 611.119140625 c 0
 290.934570312 587.634765625 291.657226562 560.134765625 292.157226562 529.803710938 c 1
 374.538085938 529.240234375 438.84765625 528.76953125 483.979492188 527.975585938 c 0
 524.885742188 527.255859375 545.7265625 527.022460938 563.662109375 524.076171875 c 0
 577.299804688 521.8359375 616.842773438 516.173828125 649.970703125 483.045898438 c 0
 679.328125 453.688476562 696.8359375 408.798828125 696.8359375 347.278320312 c 0
 696.8359375 338.928710938 696.513671875 330.272460938 695.854492188 321.306640625 c 0
 690.362304688 246.6171875 678.485351562 198.840820312 662.033203125 164.24609375 c 0
 647.361328125 133.393554688 630.932617188 117.22265625 617.35546875 103.64453125 c 0
 605.479492188 91.7685546875 593.219726562 85.935546875 577.817382812 79.8466796875 c 0
 544.774414062 66.7841796875 496.850585938 56.6328125 459.32421875 50.9619140625 c 0
 443.458984375 48.5634765625 431.807617188 47.009765625 420 47.009765625 c 0
 407.200195312 47.009765625 394.401367188 51.8876953125 384.64453125 61.64453125 c 0
 374.887695312 71.4013671875 370.009765625 84.2001953125 370.009765625 97 c 0
 370.009765625 109.799804688 374.887695312 122.598632812 384.64453125 132.35546875 c 0
 394.401367188 142.112304688 407.200195312 146.990234375 420 146.990234375 c 2
 420 146.990234375 429.184570312 147.638671875 440.018554688 149.185546875 c 0
 453.83984375 151.158203125 471.91015625 154.357421875 489.612304688 158.270507812 c 0
 514.904296875 163.861328125 540.630859375 172.069335938 548.171875 176.032226562 c 0
 558.0390625 185.849609375 563.916015625 190.814453125 571.725585938 207.236328125 c 0
 580.612304688 225.923828125 591.189453125 261.293945312 596.145507812 328.693359375 c 0
 596.682617188 336.004882812 596.926757812 342.696289062 596.926757812 348.8203125 c 0
 596.926757812 390.419921875 585.703125 405.892578125 579.259765625 412.334960938 c 0
 570.448242188 421.146484375 558.694335938 423.533203125 545.728515625 425.694335938 c 0
 545.689453125 425.700195312 519.448242188 427.35546875 482.20703125 428.010742188 c 0
 437.529296875 428.796875 366.2109375 429.37109375 293.032226562 429.87109375 c 1
 293.0546875 420.958984375 293.06640625 411.939453125 293.06640625 402.833007812 c 0
 293.06640625 189.06640625 286.958984375 -72.4853515625 283.908203125 -125.873046875 c 0
 283.232421875 -137.69921875 278.381835938 -149.329101562 269.35546875 -158.35546875 c 0
 259.598632812 -168.112304688 246.799804688 -172.990234375 234 -172.990234375 c 0
 221.200195312 -172.990234375 208.401367188 -168.112304688 198.64453125 -158.35546875 c 0
 188.887695312 -148.598632812 184.009765625 -135.799804688 184.009765625 -123 c 0
 184.009765625 -122.041992188 184.037109375 -121.083984375 184.091796875 -120.126953125 c 0
 186.870117188 -71.51171875 192.966796875 196.002929688 192.966796875 408.731445312 c 0
 192.966796875 416.067382812 192.958984375 423.337890625 192.944335938 430.532226562 c 1
 169.032226562 430.690429688 146.250976562 430.848632812 125.603515625 431.01171875 c 0
 112.936523438 431.111328125 100.30078125 435.989257812 90.64453125 445.64453125 c 0
 80.8876953125 455.401367188 76.009765625 468.200195312 76.009765625 481 c 0
 76.009765625 493.799804688 80.8876953125 506.598632812 90.64453125 516.35546875 c 0
 100.401367188 526.112304688 113.200195312 530.990234375 126 530.990234375 c 0
 148.861328125 530.990234375 170.911132812 530.852539062 192.110351562 530.670898438 c 1
 191.64453125 559.305664062 190.971679688 585.084960938 190.0546875 606.880859375 c 0
 190.024414062 607.586914062 190.009765625 608.293945312 190.009765625 609 c 0
EndSplineSet
Position2: "Chrs" dx=0 dy=0 dh=0 dv=0
EndChar

StartChar: u10FBE
Encoding: 69566 69566 15
Width: 336
Flags: HW
LayerCount: 2
Fore
SplineSet
120.009765625 746 m 0
 120.009765625 758.799804688 124.887695312 771.598632812 134.64453125 781.35546875 c 0
 144.401367188 791.112304688 157.200195312 795.990234375 170 795.990234375 c 0
 182.799804688 795.990234375 195.598632812 791.112304688 205.35546875 781.35546875 c 0
 213.647460938 773.063476562 218.416015625 762.573242188 219.66015625 751.75390625 c 0
 228.328125 676.412109375 231.801757812 569.961914062 231.801757812 456.333007812 c 0
 231.801757812 300.735351562 225.350585938 109.188476562 213.4296875 -26.11328125 c 0
 209.076171875 -75.5283203125 204.870117188 -111.74609375 198.365234375 -136.681640625 c 0
 196.198242188 -144.991210938 191.861328125 -152.849609375 185.35546875 -159.35546875 c 0
 175.598632812 -169.112304688 162.799804688 -173.990234375 150 -173.990234375 c 0
 137.200195312 -173.990234375 124.401367188 -169.112304688 114.64453125 -159.35546875 c 0
 104.887695312 -149.598632812 100.009765625 -136.799804688 100.009765625 -124 c 0
 100.009765625 -119.735351562 100.551757812 -115.470703125 101.634765625 -111.318359375 c 0
 104.611328125 -99.908203125 109.731445312 -63.8837890625 113.837890625 -17.2744140625 c 0
 125.30859375 112.923828125 131.642578125 302.296875 131.642578125 453.206054688 c 0
 131.642578125 566.153320312 128.302734375 671.025390625 120.33984375 740.24609375 c 0
 120.120117188 742.157226562 120.009765625 744.079101562 120.009765625 746 c 0
EndSplineSet
Position2: "Chrs" dx=0 dy=0 dh=0 dv=0
EndChar

StartChar: u10FBF
Encoding: 69567 69567 16
Width: 769
Flags: HW
LayerCount: 2
Fore
SplineSet
120 73.009765625 m 0
 107.200195312 73.009765625 94.4013671875 77.8876953125 84.64453125 87.64453125 c 0
 74.8876953125 97.4013671875 70.009765625 110.200195312 70.009765625 123 c 0
 70.009765625 135.799804688 74.8876953125 148.598632812 84.64453125 158.35546875 c 0
 94.4013671875 168.112304688 107.200195312 172.990234375 120 172.990234375 c 0
 156.305664062 172.990234375 234.669921875 175.645507812 300.254882812 177.896484375 c 0
 348.41796875 179.549804688 389.0078125 180.990234375 406 180.990234375 c 0
 466.962890625 180.990234375 517.490234375 205.225585938 550.673828125 238.408203125 c 0
 579.529296875 267.264648438 594.009765625 301.989257812 594.009765625 331 c 0
 594.009765625 351.981445312 581.826171875 379.51171875 559.513671875 401.823242188 c 0
 535.823242188 425.514648438 504.840820312 439.0625 481.416015625 439.0625 c 0
 480.796875 439.0625 480.182617188 439.053710938 479.573242188 439.034179688 c 0
 420.94921875 437.202148438 387.3671875 422.485351562 367.793945312 402.912109375 c 0
 350.571289062 385.688476562 338.170898438 358.926757812 334.556640625 315.791992188 c 0
 334.62109375 289.014648438 334.725585938 272.015625 319.35546875 256.64453125 c 0
 309.598632812 246.887695312 296.799804688 242.009765625 284 242.009765625 c 0
 271.200195312 242.009765625 258.401367188 246.887695312 248.64453125 256.64453125 c 0
 238.887695312 266.401367188 234.009765625 279.200195312 234.009765625 292 c 0
 234.009765625 295.947265625 234.12890625 299.90625 234.251953125 304.064453125 c 0
 234.090820312 305.705078125 234.009765625 307.352539062 234.009765625 309 c 0
 234.009765625 309.8671875 234.032226562 310.735351562 234.077148438 311.6015625 c 0
 234.204101562 314.056640625 234.353515625 316.500976562 234.525390625 318.934570312 c 0
 234.477539062 418.72265625 218.009765625 601.26171875 218.009765625 606 c 0
 218.009765625 618.799804688 222.887695312 631.598632812 232.64453125 641.35546875 c 0
 242.401367188 651.112304688 255.200195312 655.990234375 268 655.990234375 c 0
 280.799804688 655.990234375 293.598632812 651.112304688 303.35546875 641.35546875 c 0
 311.977539062 632.732421875 316.790039062 621.733398438 317.791992188 610.458007812 c 0
 317.846679688 609.84765625 322.384765625 560.262695312 326.724609375 497.838867188 c 1
 367.307617188 524.776367188 418.404296875 537.15234375 476.426757812 538.965820312 c 0
 478.262695312 539.0234375 480.094726562 539.051757812 481.920898438 539.051757812 c 0
 539.477539062 539.051757812 591.918945312 510.840820312 630.224609375 472.534179688 c 0
 666.671875 436.087890625 693.990234375 386.704101562 693.990234375 331 c 0
 693.990234375 270.025390625 665.901367188 212.215820312 621.383789062 167.698242188 c 0
 569.696289062 116.009765625 494.135742188 81.009765625 406 81.009765625 c 0
 393.49609375 81.009765625 351.32421875 79.609375 303.7109375 77.9755859375 c 0
 237.7734375 75.7119140625 160.07421875 73.009765625 120 73.009765625 c 0
EndSplineSet
Position2: "Chrs" dx=0 dy=0 dh=0 dv=0
EndChar

StartChar: u10FC0
Encoding: 69568 69568 17
Width: 438
Flags: HW
LayerCount: 2
Fore
SplineSet
325 342.990234375 m 0
 337.799804688 342.990234375 350.598632812 338.112304688 360.35546875 328.35546875 c 0
 370.112304688 318.598632812 374.990234375 305.799804688 374.990234375 293 c 0
 374.990234375 292.580078125 374.985351562 292.161132812 374.974609375 291.741210938 c 0
 373.559570312 235.143554688 366.833984375 169.825195312 358.989257812 106.672851562 c 0
 358.962890625 102.709960938 358.469726562 98.75 357.508789062 94.8828125 c 0
 353.625 64.24609375 349.536132812 34.28515625 345.73046875 6.26171875 c 0
 340.396484375 -33.0087890625 335.604492188 -68.3828125 332.702148438 -95.3828125 c 0
 331.524414062 -106.333007812 326.7421875 -116.96875 318.35546875 -125.35546875 c 0
 308.598632812 -135.112304688 295.799804688 -139.990234375 283 -139.990234375 c 0
 270.200195312 -139.990234375 257.401367188 -135.112304688 247.64453125 -125.35546875 c 0
 237.887695312 -115.598632812 233.009765625 -102.799804688 233.009765625 -90 c 0
 233.009765625 -88.203125 233.106445312 -86.40625 233.297851562 -84.6171875 c 0
 236.447265625 -55.3349609375 241.325195312 -19.5107421875 246.665039062 19.8095703125 c 0
 249.196289062 38.4423828125 251.828125 57.8798828125 254.424804688 77.693359375 c 1
 224.479492188 92.2353515625 195.388671875 107.108398438 168.087890625 123.5234375 c 0
 133.3125 144.431640625 100.9296875 168.112304688 74.5576171875 197.861328125 c 0
 66.1923828125 207.296875 62.009765625 219.1484375 62.009765625 231 c 0
 62.009765625 243.799804688 66.8876953125 256.598632812 76.64453125 266.35546875 c 0
 86.4013671875 276.112304688 99.2001953125 280.990234375 112 280.990234375 c 0
 125.8828125 280.990234375 139.98828125 274.803710938 149.442382812 264.138671875 c 0
 168.015625 243.188476562 189.95703125 227.079101562 219.588867188 209.262695312 c 0
 234.178710938 200.491210938 250.098632812 191.844726562 267.043945312 183.162109375 c 1
 271.169921875 222.89453125 274.196289062 261.087890625 275.025390625 294.258789062 c 0
 275.334960938 306.635742188 280.208007812 318.918945312 289.64453125 328.35546875 c 0
 299.401367188 338.112304688 312.200195312 342.990234375 325 342.990234375 c 0
EndSplineSet
Position2: "Chrs" dx=0 dy=0 dh=0 dv=0
EndChar

StartChar: u10FC1
Encoding: 69569 69569 18
Width: 682
Flags: HW
LayerCount: 2
Fore
SplineSet
193 530.009765625 m 0
 180.200195312 530.009765625 167.401367188 534.887695312 157.64453125 544.64453125 c 0
 147.887695312 554.401367188 143.009765625 567.200195312 143.009765625 580 c 0
 143.009765625 592.799804688 147.887695312 605.598632812 157.64453125 615.35546875 c 0
 162.99609375 620.70703125 169.262695312 624.590820312 175.943359375 627.006835938 c 0
 212.7109375 640.305664062 248.985351562 646.231445312 283.884765625 646.231445312 c 0
 376.936523438 646.231445312 460.215820312 604.106445312 517.017578125 547.303710938 c 0
 545.993164062 518.329101562 568.833007812 485.202148438 583.536132812 449.7109375 c 0
 594.526367188 423.181640625 601.05859375 395.014648438 601.05859375 366.34765625 c 0
 601.05859375 364.3671875 601.02734375 362.385742188 600.96484375 360.401367188 c 0
 596.700195312 226.065429688 532.473632812 120.799804688 450.077148438 38.4033203125 c 0
 356.59765625 -55.076171875 244.072265625 -119.27734375 144.711914062 -178.893554688 c 0
 136.826171875 -183.624023438 127.913085938 -185.990234375 119 -185.990234375 c 0
 106.200195312 -185.990234375 93.4013671875 -181.112304688 83.64453125 -171.35546875 c 0
 73.8876953125 -161.598632812 69.009765625 -148.799804688 69.009765625 -136 c 0
 69.009765625 -123.200195312 73.8876953125 -110.401367188 83.64453125 -100.64453125 c 0
 86.607421875 -97.6826171875 89.849609375 -95.169921875 93.2880859375 -93.1064453125 c 0
 191.055664062 -34.4462890625 298.849609375 28.5966796875 379.366210938 109.114257812 c 0
 450.465820312 180.212890625 497.788085938 261.313476562 501.03515625 363.598632812 c 0
 501.0625 364.461914062 501.076171875 365.334960938 501.076171875 366.21875 c 0
 501.076171875 379.470703125 497.971679688 394.9296875 491.165039062 411.360351562 c 0
 461.294921875 483.461914062 376.512695312 546.19921875 284.1640625 546.19921875 c 0
 260.1171875 546.19921875 235.219726562 542.094726562 210.056640625 532.993164062 c 0
 204.55859375 531.00390625 198.779296875 530.009765625 193 530.009765625 c 0
EndSplineSet
Position2: "Chrs" dx=0 dy=0 dh=0 dv=0
EndChar

StartChar: u10FC2
Encoding: 69570 69570 19
Width: 674
Flags: HW
LayerCount: 2
Fore
SplineSet
487.528320312 339.197265625 m 0
 487.528320312 351.403320312 488.040039062 408.798828125 488.040039062 420.555664062 c 0
 488.040039062 433.35546875 492.91796875 446.154296875 502.674804688 455.911132812 c 0
 512.431640625 465.66796875 525.23046875 470.545898438 538.030273438 470.545898438 c 0
 550.830078125 470.545898438 563.62890625 465.66796875 573.385742188 455.911132812 c 0
 582.775390625 446.521484375 587.646484375 434.313476562 588 422 c 0
 588.340820312 410.10546875 587.493164062 352.4609375 587.493164062 340.118164062 c 0
 587.493164062 220.23046875 570.25390625 76.3662109375 513.419921875 -145.469726562 c 0
 511.271484375 -153.857421875 506.916015625 -161.793945312 500.35546875 -168.35546875 c 0
 490.598632812 -178.112304688 477.799804688 -182.990234375 465 -182.990234375 c 0
 452.200195312 -182.990234375 439.401367188 -178.112304688 429.64453125 -168.35546875 c 0
 419.887695312 -158.598632812 415.009765625 -145.799804688 415.009765625 -133 c 0
 415.009765625 -128.807617188 415.533203125 -124.615234375 416.580078125 -120.530273438 c 0
 451.96875 17.5986328125 471.091796875 121.94921875 480.291992188 207.963867188 c 1
 350.009765625 213.544921875 191.288085938 242.9453125 94.01171875 277.96875 c 0
 87.3056640625 280.3828125 81.0146484375 284.275390625 75.64453125 289.64453125 c 0
 65.8876953125 299.401367188 61.009765625 312.200195312 61.009765625 325 c 0
 61.009765625 337.799804688 65.8876953125 350.598632812 75.64453125 360.35546875 c 0
 85.4013671875 370.112304688 98.2001953125 374.990234375 111 374.990234375 c 0
 116.754882812 374.990234375 122.509765625 374.00390625 127.98828125 372.03125 c 0
 173.127929688 355.779296875 234.120117188 340.750976562 297.53125 329.47265625 c 0
 362.458007812 317.923828125 430.291015625 310.2109375 487.104492188 307.797851562 c 1
 487.393554688 318.500976562 487.528320312 328.951171875 487.528320312 339.197265625 c 0
EndSplineSet
Position2: "Chrs" dx=0 dy=0 dh=0 dv=0
EndChar

StartChar: u10FC3
Encoding: 69571 69571 20
Width: 891
Flags: HW
LayerCount: 2
Fore
SplineSet
198 741.990234375 m 0
 210.799804688 741.990234375 223.598632812 737.112304688 233.35546875 727.35546875 c 0
 243.112304688 717.598632812 247.990234375 704.799804688 247.990234375 692 c 0
 247.990234375 691.614257812 247.985351562 691.228515625 247.9765625 690.842773438 c 0
 246.473632812 625.459960938 243.844726562 515.524414062 240.080078125 397.624023438 c 1
 269.239257812 388.6796875 313.087890625 374.89453125 360.122070312 360.065429688 c 1
 398.362304688 461.956054688 427.534179688 586.715820312 434.19921875 663.362304688 c 0
 435.182617188 674.671875 439.998046875 685.708007812 448.64453125 694.35546875 c 0
 458.401367188 704.112304688 471.200195312 708.990234375 484 708.990234375 c 0
 496.799804688 708.990234375 509.598632812 704.112304688 519.35546875 694.35546875 c 0
 529.112304688 684.598632812 533.990234375 671.799804688 533.990234375 659 c 0
 533.990234375 657.543945312 533.926757812 656.088867188 533.80078125 654.637695312 c 0
 526.08984375 565.965820312 496.516601562 439.6796875 455.666015625 329.939453125 c 1
 508.439453125 313.326171875 555.272460938 298.68359375 578.934570312 291.698242188 c 1
 593.395507812 296.034179688 612.327148438 309.952148438 617.342773438 322.994140625 c 0
 640.708984375 383.745117188 670.885742188 453.000976562 708.422851562 607.83984375 c 0
 710.512695312 616.459960938 714.919921875 624.630859375 721.64453125 631.35546875 c 0
 731.401367188 641.112304688 744.200195312 645.990234375 757 645.990234375 c 0
 769.799804688 645.990234375 782.598632812 641.112304688 792.35546875 631.35546875 c 0
 802.112304688 621.598632812 806.990234375 608.799804688 806.990234375 596 c 0
 806.990234375 592.022460938 806.51953125 588.045898438 805.577148438 584.16015625 c 0
 766.96875 424.901367188 733.950195312 347.567382812 710.657226562 287.005859375 c 0
 703.157226562 267.504882812 691.432617188 251.92578125 678.556640625 239.049804688 c 0
 660.663085938 221.15625 640.259765625 208.086914062 618.998046875 199.759765625 c 0
 606.544921875 194.881835938 593.948242188 191.2109375 577.620117188 191.2109375 c 0
 571.793945312 191.2109375 565.541015625 191.826171875 558.8125 193.5078125 c 0
 541.875976562 197.7421875 473.547851562 219.547851562 394.26171875 244.584960938 c 0
 339.12109375 261.998046875 280.303710938 280.56640625 236.526367188 294.119140625 c 1
 235.68359375 271.338867188 234.798828125 248.654296875 233.873046875 226.319335938 c 0
 228.094726562 86.9326171875 221.368164062 -35.9443359375 211.20703125 -92.8427734375 c 0
 209.47265625 -102.557617188 204.85546875 -111.85546875 197.35546875 -119.35546875 c 0
 187.598632812 -129.112304688 174.799804688 -133.990234375 162 -133.990234375 c 0
 149.200195312 -133.990234375 136.401367188 -129.112304688 126.64453125 -119.35546875 c 0
 116.887695312 -109.598632812 112.009765625 -96.7998046875 112.009765625 -84 c 0
 112.009765625 -81.0400390625 112.270507812 -78.0791015625 112.79296875 -75.1572265625 c 0
 120.41015625 -32.5 128.30078125 93.51171875 133.978515625 230.4921875 c 0
 141.114257812 402.60546875 145.803710938 596.603515625 148.0234375 693.157226562 c 0
 148.30859375 705.568359375 153.182617188 717.892578125 162.64453125 727.35546875 c 0
 172.401367188 737.112304688 185.200195312 741.990234375 198 741.990234375 c 0
EndSplineSet
Position2: "Chrs" dx=0 dy=0 dh=0 dv=0
EndChar

StartChar: u10FC4
Encoding: 69572 69572 21
Width: 1119
Flags: HW
LayerCount: 2
Fore
SplineSet
743.698242188 -1.5439453125 m 0
 659.671261941 -1.5439453125 598.944336532 26.1185442826 562.055664062 88.583984375 c 1
 552.004882812 70.189453125 540.016601562 53.7578125 525.75390625 39.49609375 c 0
 484.533203125 -1.7255859375 429.646484375 -17.990234375 371 -17.990234375 c 0
 298.3671875 -17.990234375 232.151367188 -0.244140625 182.4140625 49.494140625 c 0
 153.044921875 78.86328125 131.724609375 116.650390625 116.233398438 162.004882812 c 0
 96.8427734375 218.776367188 86.033203125 288.147460938 81.0927734375 374.110351562 c 0
 81.037109375 375.072265625 81.009765625 376.036132812 81.009765625 377 c 0
 81.009765625 403.314400905 102.998091755 425.775353972 128.724609375 426.938476562 c 0
 129.516601562 426.974609375 462.698242188 442.2578125 743.702148438 442.2578125 c 0
 838.458007812 442.2578125 927.28125 440.51953125 995.42578125 435.874023438 c 0
 1020.27032485 434.178655471 1041.4054512 412.569742828 1041.97753906 387.131835938 c 0
 1042.23242188 375.765625 1042.36230469 364.717773438 1042.36230469 353.974609375 c 0
 1042.36230469 221.582728508 1025.63290108 121.890969727 962.334960938 58.5908203125 c 0
 904.480748069 0.737904245986 836.151277418 -1.5439453125 743.698242188 -1.5439453125 c 0
747.80859375 342.147460938 m 0
 702.999023438 342.147460938 656.624023438 341.75390625 610.359375 341.092773438 c 1
 612.578125 266.840820312 620.63671875 214.068359375 631.606445312 178.572265625 c 0
 641.017578125 148.120117188 652.15234375 131.01953125 662.033203125 121.138671875 c 0
 679.97011944 103.20175556 706.756895365 98.53515625 744.017578125 98.53515625 c 0
 761.918945312 98.53515625 783.013671875 99.5283203125 801.80078125 99.9755859375 c 0
 846.529296875 101.041015625 872.891601562 110.569335938 891.624023438 129.301757812 c 0
 930.952996338 168.630730713 940.87137395 245.580417872 942.239257812 338.678710938 c 1
 885.791992188 341.159179688 818.763671875 342.147460938 747.80859375 342.147460938 c 0
371 81.990234375 m 0
 412.322265625 81.990234375 436.685546875 91.849609375 455.04296875 110.206054688 c 0
 468.3671875 123.530273438 481.083984375 144.689453125 490.853515625 177.86328125 c 0
 502.143554688 216.203125 508.963867188 269.6796875 509.899414062 339.270507812 c 1
 374.63671875 336.33203125 251.311523438 331.83984375 184.813476562 329.201171875 c 1
 193.717649299 238.972221474 210.160715973 163.171050537 253.125 120.204101562 c 0
 278.63671875 94.6923828125 313.3359375 81.990234375 371 81.990234375 c 0
EndSplineSet
Position2: "Chrs" dx=0 dy=0 dh=0 dv=0
EndChar

StartChar: u10FC5
Encoding: 69573 69573 22
Width: 244
Flags: HW
LayerCount: 2
Fore
SplineSet
118 -77.990195527 m 0
 105.20061596 -77.990195527 92.4012319191 -73.1119100378 82.6446609407 -63.3553390593 c 0
 72.8880899622 -53.5987680809 68.009804473 -40.7993840404 68.009804473 -28 c 0
 68.009804473 -26.5316984648 68.0740021891 -25.0633969296 68.2023976214 -23.5996890012 c 0
 72.9745314975 30.8026371854 74.8934994388 116.54850725 74.8934994388 200.45346549 c 0
 74.8934994388 284.038875359 72.9891202753 365.797368767 70.1039269832 412.922192539 c 0
 70.041178643 413.947082095 70.009804473 414.973541047 70.009804473 416 c 0
 70.009804473 428.79938404 74.8880899622 441.598768081 84.6446609407 451.355339059 c 0
 94.4012319191 461.111910038 107.20061596 465.990195527 120 465.990195527 c 0
 132.79938404 465.990195527 145.598768081 461.111910038 155.355339059 451.355339059 c 0
 164.329472414 442.381205704 169.176383734 430.83273242 169.896073017 419.077807461 c 0
 173.010799606 368.203939835 175.10654058 284.98348749 175.10654058 199.57882381 c 0
 175.10654058 114.472208905 173.025401692 27.1966011691 167.797602379 -32.4003109988 c 0
 166.806757377 -43.6959440158 161.992669604 -54.7180085147 153.355339059 -63.3553390593 c 0
 143.598768081 -73.1119100378 130.79938404 -77.990195527 118 -77.990195527 c 0
EndSplineSet
Position2: "Chrs" dx=0 dy=0 dh=0 dv=0
EndChar

StartChar: u10FCA
Encoding: 69578 69578 26
Width: 642
Flags: HW
LayerCount: 2
Fore
SplineSet
366.803710938 340.947265625 m 1
 473.382455279 320.630257698 563.9765625 244.330571201 563.9765625 124.397460938 c 0
 563.9765625 86.8369140625 555.954101562 51.515625 539.547851562 18.5009765625 c 0
 516.310546875 -28.2578125 479.528320312 -69.2216796875 429.431640625 -120.671875 c 0
 419.740234375 -130.625976562 406.633789062 -135.790039062 393.599609375 -135.790039062 c 0
 366.701782284 -135.790039062 343.609375 -112.711053195 343.609375 -85.7998046875 c 0
 343.609375 -73.2109375 348.329101562 -60.62109375 357.767578125 -50.927734375 c 0
 406.337890625 -1.0439453125 435.630859375 34.1396484375 449.990234375 63.03515625 c 0
 459.704101562 82.58203125 464.0703125 99.705078125 464.0703125 122.361328125 c 0
 464.0703125 155.306323649 455.31681617 178.459551018 432.732421875 201.043945312 c 0
 407.216796875 226.559570312 363.073242188 247.12109375 300.657226562 247.12109375 c 0
 272.567382812 247.12109375 240.776367188 242.95703125 205.318359375 233.205078125 c 0
 200.965820312 232.008789062 196.482421875 231.41015625 192 231.41015625 c 0
 165.102172909 231.41015625 142.009765625 254.489142118 142.009765625 281.400390625 c 0
 142.009765625 301.321955933 155.13157022 319.738690885 171.662109375 327.086914062 c 0
 226.407226562 351.41796875 261.184570312 375.68359375 282.34375 396.84375 c 0
 300.62890625 415.127929688 309.439453125 431.232421875 314.126953125 445.837890625 c 0
 317.466796875 456.24609375 318.856445312 466.592773438 318.856445312 477.270507812 c 0
 318.856445312 483.091796875 318.443359375 489.010742188 317.708984375 495.092773438 c 1
 290.895100544 512.372301778 236.264188623 516.1015625 191.494140625 516.1015625 c 0
 162.935546875 516.1015625 136.418945312 513.9609375 120.100585938 510.752929688 c 0
 116.900390625 510.124023438 113.650390625 509.809570312 110.400390625 509.809570312 c 0
 83.502563534 509.809570312 60.41015625 532.88855618 60.41015625 559.799804688 c 0
 60.41015625 583.825401191 78.7799187386 604.537293089 100.700195312 608.846679688 c 0
 125.568359375 613.734375 156.452148438 616.36328125 189.260742188 616.36328125 c 0
 269.697420861 616.36328125 348.969373229 606.254259583 391.234375 563.989257812 c 0
 410.918718181 544.304914632 418.790039062 517.009593952 418.790039062 477.434570312 c 0
 418.790039062 419.241839788 398.328317215 377.643317454 366.803710938 340.947265625 c 1
EndSplineSet
Position2: "Chrs" dx=0 dy=0 dh=0 dv=0
EndChar

StartChar: u10FCB
Encoding: 69579 69579 27
Width: 714
Flags: HW
LayerCount: 2
Fore
SplineSet
131.009765625 0 m 0
 131.009765625 26.897827091 154.088751493 49.990234375 181 49.990234375 c 0
 196.596679688 49.990234375 212.342773438 41.76171875 221.286132812 29.6240234375 c 0
 225.215750761 24.3231325594 233.826847161 18.6391468876 247.75 12.123046875 c 0
 276.110351562 -1.1484375 321.010742188 -11.54296875 364.245117188 -11.54296875 c 0
 414.25 -11.54296875 462.341796875 1.0673828125 489.002929688 27.7294921875 c 0
 512.9921875 51.7177734375 526.8359375 90.0498046875 526.8359375 138.852539062 c 0
 526.8359375 185.746118967 513.761200666 255.020049334 484.16796875 284.61328125 c 0
 454.6484375 314.131835938 393.2890625 333.306640625 329.858398438 333.306640625 c 0
 306.687042494 333.306640625 275.453921388 328.537040629 263.205078125 323.575195312 c 0
 249.419379552 315.67177334 243.744617045 308.92578125 224.059570312 308.92578125 c 0
 196.102539062 308.92578125 173.270507812 330.385742188 173.270507812 359.020507812 c 0
 173.270507812 392.439639205 195.718360288 401.787722764 216.595703125 412.216796875 c 0
 245.884765625 429.333984375 280.349609375 453.43359375 304.966796875 478.049804688 c 0
 317.999023438 491.08203125 328.026367188 504.331054688 333.047851562 514.581054688 c 0
 336.643554688 521.919921875 337.505859375 526.899414062 337.505859375 529.954101562 c 0
 337.505859375 537.422141936 331.786556789 543.628800021 327.25 548.1640625 c 0
 308.174199873 567.241385037 261.181015152 581.637695312 216.546875 581.637695312 c 0
 197.383789062 581.637695312 175.533203125 578.46875 163.866210938 574.579101562 c 0
 158.7265625 572.866210938 153.36328125 572.009765625 148 572.009765625 c 0
 121.102172909 572.009765625 98.009765625 595.088751493 98.009765625 622 c 0
 98.009765625 674.841427546 164.124723094 681.641601562 216.979492188 681.641601562 c 0
 237.4765625 681.641601562 258.712890625 679.795898438 279.870117188 675.8046875 c 0
 321.552734375 667.940429688 364.87890625 651.95703125 397.9609375 618.875 c 0
 418.442382812 598.39453125 437.490234375 568.22265625 437.490234375 529.873046875 c 0
 437.490234375 486.556715167 415.629890368 453.044149273 394.946289062 428.2890625 c 1
 451.756835938 419.42578125 510.8515625 399.350585938 554.87890625 355.32421875 c 0
 600.228299488 309.971973169 626.896484375 220.040370915 626.896484375 140.03515625 c 0
 626.896484375 127.671875 626.255859375 115.337890625 624.9296875 103.107421875 c 0
 619.170898438 49.984375 599.932617188 -2.7626953125 559.713867188 -42.9814453125 c 0
 545.482421875 -57.212890625 528.912109375 -69.5009765625 510.208007812 -79.298828125 c 0
 465.225585938 -102.860351562 414.887695312 -111.891601562 366.40234375 -111.891601562 c 0
 304.132693396 -111.891601562 248.58801368 -98.6971812243 205.314453125 -78.447265625 c 0
 180.125976562 -66.6591796875 156.80859375 -51.466796875 140.713867188 -29.6240234375 c 0
 134.244140625 -20.8447265625 131.009765625 -10.421875 131.009765625 0 c 0
364 107.009765625 m 0
 337.102172909 107.009765625 314.009765625 130.088751493 314.009765625 157 c 0
 314.009765625 183.897827091 337.088751493 206.990234375 364 206.990234375 c 0
 390.897827091 206.990234375 413.990234375 183.911248507 413.990234375 157 c 0
 413.990234375 130.102172909 390.911248507 107.009765625 364 107.009765625 c 0
EndSplineSet
Position2: "Chrs" dx=0 dy=0 dh=0 dv=0
EndChar

StartChar: uni10FC9
Encoding: 69577 69577 28
Width: 704
Flags: HW
LayerCount: 2
Fore
SplineSet
74.009765625 34 m 0
 74.009765625 60.897827091 97.0887514928 83.990234375 124 83.990234375 c 0
 133.232421875 83.990234375 144.146484375 83.6376953125 158.333984375 83.6376953125 c 0
 238.043945312 83.6376953125 393.465820312 88.15234375 477.756835938 97.4287109375 c 0
 501.639648438 100.057617188 521.07421875 103.500976562 528.567382812 105.583007812 c 1
 524.918069599 127.869659837 508.491389243 153.549626382 494.908203125 167.1328125 c 0
 478.331054688 183.709960938 428.287109375 223.459960938 366.884765625 264.967773438 c 0
 289.719726562 317.131835938 192.1953125 374.461914062 109.388671875 407.584960938 c 0
 91.9760561081 414.551122723 78.009765625 433.344196404 78.009765625 454 c 0
 78.009765625 480.897827091 101.088751493 503.990234375 128 503.990234375 c 0
 134.326171875 503.990234375 140.65234375 502.798828125 146.611328125 500.415039062 c 0
 240.3828125 462.90625 341.583984375 402.794921875 422.83203125 347.87109375 c 0
 488.161132812 303.708984375 539.046875 264.415039062 565.619140625 237.842773438 c 0
 583.813252865 219.648661198 597.919155062 198.576740243 611.0859375 171.240234375 c 0
 620.444335938 151.810546875 628.995117188 130.263671875 628.995117188 102.841796875 c 0
 628.995117188 80.984375 622.556640625 55.6083984375 602.618164062 35.669921875 c 0
 575.050122069 8.10187988153 539.396848482 3.62343802725 488.771484375 -1.947265625 c 0
 399.951171875 -11.72265625 245.00390625 -16.3662109375 160.134765625 -16.3662109375 c 0
 125.916624854 -16.3662109375 106.648306504 -19.3592440039 88.64453125 -1.35546875 c 0
 78.8876953125 8.4013671875 74.009765625 21.2001953125 74.009765625 34 c 0
EndSplineSet
EndChar

StartChar: DiakAfull
Encoding: 71936 71936 29
Width: 840
Flags: W
HStem: 116.069 50.9902<274.436 329.708> 281.356 50.9375<110.605 197.308> 474.541 50.9902<404.846 607.319> 654.606 50.9521<103.05 204.248>
VStem: 30.1797 50.9902<358.762 430.557> 49.624 50.9766<583.521 652.653> 196.705 50.9902<194.375 281.356> 219.687 50.9902<564.797 637.545> 498.863 50.9902<95.349 253.973> 730.79 50.9902<59.4583 181.586 314.138 354.886>
LayerCount: 2
Fore
SplineSet
730.790039062 121.028320312 m 0xf0c0
 730.790039062 138.11328125 720.295898438 163.743164062 706.508789062 186.405273438 c 0
 689.3671875 214.581054688 669.678710938 236.482421875 669.634765625 236.532226562 c 0
 665.393554688 241.265625 663.272460938 247.233398438 663.272460938 253.200195312 c 0
 663.272460938 265.506835938 669.788085938 269.854492188 678.041015625 278.108398438 c 0
 690.865234375 290.931640625 718.784179688 321.173828125 728.107421875 344.587890625 c 0
 732.611328125 355.8984375 732.149414062 355.897460938 725.795898438 366.328125 c 0
 715.946289062 382.498046875 696.877929688 400.458007812 679.611328125 413.3671875 c 1
 648.09375 376.53515625 585.6171875 291.426757812 561.352539062 232.68359375 c 0
 553.4609375 213.580078125 549.853515625 199.741210938 549.853515625 187.109375 c 0
 549.853515625 125.485351562 601.645507812 20.0458984375 629.913085938 -8.2216796875 c 0
 634.114257812 -12.4228515625 637.407226562 -14.5126953125 638.83984375 -15.3173828125 c 0
 650.235351562 -12.259765625 658.669921875 -4.2001953125 669.025390625 6.15625 c 0
 686.184570312 23.314453125 704.196289062 48.470703125 716.104492188 72.521484375 c 0
 725.676757812 91.8544921875 730.790039062 110.22265625 730.790039062 121.028320312 c 0xf0c0
723.360351562 251.536132812 m 1
 746.706054688 221.454101562 781.780273438 171.640625 781.780273438 121.028320312 c 0
 781.780273438 97.517578125 773.481445312 73.4599609375 761.95703125 50.080078125 c 0
 741.587890625 8.751953125 710.65234375 -34.1337890625 671.859375 -56.2822265625 c 0
 661.989257812 -61.9169921875 651.287109375 -66.552734375 638.116210938 -66.552734375 c 0
 617.85546875 -66.552734375 604.2890625 -54.79296875 593.635742188 -44.138671875 c 0
 550.801757812 -1.3056640625 498.86328125 110.904296875 498.86328125 187.109375 c 0
 498.86328125 210.047851562 504.919921875 229.69140625 514.168945312 252.1328125 c 0
 540.478515625 315.970703125 599.422851562 397.569335938 635.663085938 440.590820312 c 1
 597.283203125 460.141601562 549.75390625 474.541015625 497.223632812 474.541015625 c 0
 398.706054688 474.541015625 314.416015625 400.780273438 271.469726562 332.233398438 c 1
 315.353515625 325.735351562 352.978515625 304.15234375 375.900390625 281.229492188 c 0
 387.671875 269.458007812 400.322265625 254.896484375 400.322265625 233.22265625 c 0
 400.322265625 219.940429688 396.439453125 206.751953125 390.5859375 192.587890625 c 0
 377.529296875 160.99609375 349.736328125 116.069335938 304.0625 116.069335938 c 0
 297.541992188 116.069335938 290.879882812 117.143554688 284.4609375 119.283203125 c 0
 229.610351562 137.56640625 196.705078125 205.313476562 196.705078125 267.946289062 c 0
 196.705078125 272.647460938 196.90234375 277.08203125 197.307617188 281.356445312 c 1
 173.77734375 281.911132812 150.298828125 285.293945312 128.462890625 291.729492188 c 0
 80.97265625 305.724609375 30.1796875 339.09375 30.1796875 399.123046875 c 0xfac0
 30.1796875 425.669921875 45.5478515625 446.353515625 62.3212890625 463.125976562 c 0
 81.8115234375 482.616210938 106.71484375 499.762695312 131.154296875 516.208984375 c 1
 93.384765625 531.791015625 49.6240234375 557.400390625 49.6240234375 613.489257812 c 0xf4c0
 49.6240234375 667.0546875 84.1201171875 705.55859375 137.521484375 705.55859375 c 0
 205.434570312 705.55859375 270.676757812 668.161132812 270.676757812 592.241210938 c 0
 270.676757812 568.336914062 256.778320312 550.212890625 242.194335938 535.62890625 c 0
 204.669921875 498.104492188 134.095703125 462.704101562 98.396484375 427.004882812 c 0
 85.142578125 413.75 81.169921875 403.814453125 81.169921875 399.123046875 c 0xf9c0
 81.169921875 348.859375 151.809570312 332.293945312 204.689453125 332.293945312 c 0
 207.505859375 332.293945312 210.323242188 332.342773438 213.134765625 332.439453125 c 0
 227.756835938 362.408203125 251.661132812 396.404296875 283.284179688 428.028320312 c 0
 335.240234375 479.983398438 407.68359375 525.53125 497.266601562 525.53125 c 0
 605.642578125 525.53125 694.125 474.682617188 741.821289062 426.986328125 c 0
 754.754882812 414.052734375 764.921875 401.213867188 771.96484375 388.4296875 c 0
 777.538085938 378.314453125 781.780273438 367.747070312 781.780273438 355.388671875 c 0
 781.780273438 344.645507812 779.123046875 334.888671875 775.547851562 325.864257812 c 0
 764.553710938 298.108398438 740.383789062 269.54296875 723.360351562 251.536132812 c 1
247.6953125 267.946289062 m 0
 247.6953125 226.712890625 268.040039062 178.520507812 300.643554688 167.65234375 c 0
 302.022460938 167.192382812 303.04296875 167.059570312 304.0625 167.059570312 c 0
 307.137695312 167.059570312 313.331054688 169.181640625 320.979492188 176.829101562 c 0
 332.55859375 188.409179688 347.142578125 213.206054688 349.280273438 232.4921875 c 0
 348.766601562 233.728515625 346.4921875 238.494140625 339.560546875 245.42578125 c 0
 322.276367188 262.709960938 287.016601562 281.927734375 248.537109375 283.155273438 c 0
 247.7734375 279.26171875 247.6953125 275.254882812 247.6953125 267.946289062 c 0
183.217773438 552.333984375 m 1
 194.516601562 560.904296875 219.686523438 582.109375 219.686523438 592.241210938 c 0
 219.686523438 637.697265625 182.655273438 654.606445312 136.982421875 654.606445312 c 0
 110.4296875 654.606445312 100.600585938 641.956054688 100.600585938 613.685546875 c 0xf5c0
 100.600585938 601.271484375 101.252929688 596.98828125 110.436523438 587.8046875 c 0
 125.4375 572.803710938 159.07421875 558.919921875 183.217773438 552.333984375 c 1
EndSplineSet
EndChar

StartChar: DiakAAfull
Encoding: 71937 71937 30
Width: 1064
Flags: HW
HStem: 116.069 50.9902<274.436 329.708> 281.356 50.9375<110.605 197.308> 474.541 50.9902<404.846 607.319> 654.606 50.9521<103.05 204.248>
VStem: 30.1797 50.9902<358.762 430.557> 49.624 50.9766<583.521 652.653> 196.705 50.9902<194.375 281.356> 219.687 50.9902<564.797 637.545> 498.863 50.9902<95.349 253.973> 730.79 50.9902<59.4583 181.586 314.138 354.886> 964.585 50.9902<266.909 411.328>
LayerCount: 2
Fore
SplineSet
964.584980361 361.162109375 m 0xf0e0
 964.584980361 367.842025849 962.188579526 377.892809404 956.420233697 389.504324664 c 0
 940.932973012 420.679737702 908.199934276 451.897311879 876.640449598 471.48538881 c 0
 869.824666301 475.715752168 864.820331924 484.144143331 864.820331924 492.737304688 c 0
 864.820331924 507.13607302 876.803573705 518.582011826 890.342773437 518.582011826 c 0
 894.92006514 518.582011826 899.497356843 517.334236917 903.517983665 514.838687098 c 0
 943.605119167 489.95713301 981.769005409 453.260016755 1002.15241926 412.145513889 c 0
 1010.30534575 395.700598324 1015.57517589 378.630254514 1015.57517589 361.162109375 c 0
 1015.57517589 313.537123739 991.769541568 221.141345777 922.08635044 102.270725781 c 0
 917.936722288 95.1919903916 909.359974767 89.914081924 900.510742188 89.914081924 c 0
 886.036168201 89.914081924 874.653339736 101.8677503 874.653339736 115.4140625 c 0
 874.653339736 119.788864609 875.793158741 124.163666719 878.07279675 128.05246097 c 0
 944.386682495 241.176148416 964.584980361 328.796456864 964.584980361 361.162109375 c 0xf0e0
EndSplineSet
Refer: 29 71936 N 1 0 0 1 0 0 2
EndChar

StartChar: DiakIfull
Encoding: 71938 71938 31
Width: 656
Flags: W
HStem: -61.1299 50.9902<135.815 365.293> -11.1709 49.1309<43.1354 108.548> 144.771 50.9902<191.641 281.276> 433.005 50.9902<319.992 488.39> 633.509 50.9902<118.068 198.56>
VStem: 52.5049 50.9687<543.868 625.4> 118.36 50.9902<218.213 290.034> 284.539 50.9902<199.337 270.211> 558.505 50.9902<170.734 353.084>
LayerCount: 2
Fore
SplineSet
558.504882812 236.5 m 4xbf80
 558.504882812 337.802066155 523.604903273 433.004882812 412 433.004882812 c 4
 335.915039062 433.004882812 275.862304688 393.279296875 233.770507812 347.397460938 c 5
 258.534179688 337.073242188 283.875976562 321.796875 303.647460938 302.025390625 c 4
 321.001953125 284.669921875 335.529296875 261.998046875 335.529296875 234.352539062 c 4
 335.529296875 207.53515625 325.736328125 185.9765625 311.147460938 171.387695312 c 4
 290.03515625 150.274414062 263.14453125 144.770507812 244.991210938 144.770507812 c 4
 225.034886804 144.770507812 209.697554548 150.678125378 186.375976562 161.690429688 c 4
 158.560989837 174.823380542 118.360351562 198.235605536 118.360351562 239.599609375 c 4
 118.360351562 267.628337645 135.667183231 296.663846455 148.795898438 318.536132812 c 5
 113.981532133 332.191767871 83.7923840052 358.087595742 65.9033203125 386.260742188 c 4
 61.376953125 393.389648438 56.466796875 401.317382812 56.466796875 413.125 c 4
 56.466796875 428.583088555 65.1508151658 437.720927727 72.3271484375 447.017578125 c 4
 102.682353812 486.341245723 152.740683011 536.293436476 181.625 574.7734375 c 4
 190.282941602 586.307988187 196.795197385 594.602623821 200.477539062 605.3828125 c 5
 199.303680351 623.533821824 163.494261478 633.508789062 143.475585938 633.508789062 c 4
 133.190429688 633.508789062 127.594726562 631.655273438 121.768554688 625.829101562 c 4
 112.798828125 616.859375 104.665039062 596.022460938 103.473632812 567.4296875 c 4
 102.935892865 554.526013019 91.6876566979 543.483398438 78.5 543.483398438 c 4
 64.1929861472 543.483398438 52.5048828125 554.476321325 52.5048828125 568.521484375 c 4
 52.5048828125 626.387637692 80.5740224348 684.499023438 143.475585938 684.499023438 c 4
 178.461914062 684.499023438 211.489257812 671.208984375 231.051757812 651.647460938 c 4
 242.625976562 640.072265625 251.495117188 623.84765625 251.495117188 604.5 c 4
 251.495117188 593.19921875 247.71875 584.758789062 243.6015625 576.645507812 c 4
 238.369140625 566.334960938 231.27734375 555.866210938 222.951171875 544.732421875 c 4
 193.353896095 505.160588085 147.989318008 459.157198988 116.819335938 420.8359375 c 4
 114.169921875 417.578125 111.88671875 414.538085938 110.130859375 412.09375 c 4
 124.386266371 391.78432261 151.154291827 368.509942969 179.461914062 362.450195312 c 5
 229.376443597 424.567082884 306.466849804 483.995117188 412 483.995117188 c 4
 553.490970939 483.995117188 609.495117188 366.26935804 609.495117188 236.5 c 4
 609.495117188 218.879882812 603.161132812 195.259765625 590.505859375 165.65625 c 4
 574.762695312 128.831054688 548.466796875 84.1396484375 508.258789062 43.931640625 c 4
 475.403320312 11.076171875 433.283203125 -18.59765625 380.641601562 -37.494140625 c 4
 332.98046875 -54.603515625 288.969726562 -61.1298828125 249.65234375 -61.1298828125 c 4xbf80
 156.198358498 -61.1298828125 103.028024979 -28.986257 58.5068359375 -11.1708984375 c 4
 49.80078125 -7.6884765625 42.818359375 1.708984375 42.818359375 12.0361328125 c 4
 42.818359375 26.818359375 54.5263671875 37.9599609375 68.185546875 37.9599609375 c 4x7f80
 78.8864116213 37.9599609375 86.5084480373 32.3543300437 95.349609375 28.3271484375 c 4
 128.166992188 13.376953125 180.06640625 -10.1396484375 249.65234375 -10.1396484375 c 4
 283.302734375 -10.1396484375 321.17578125 -4.6484375 363.359375 10.494140625 c 4
 408.111328125 26.5595703125 443.8984375 51.7275390625 472.139648438 79.9677734375 c 4
 506.716796875 114.545898438 530.015625 154.008789062 543.583984375 185.712890625 c 4
 554.375976562 210.927734375 558.504882812 232.151367188 558.504882812 236.5 c 4xbf80
244.991210938 195.760742188 m 4
 265.311888995 195.760742188 284.5390625 207.952360422 284.5390625 234.352539062 c 4
 284.5390625 242.754882812 279.583007812 253.892578125 267.577148438 265.8984375 c 4
 250.999023438 282.4765625 223.775390625 297.185546875 200.729492188 305.181640625 c 5
 190.688476562 290.06640625 182.926757812 275.774414062 177.631835938 264.02734375 c 4
 172.05078125 251.645507812 169.350585938 241.935546875 169.350585938 239.599609375 c 4
 169.350585938 238.837890625 170.123046875 234.846679688 176.280273438 228.690429688 c 4
 187.224911056 217.744268171 229.055810473 195.760742188 244.991210938 195.760742188 c 4
EndSplineSet
EndChar

StartChar: DiakIIfull
Encoding: 71939 71939 32
Width: 908
Flags: W
HStem: -158.995 49.9902<347.212 496.576> -61.1299 50.9902<135.815 365.293> -11.1709 49.1309<43.1354 108.548> 144.771 50.9902<191.641 281.276> 154.771 49.9451<695.422 760.676> 285.061 50.0083<699.848 768.036> 384.499 50.0944<604.826 757.639> 433.005 50.9902<319.992 488.39> 633.509 50.9902<118.068 198.56>
VStem: 52.5049 50.9687<543.868 625.4> 118.36 50.9902<218.213 290.034> 284.539 50.9902<199.337 270.211> 558.505 50.9902<170.734 353.084> 641.005 49.9902<209.223 277.921> 804.557 49.9439<109.391 198.435>
LayerCount: 2
Fore
SplineSet
774.219479997 257.046522082 m 0x8cfe
 773.180581713 258.169682419 772.13069467 259.260043612 771.072526601 260.318211682 c 0
 754.212962817 277.177775466 735.316074772 284.688529204 727.675062416 285.060670168 c 0
 710.332327721 283.904487855 690.995097764 255.829830398 690.995097764 240 c 0
 690.995097764 223.530213614 710.367662196 204.715628742 729.12037587 204.715628742 c 0
 739.367366685 204.715628742 743.833076096 206.545320957 750.946018849 213.65826371 c 0
 760.607242038 223.319486837 768.835683315 239.052626598 774.219479997 257.046522082 c 0x8cfe
545.004902236 374 m 0
 545.004902236 383.267691155 550.766551068 392.096640061 558.268134151 396.081856073 c 0
 595.900352265 416.073971946 644.216663764 434.593288074 693.028842355 434.593288074 c 0
 737.632212152 434.593288074 769.13059309 422.44107242 797.554573877 394.017091633 c 0
 820.930274804 370.641390705 830.972421007 336.974822266 830.972421007 302.959040155 c 0
 830.972421007 291.41154597 830.075616142 280.104518613 828.375386782 269.206387268 c 1
 844.534430722 243.832181254 854.500938342 212.145854511 854.500938342 175.22720681 c 0
 854.500938342 166.746019178 853.954510364 157.942460507 852.793765748 148.822324242 c 0
 847.4200872 106.600564217 818.359893652 64.7204363665 778.496248467 24.8567911813 c 0
 725.898492514 -27.7409647717 651.32960906 -77.9864134584 570.578053048 -112.882249384 c 0
 506.010164019 -140.784503816 437.247218288 -158.995097764 372 -158.995097764 c 0
 358.544543448 -158.995097764 347.004902236 -147.448743767 347.004902236 -134 c 0
 347.004902236 -120.544543448 358.551256233 -109.004902236 372 -109.004902236 c 0
 427.832819628 -109.004902236 490.667239389 -92.9367988944 550.709735226 -66.990139947 c 0
 625.721160297 -34.5748341486 695.998100697 13.0693215299 743.140909408 60.2121302406 c 0
 779.438512586 96.5097334185 800.239815864 131.870102711 803.206234252 155.177675758 c 0
 804.126995156 162.412225719 804.55708309 169.2960427 804.55708309 175.842686844 c 0
 804.557083097 183.999779852 803.889368888 191.633409921 802.671137177 198.769808023 c 1
 797.728264497 191.118509037 792.243082709 184.244649451 786.301357908 178.302924651 c 0
 772.788904147 164.79047089 754.961948241 154.770569899 729.468553391 154.770569899 c 0
 682.181974057 154.770569899 641.004902236 194.289683498 641.004902236 240 c 0
 641.004902236 266.782180642 654.049742241 291.302741985 671.7208897 308.973889444 c 0
 685.91549052 323.168490264 704.508000832 335.068945346 728.226956761 335.068945346 c 0
 739.136688295 335.068945346 749.589431432 332.052943942 760.367704801 327.437714083 c 0
 767.100253395 324.554853513 773.67547372 321.133580143 780.020193593 317.194829826 c 1
 774.092209237 362.861031556 740.551837619 384.498866572 694.345260083 384.498866572 c 0x8efe
 657.877671381 384.498866572 615.755286816 369.993086315 581.731865849 351.918143927 c 0
 578.07603314 349.9759828 574.03801657 349.004902236 570 349.004902236 c 0
 556.544543448 349.004902236 545.004902236 360.551256233 545.004902236 374 c 0
EndSplineSet
Refer: 31 71938 N 1 0 0 1 0 0 2
EndChar

StartChar: DiakUfull
Encoding: 71940 71940 33
Width: 898
Flags: W
HStem: -27.0742 50.9912<360.49 614.23> 418.801 50.9883<116.245 225.794> 575.005 50.9902<296.839 384.838>
VStem: 46.5049 50.9902<488.284 599.288> 244.767 50.9902<495.235 565.166> 260.481 50.9902<73.5959 270.617> 393.55 50.9902<446.951 567.296> 790.162 50.9902<202.253 365.698>
LayerCount: 2
Fore
SplineSet
97.4951171875 574.5 m 4xfb
 97.4951171875 519.721428802 106.927079664 469.7890625 163.778320312 469.7890625 c 4
 193.907226562 469.7890625 215.96484375 481.239257812 229.438476562 494.712890625 c 4
 240.551757812 505.826171875 244.766601562 517.942382812 244.766601562 523.931640625 c 4xfb
 244.766601562 531.2265625 243.151367188 538.810546875 243.151367188 547.678710938 c 4
 243.151367188 564.15625 246.576171875 584.9765625 262.912109375 601.313476562 c 4
 280.41796875 618.819335938 306.756835938 625.995117188 342 625.995117188 c 4
 372.009765625 625.995117188 396.428710938 616.22265625 413.325195312 599.327148438 c 4
 440.140625 572.51171875 444.540039062 535.111328125 444.540039062 506.53125 c 4
 444.540039062 479.599881537 440.805839278 465.530527015 431.129882812 446.877929688 c 4
 401.992620818 390.708929226 361.448545821 339.7025381 334.788085938 275.092773438 c 4
 320.69921875 240.951171875 311.471679688 205.793945312 311.471679688 171.641601562 c 4
 311.471679688 111.771484375 326.681640625 75.8359375 346.6640625 55.8525390625 c 4
 368.708984375 33.80859375 403 23.9169921875 450.328125 23.9169921875 c 4
 462.602539062 23.9169921875 475.96875 24.248046875 488.287109375 24.314453125 c 6
 488.44140625 24.314453125 l 6
 534.103515625 24.560546875 566.09765625 25.0146484375 600.6484375 38.9765625 c 4
 628.5234375 50.2412109375 663.560546875 74.08984375 703.405273438 113.934570312 c 4
 767.016601562 177.545898438 790.162109375 236.633789062 790.162109375 283.232421875 c 4
 790.162109375 308.3046875 783.62109375 330.416992188 772.182617188 349.291015625 c 4
 769.779296875 353.256835938 768.577148438 357.749023438 768.577148438 362.241210938 c 4
 768.577148438 375.634765625 780.008789062 387.75390625 794.427734375 387.75390625 c 4
 803.12890625 387.75390625 811.618164062 382.637695312 815.817382812 375.708984375 c 4
 831.994140625 349.016601562 841.15234375 317.46484375 841.15234375 283.232421875 c 4
 841.15234375 219.212890625 809.670898438 148.076171875 739.469726562 77.8759765625 c 4
 696.349609375 34.755859375 656.071289062 6.3740234375 619.705078125 -8.302734375 c 4
 574.69140625 -26.4697265625 533.568359375 -26.4326171875 488.564453125 -26.67578125 c 6
 488.344726562 -26.67578125 l 6
 476.185546875 -26.7412109375 462.91796875 -27.07421875 450.20703125 -27.07421875 c 4
 396.251953125 -27.07421875 346.359375 -16.0927734375 310.530273438 19.736328125 c 4
 277.510742188 52.755859375 260.481445312 103.516601562 260.481445312 171.7109375 c 4xf7
 260.481445312 299.244326301 343.322445997 388.693897119 385.712890625 470.16796875 c 4
 394.930117871 487.878043948 393.549804688 487.256000813 393.549804688 506.53125 c 4
 393.549804688 547.500352582 383.92663884 575.004882812 342 575.004882812 c 4
 312.92578125 575.004882812 302.188476562 568.544921875 298.944335938 565.299804688 c 4
 296.114257812 562.470703125 294.141601562 557.9375 294.141601562 547.678710938 c 4
 294.141601562 540.426757812 295.756835938 532.795898438 295.756835938 523.931640625 c 4
 295.756835938 500.095703125 284.014648438 477.14453125 265.520507812 458.650390625 c 4
 242.453125 435.583007812 207.221679688 418.80078125 163.709960938 418.80078125 c 4
 75.5886027349 418.80078125 46.5048828125 490.413866151 46.5048828125 574.5 c 4
 46.5048828125 587.948822075 58.0444598394 599.495117188 71.5 599.495117188 c 6
 72.5 599.495117188 l 6
 85.9488220747 599.495117188 97.4951171875 587.955540161 97.4951171875 574.5 c 4xfb
EndSplineSet
EndChar

StartChar: DiakUUfull
Encoding: 71941 71941 34
Width: 1022
Flags: W
HStem: -27.5381 50.9902<382.182 625.031> 135.202 75.7773<791.98 943.876> 357.023 50.9902<680.687 757.567> 403.822 50.9824<115.679 219.441> 566.005 50.9902<290.839 369.105>
VStem: 40.5049 50.9902<480.84 590.288> 238.805 50.9902<473.639 556.166> 254.481 50.9902<88.0035 251.787> 385.69 50.9902<415.389 551.431> 607.946 50.9902<228.672 339.286> 777.378 50.707<189.74 338.598>
LayerCount: 2
Fore
SplineSet
163.147460938 454.8046875 m 0xdee0
 202.272460938 454.8046875 238.8046875 482.473632812 238.8046875 514.215820312 c 0xdee0
 238.8046875 521.774414062 237.151367188 529.5625 237.151367188 538.678710938 c 0
 237.151367188 555.15625 240.576171875 575.9765625 256.912109375 592.313476562 c 0
 274.41796875 609.819335938 300.756835938 616.995117188 336 616.995117188 c 0
 414.280273438 616.995117188 436.680664062 532.57421875 436.680664062 457.383789062 c 0
 436.680664062 402.076171875 416.873046875 383.447265625 391.868164062 351.52734375 c 0
 353.200195312 302.163085938 305.471679688 239.334960938 305.471679688 162.654296875 c 0
 305.471679688 90.24609375 347.919921875 55.4423828125 400.241210938 37.5732421875 c 0
 428.211914062 28.0205078125 456.7890625 24.9951171875 474 24.9951171875 c 0
 499.083007812 24.9951171875 520.526367188 23.4521484375 544.64453125 23.4521484375 c 0
 566.708984375 23.4521484375 583.094726562 25.2333984375 601.528320312 32.576171875 c 0
 624.306640625 41.6484375 656.745117188 64.27734375 697.063476562 104.595703125 c 0
 710.124023438 117.65625 721.30859375 130.53515625 730.807617188 143.145507812 c 1
 696.997070312 152.859375 664.352539062 172.294921875 640.306640625 196.340820312 c 0
 616.543945312 220.103515625 607.946289062 249.53125 607.946289062 276.333984375 c 0
 607.946289062 319.087890625 627.541992188 361.1953125 648.955078125 380.466796875 c 0
 663.826171875 393.8515625 688.791992188 408.013671875 719.927734375 408.013671875 c 0
 743.483398438 408.013671875 769.05859375 398.85546875 791.012695312 376.90234375 c 0
 816.791015625 351.123046875 828.084960938 302.02734375 828.084960938 265.577148438 c 0
 828.084960938 239.314453125 822.98046875 212.825195312 813.34765625 187.03515625 c 1
 844.865234375 189.383789062 885.0625 196.729492188 937.643554688 210.1953125 c 0
 939.685546875 210.717773438 941.780273438 210.979492188 943.875976562 210.979492188 c 0
 957.537109375 210.979492188 969.119140625 199.696289062 969.119140625 185.015625 c 0
 969.119140625 173.499023438 960.626953125 163.435546875 950.356445312 160.8046875 c 0
 883.069335938 143.572265625 833.279296875 135.202148438 791.98046875 135.202148438 c 0
 790.421875 135.202148438 788.875 135.21484375 787.340820312 135.239257812 c 0
 772.686523438 112.116210938 752.948242188 87.9521484375 729.85546875 65.294921875 c 0
 686.21875 22.4814453125 653.087890625 -1.76171875 620.434570312 -14.7724609375 c 0
 594.283203125 -25.1923828125 569.586914062 -27.5380859375 544.64453125 -27.5380859375 c 0
 520 -27.5380859375 498.606445312 -25.9951171875 474 -25.9951171875 c 0
 410.61328125 -25.9951171875 341.944335938 -1.126953125 303.271484375 37.544921875 c 0
 274.331054688 66.4853515625 254.481445312 108.034179688 254.481445312 162.654296875 c 0xede0
 254.481445312 260.694335938 313.538085938 334.239257812 351.68359375 382.9375 c 0
 366.182617188 401.973632812 377.950195312 415.044921875 384.610351562 431.825195312 c 0
 385.21484375 438.477539062 385.690429688 447.389648438 385.690429688 457.383789062 c 0
 385.690429688 500.522460938 378.583984375 566.004882812 336 566.004882812 c 0
 306.92578125 566.004882812 296.188476562 559.544921875 292.944335938 556.299804688 c 0
 290.114257812 553.470703125 288.141601562 548.9375 288.141601562 538.678710938 c 0
 288.141601562 531.169921875 289.794921875 523.33203125 289.794921875 514.215820312 c 0
 289.794921875 452.829101562 230.143554688 403.822265625 162.91015625 403.822265625 c 0
 74.8779296875 403.822265625 40.5048828125 481.818359375 40.5048828125 565.5 c 0
 40.5048828125 578.94921875 52.044921875 590.495117188 65.5 590.495117188 c 2
 66.5 590.495117188 l 2
 79.94921875 590.495117188 91.4951171875 578.955078125 91.4951171875 565.5 c 0
 91.4951171875 511.099609375 106.569335938 454.8046875 163.147460938 454.8046875 c 0xdee0
658.936523438 276.333984375 m 0
 658.936523438 257.233398438 666.876953125 239.553710938 681.98828125 227.3671875 c 0
 708.12109375 206.291992188 729.127929688 193.896484375 758.814453125 188.813476562 c 1
 771.112304688 214.673828125 777.377929688 240.431640625 777.377929688 265.321289062 c 0
 777.377929688 290.8359375 770.793945312 315.439453125 757.374023438 338.30859375 c 0
 745.154296875 351.618164062 731.219726562 357.0234375 719.927734375 357.0234375 c 0xece0
 705.47265625 357.0234375 689.470703125 348.97265625 682.708984375 342.2109375 c 0
 673.6796875 333.181640625 658.936523438 299.551757812 658.936523438 276.333984375 c 0
EndSplineSet
EndChar

StartChar: DiakEfull
Encoding: 71942 71942 35
Width: 982
Flags: W
HStem: -29.1445 50.9902<199.447 351.905> -17.4277 50.9902<646.866 765.066> 204.444 50.9902<208.059 347.658> 400.592 50.9902<123.201 266.477> 571.998 50.9902<391.55 480.853>
VStem: 45.7969 51.206<479.328 604.715> 114.079 50.9902<57.7106 166.244> 537.392 50.9902<245.316 501.047> 884.041 50.9902<153.554 359.493>
LayerCount: 2
Fore
SplineSet
71.0078125 605.098613389 m 0xbf80
 85.275711765 605.098613389 97.0029102635 594.12380714 97.0029102635 580.0703125 c 0
 97.0029102635 575.821302811 96.787089951 571.537870458 96.787089951 567.124023438 c 0
 96.787089951 502.03816168 113.41807575 451.582011826 183.5078125 451.582011826 c 0
 250.925083118 451.582011826 303.892887089 489.89193611 328.262228958 532.208483491 c 0
 332.192206312 539.032757771 334.076683882 544.696009233 334.402890117 546.544386284 c 0
 337.378030909 563.406500037 346.706385962 577.679856145 358.578628472 589.552098655 c 0
 377.452554209 608.426024392 405.274157654 622.988261826 436.954101562 622.988261826 c 0
 472.139703614 622.988261826 501.631653844 601.688485506 522.034116891 581.286022458 c 0
 560.662111308 542.658028042 588.381816514 480.855321808 588.381816514 382.86328125 c 0
 588.381816514 278.445070447 558.236738717 196.137802164 518.357855757 131.0271841 c 1
 559.403135322 104.661741973 601.70622976 78.8071872991 637.176230065 60.3235833196 c 0
 655.605899862 50.7197853192 672.204623665 43.1376624161 685.133436701 38.5888507431 c 0
 695.486594709 34.9462452022 703.437240802 33.562480576 706.305664062 33.562480576 c 0
 716.107439808 33.562480576 732.47936416 38.1727915536 750.734161766 47.1236808841 c 0
 808.960020716 75.673612298 876.945600508 143.500883704 882.073406449 217.855325125 c 0
 883.406776308 237.181063612 884.041035049 253.473100824 884.041035049 267.33984375 c 0
 884.041035049 327.434274153 874.930800308 340.077050972 850.812172112 379.253108697 c 0
 846.855864887 385.679109821 840.084980361 393.932583364 840.084980361 403.828125 c 0
 840.084980361 417.22206996 851.516219817 429.340800889 865.935546875 429.340800889 c 0
 874.629001287 429.340800889 883.114598081 424.232424255 887.315973299 417.311326334 c 0
 914.278979064 372.89405974 935.031230576 340.597268497 935.031230576 267.33984375 c 0
 935.031230576 251.914927982 934.333365699 234.499609929 932.942266537 214.319198648 c 0
 926.170541904 116.130840281 846.454026479 37.159976077 773.134442344 1.27535259551 c 0
 750.064074767 -10.0159205868 728.229778083 -17.427714951 706.305664062 -17.427714951 c 0x7f80
 693.666672168 -17.427714951 681.492139822 -14.2012094955 668.254838201 -9.56393702524 c 0
 651.695549358 -3.76291076779 633.383077721 4.7240814566 613.603586447 15.0218786849 c 0
 575.260159481 34.9846183968 531.456897154 61.8698085006 489.362928196 88.980885858 c 1
 450.413802539 38.7745978557 410.180088904 6.96988449266 341.639383111 -14.8844460477 c 0
 314.778036508 -23.4492359873 286.053309817 -29.144511826 258.084960938 -29.144511826 c 0
 228.808589232 -29.144511826 198.964473353 -22.8850711682 175.419346161 -3.69912280217 c 0
 140.276148052 24.9357007718 114.079120986 70.5627642864 114.079120986 115.651367188 c 0
 114.079120986 141.943596319 122.351670639 167.988997989 139.40884104 189.783040604 c 0
 168.640070242 227.134781531 221.999902328 255.434550889 280.255859375 255.434550889 c 0
 309.821045203 255.434550889 340.782476932 247.759669912 369.225131819 229.588292235 c 0
 402.372780435 208.410955667 441.184873221 181.804555537 475.614624562 158.944846661 c 1
 511.166743885 217.529464711 537.391620986 290.439061875 537.391620986 382.86328125 c 0
 537.391620986 471.333708574 513.403876762 517.799417457 486.00063263 545.202661589 c 0
 474.219171519 556.9841227 457.584419842 571.998066299 436.954101562 571.998066299 c 0
 417.432813399 571.998066299 387.766860692 555.502358804 384.612652489 537.628974881 c 0
 379.489949052 508.59839293 361.25218201 486.804942388 341.410253926 466.963014304 c 0
 307.298605879 432.851366258 253.118408643 400.591816299 183.5078125 400.591816299 c 0
 142.257903219 400.591816299 110.188525708 413.751932469 88.0941500075 435.846308169 c 0
 50.9801121089 472.960346068 45.796894424 526.916961027 45.796894424 567.124023438 c 0
 45.796894424 587.882779025 50.3797322008 605.098613389 71.0078125 605.098613389 c 0xbf80
258.084960938 21.845683701 m 0xbf80
 309.215588132 21.845683701 369.764795261 47.7077273639 398.480000611 68.6925268475 c 0
 415.351987455 81.0212976079 432.016020003 98.7378848293 446.51606875 117.018538748 c 1
 412.832824377 139.409750348 373.576268274 166.278566981 341.790631181 186.585447725 c 0
 321.952519021 199.259707674 301.041011397 204.444355361 280.255859375 204.444355361 c 0
 239.39128624 204.444355361 199.458709491 183.756955992 179.606585378 158.390533776 c 0
 169.73473123 145.775898012 165.069316514 131.26471009 165.069316514 115.651367188 c 0
 165.069316514 88.4048219653 182.942210142 55.9615307221 207.596440926 35.8728188569 c 0
 218.527596655 26.9662284307 235.80942028 21.845683701 258.084960938 21.845683701 c 0xbf80
EndSplineSet
EndChar

StartChar: DiakOfull
Encoding: 71945 71945 36
Width: 920
Flags: W
HStem: -22.0717 51.0034<173.648 324.056 620.981 735.977> 66.0059 50.9902<417.095 534.73> 247.922 50.9902<102.049 187.575> 330.176 50.9902<716.565 800.749> 460.006 50.9902<186.866 304.622>
VStem: 110.466 51.0143<43.1139 101.265> 190.634 51.0006<300.484 371.093> 350.542 50.9902<276.626 414.171> 658.48 51.071<277.509 323.114> 824.897 50.9902<117.641 215.473>
LayerCount: 2
Fore
SplineSet
350.542011611 356.947265625 m 0
 350.542011611 411.083307657 294.789807734 460.005878799 247.975585938 460.005878799 c 0
 230.493042732 460.005878799 188.797408749 440.670774391 171.014562481 429.624013284 c 1
 210.857440384 416.851615281 241.634315039 382.93215151 241.634315039 338.265057124 c 0
 241.634315039 291.632397228 209.514777418 247.921894424 158.713867188 247.921894424 c 0
 118.453536538 247.921894424 81.339401602 268.074363465 59.3761166705 290.037648397 c 0
 48.7706814559 300.643083611 38.4368593286 315.188610222 38.4368593286 333.992462171 c 0
 38.4368593286 371.295271707 61.5441731819 403.005572649 86.707056279 428.168455746 c 0
 113.26992443 454.731323897 146.353951487 476.557790751 177.594205523 491.328873673 c 0
 202.544986521 503.126154665 226.28544401 510.996074326 247.975585938 510.996074326 c 0
 324.200646329 510.996074326 401.532207139 440.842909193 401.532207139 356.947265625 c 0
 401.532207139 298.726195997 375.947093542 239.590863659 331.577057165 195.220827282 c 0
 305.549119344 169.192889461 268.811711836 149.039823198 235.268207877 131.84361121 c 0
 207.653547305 117.686830811 185.711926079 105.689633853 174.129273392 94.1069811657 c 0
 165.731667497 85.7093752713 162.003095209 78.3936551584 161.480361536 67.2080798686 c 0
 166.989253832 48.3113240241 202.978319012 28.9316886405 221.260446452 28.9316886405 c 0
 281.08634267 28.9316886405 306.100226057 38.7993446443 350.963001729 65.436896748 c 0
 414.327455427 103.05869497 441.305022746 116.996074326 475.975585938 116.996074326 c 0
 495.321827368 116.996074326 513.170240969 111.697398102 529.491158405 104.509388617 c 0
 567.338421547 87.8408105472 603.114550963 57.2828786188 639.024030636 41.6109741735 c 0
 652.122828679 35.8942911934 664.038873215 32.859355576 675.103515625 32.859355576 c 0
 741.042532428 32.859355576 791.984969617 90.7396884037 813.822540527 137.782562258 c 0
 825.346828824 162.608383907 824.896503799 166.394773315 824.896503799 190.536132812 c 0
 824.896503799 198.435795896 824.659278333 207.43860667 824.046541533 216.966182463 c 1
 801.551205773 200.505695504 775.186420108 191.929935761 749.996062428 191.929935761 c 0
 723.139124759 191.929935761 703.626598553 209.792257004 689.671809964 223.747045592 c 0
 677.305172038 236.113683518 667.371564063 247.599260635 661.271671972 263.563675401 c 0
 659.890737208 267.177807422 658.480488174 271.299202991 658.480488174 277.500976562 c 0
 658.480488174 277.671746384 658.480413183 277.85082804 658.480413183 278.038031165 c 0
 658.480413183 288.697992701 658.723574054 325.692126861 686.90265499 353.871207798 c 0
 703.470373631 370.438926439 728.447766932 381.165996201 761.16015625 381.165996201 c 0
 854.843471723 381.165996201 875.886699326 278.095418266 875.886699326 190.536132812 c 0
 875.886699326 158.631084233 872.997333049 144.133094672 860.123473507 116.347828844 c 0
 831.082872911 53.670369557 766.266922014 -18.130839951 675.103515625 -18.130839951 c 0
 626.745611802 -18.130839951 589.727575007 9.13158284234 559.146194774 28.7931372295 c 0
 541.212148459 40.3238326062 524.308329287 51.0311246719 508.966016135 57.7989292547 c 0
 496.647282918 63.232971586 485.730536539 66.005878799 475.975585938 66.005878799 c 0
 458.499298956 66.005878799 441.620886412 59.9415944387 376.988297924 21.5651322437 c 0
 348.435971682 4.61233842613 324.991215565 -5.70175738882 303.489603107 -11.8995345883 c 0
 273.180006816 -20.6361874874 249.058263068 -22.0717124675 220.691114218 -22.0717124675 c 0
 175.471234261 -22.0717124675 133.078985282 9.14164697793 116.735923537 42.1526555249 c 0
 113.223176862 49.2479790512 110.466073055 57.348874273 110.466073055 66.7122474973 c 0
 110.466073055 129.752059288 168.697606316 155.038183185 211.970764783 177.222444786 c 0
 241.589856896 192.405835475 272.794941918 208.566899622 295.505021277 231.27697898 c 0
 330.808296301 266.580254005 350.542011611 313.85646562 350.542011611 356.947265625 c 0
814.610497459 276.2856774 m 0
 806.050487577 305.669004637 794.872510278 330.175800674 761.16015625 330.175800674 c 0
 722.567851685 330.175800674 710.927137563 308.310386865 709.551434042 280.54150886 c 1
 715.128972129 270.711140887 735.443925309 245.362776634 750.261904016 242.940019999 c 0
 771.614492352 244.635735747 792.869127706 253.608046659 806.36964654 269.808139021 c 0
 808.597230375 272.481152135 811.538979598 274.785426724 814.610497459 276.2856774 c 0
158.713867188 298.912089951 m 0
 180.439709687 298.912089951 190.633685466 317.096732671 190.633685466 338.584552309 c 0
 190.633685466 349.665110564 187.556287262 359.027310978 178.925555141 367.658043098 c 0
 169.848344785 376.735253454 152.15025627 386.254307743 117.270366671 386.283156877 c 1
 100.093487484 367.540697045 90.401038852 348.749954333 89.4474944373 334.338002306 c 0
 89.5747156104 333.790479488 90.4041112818 331.226197062 95.4277484746 326.202557479 c 0
 106.579812423 315.05049353 136.271842984 298.912089951 158.713867188 298.912089951 c 0
EndSplineSet
EndChar

StartChar: DiakKA
Encoding: 71948 71948 37
Width: 860
Flags: W
HStem: -24.8457 50.9902<300.884 545.956> 163.263 50.9902<343.295 509.326> 348.005 50.9678<357.378 486.59> 574.078 50.9902<500.374 641.951> 622.038 50.9918<138.736 283.379>
VStem: 40.5156 50.9902<479.54 574.177> 218.475 50.9887<286.595 454.293> 516.521 50.9903<410.906 502.431> 530.535 50.9908<234.859 325.14> 749.127 50.9902<241.995 467.402>
LayerCount: 2
Fore
SplineSet
218.474997359 383.217870595 m 0xf6c0
 218.474997359 475.995454842 283.537599587 534.162701499 348.450394533 567.684284815 c 1
 321.565025491 582.234025185 292.495310673 598.095121075 263.721924847 608.84058291 c 0
 241.829935936 617.016177287 220.46929593 622.038105361 201.046875 622.038105361 c 0
 147.573325747 622.038105361 113.153346043 584.820119005 97.8870698636 547.00449225 c 0
 93.2727688394 535.574548025 91.505839951 525.402826596 91.505839951 521.5 c 0
 91.505839951 491.794262622 105.71643383 483.509753089 125.516686421 471.135049326 c 0
 132.300704416 466.895193666 137.271464951 458.485476213 137.271464951 449.923828125 c 0
 137.271464951 435.536088354 125.2849136 424.081074111 111.74609375 424.081074111 c 0
 107.143921895 424.081074111 102.541750039 425.342450602 98.5053698541 427.865203584 c 0
 67.3047761328 447.365693438 40.515644424 472.081261876 40.515644424 521.5 c 0
 40.515644424 535.123818035 44.0766215504 549.957551684 50.5388671355 566.039877284 c 0
 72.3952456827 620.432950341 123.380818953 673.029889504 201.212268284 673.029889504 c 0xeec0
 287.945074874 673.029889504 349.9093233 621.107754626 409.590404329 593.613096653 c 1
 478.12825262 617.442300472 543.231408193 625.068339933 570.387695312 625.068339951 c 0
 605.343133151 625.068339951 672.392761376 608.896643679 728.620094653 552.669310403 c 0
 769.00080498 512.288600075 800.117168076 451.101993868 800.117168076 364.352539062 c 0
 800.117168076 241.695170464 750.750261907 146.388961618 684.61174897 80.2504486809 c 0
 621.411765201 17.0504649118 541.24159303 -19.6540869544 465.467042619 -23.9536055032 c 0
 454.797692942 -24.5595746975 444.438832829 -24.845683701 434.387695312 -24.845683701 c 0
 312.611893959 -24.845683701 240.005087871 15.9057251693 193.79838207 41.1090057879 c 0
 186.416899543 45.135208744 180.775410049 53.9045155372 180.775410049 63.0615234375 c 0
 180.775410049 77.6166759565 192.6894035 88.9345508885 206.25 88.9345508885 c 0
 212.00155784 88.9345508885 217.217535668 86.4420013658 221.579975691 84.0581960024 c 0
 264.744515094 60.471428049 326.83334502 26.144511826 434.387695312 26.144511826 c 0
 443.462531954 26.144511826 452.847625861 26.4032143247 462.555791543 26.9536821284 c 0
 523.95875409 30.4377753943 593.596078275 61.3643850498 648.547143047 116.315449821 c 0
 705.752045711 173.520352486 749.126972549 256.49257646 749.126972549 364.352539062 c 0
 749.126972549 438.388846403 723.777192654 485.387826807 692.536521537 516.628497924 c 0
 648.846536739 560.318482722 591.166229267 574.078144424 570.387695312 574.078144424 c 0
 558.895750221 574.078144424 531.994649398 571.512070773 499.054718531 564.91870549 c 1
 532.532752934 543.624709282 567.511699326 503.877127729 567.511699326 456.373046875 c 0xf740
 567.511699326 424.457567975 551.135135129 394.872659331 531.158536495 375.112568601 c 1
 546.64289028 361.196244349 560.213581659 343.401982677 569.686619508 324.385713367 c 0
 576.617756887 310.472080051 581.525999928 296.390412399 581.525999928 279.747487955 c 0
 581.525999928 214.796394958 525.578535276 168.036473924 459.935344099 163.933837353 c 0
 453.516343666 163.532584004 446.332387739 163.262714736 438.5546875 163.262714736 c 0
 393.892720704 163.262714736 326.319338022 171.73091956 276.568019839 221.482237743 c 0
 242.441792005 255.608465578 218.474997359 308.952925551 218.474997359 383.217870595 c 0xf6c0
408.846909293 538.930008501 m 1
 343.298397777 513.149338158 269.46370817 468.993552889 269.46370817 383.371074584 c 0
 269.46370817 320.004094443 289.276991479 280.863769301 312.644231503 257.496529277 c 0
 347.39412544 222.74663534 399.490516023 214.252910264 438.5546875 214.252910264 c 0
 488.635574016 214.252910264 530.535175674 235.846970108 530.535175674 279.821289062 c 0xe6c0
 530.535175674 283.957098598 528.622812777 292.116564399 524.201464251 301.179209011 c 0
 516.358416277 317.255470823 501.889188121 336.056333996 486.94094396 344.787663906 c 0
 479.685609722 349.025533997 457.212167616 348.230488174 426.439453125 348.230488174 c 0
 402.945530475 348.230488174 382.390341716 348.004902236 382.016601562 348.004902236 c 0
 367.971014132 348.004902236 356.994160049 359.762060661 356.994160049 374 c 0
 356.994160049 387.177960719 368.023931538 398.427063726 380.927311569 398.972699652 c 0
 382.449274872 399.037244911 452.587062147 402.014591176 482.679027547 402.863977081 c 1
 499.031086711 406.71835083 516.521385241 440.565380287 516.521385241 456.325311515 c 0xe740
 516.521385241 471.1231906 507.491793322 489.936143218 491.759585358 505.668351183 c 0
 473.989573606 523.438362935 450.431032707 534.004902236 436.010742188 534.004902236 c 0
 426.425629421 534.004902236 417.551376786 536.003955806 408.846909293 538.930008501 c 1
EndSplineSet
EndChar

StartChar: DiakKHA
Encoding: 71949 71949 38
Width: 716
Flags: W
HStem: -22.666 50.9912<245.867 453.729> 336.531 50.9902<184.134 280.972> 574.216 50.9893<280.012 417.629>
VStem: 111.979 50.9902<409.55 500.253> 291.614 50.9902<398.252 488.94> 486.799 50.9902<370.064 502.44>
LayerCount: 2
Fore
SplineSet
162.969726562 453.258789062 m 0
 162.969726562 417.25 201.80078125 387.521484375 234.986328125 387.521484375 c 0
 262.958984375 387.521484375 291.614257812 408.069335938 291.614257812 435.608398438 c 0
 291.614257812 445.013671875 287.12109375 459.130859375 278.26171875 475.170898438 c 0
 266.376953125 496.685546875 247.831054688 520.50390625 231.416015625 541.900390625 c 1
 206.463867188 526.096679688 181.38671875 501.461914062 169.53125 477.053710938 c 0
 164.609375 466.919921875 162.969726562 459.72265625 162.969726562 453.258789062 c 0
105.739257812 181.424804688 m 1
 150.817382812 111.930664062 229.38671875 28.3251953125 334.723632812 28.3251953125 c 0
 460.814453125 28.3251953125 529.53125 86.3857421875 586.400390625 133.764648438 c 0
 602.01953125 146.778320312 616.86328125 159.223632812 632.384765625 169.68359375 c 0
 636.587890625 172.516601562 641.46484375 173.932617188 646.341796875 173.932617188 c 0
 659.727539062 173.932617188 671.895507812 162.415039062 671.895507812 148.107421875 c 0
 671.895507812 139.885742188 667.327148438 131.720703125 660.856445312 127.361328125 c 0
 648.46875 119.012695312 634.6171875 107.551757812 619.013671875 94.552734375 c 0
 561.702148438 46.8056640625 478.22265625 -22.666015625 334.672851562 -22.666015625 c 0
 192.552734375 -22.666015625 94.015625 95.689453125 44.23828125 184.684570312 c 0
 42.125 188.462890625 41.068359375 192.67578125 41.068359375 196.887695312 c 0
 41.068359375 207.735351562 48.7001953125 217.415039062 58.0400390625 220.567382812 c 0
 131.247070312 245.280273438 227.619140625 252.482421875 320.193359375 267.044921875 c 0
 395.502929688 278.891601562 451.200195312 331.528320312 476.140625 390.875976562 c 0
 483.53515625 408.47265625 486.798828125 424.545898438 486.798828125 435.099609375 c 0
 486.798828125 459.579101562 472.005859375 503.016601562 441.084960938 533.9375 c 0
 417.623046875 557.399414062 385.7578125 574.215820312 342.842773438 574.215820312 c 0
 319.796875 574.215820312 298.2734375 570.453125 278.689453125 564.102539062 c 1
 293.5859375 544.748046875 310.302734375 522.8359375 323.099609375 499.594726562 c 0
 333.875 480.024414062 342.604492188 458.752929688 342.604492188 435.608398438 c 0
 342.604492188 378.559570312 290.8125 336.53125 234.986328125 336.53125 c 0
 173.072265625 336.53125 111.979492188 387.520507812 111.979492188 453.234375 c 0
 111.979492188 487.943359375 131.391601562 521.004882812 161.068359375 550.681640625 c 0
 201.193359375 590.806640625 264.397460938 625.205078125 342.76171875 625.205078125 c 0
 400.185546875 625.205078125 445.232421875 601.673828125 476.727539062 570.177734375 c 0
 517.86328125 529.041992188 537.7890625 476.232421875 537.7890625 435.099609375 c 0
 537.7890625 415.295898438 532.600585938 393.569335938 523.177734375 371.120117188 c 0
 491.927734375 296.674804688 422.770507812 231.55859375 328.168945312 216.677734375 c 0
 251.477539062 204.61328125 167.624023438 196.888671875 105.739257812 181.424804688 c 1
EndSplineSet
EndChar

StartChar: DiakGA
Encoding: 71950 71950 39
Width: 632
Flags: W
HStem: -25.585 50.9883<168.957 375.246> 274.581 50.9902<117.431 254.647> 485.005 50.9902<330.917 449.083>
VStem: 53.9639 50.9854<336.263 615.723> 238.863 50.9902<335.166 449.568> 523.892 50.9902<173.104 398.61>
LayerCount: 2
Fore
SplineSet
53.9638671875 591.100585938 m 0
 53.9638671875 605.15234375 65.748046875 616.116210938 79.958984375 616.116210938 c 0
 93.2802734375 616.116210938 104.681640625 604.821289062 104.94921875 591.630859375 c 2
 109.169921875 383.329101562 l 1
 112.370117188 351.080078125 118.146484375 329.165039062 152.092773438 326.620117188 c 0
 161.637695312 325.903320312 171.403320312 325.571289062 181.1171875 325.571289062 c 0
 208.323242188 325.571289062 235.426757812 328.478515625 255.741210938 332.124023438 c 1
 247.098632812 349.473632812 238.86328125 371.12890625 238.86328125 402.748046875 c 0
 238.86328125 469.739257812 290.076171875 505.083984375 337.727539062 523.977539062 c 0
 356.502929688 531.421875 374.911132812 535.995117188 392 535.995117188 c 0
 419.1484375 535.995117188 464.880859375 523.013671875 505.032226562 482.862304688 c 0
 543.96484375 443.9296875 574.881835938 380.3359375 574.881835938 283.614257812 c 0
 574.881835938 126.60546875 482.901367188 32.2255859375 376.098632812 -9.07421875 c 0
 343.442382812 -21.7021484375 323.106445312 -25.5849609375 298.440429688 -25.5849609375 c 0
 208.256835938 -25.5849609375 141.502929688 -0.1748046875 80.986328125 29.380859375 c 0
 73.1064453125 33.2294921875 66.9716796875 42.2392578125 66.9716796875 51.845703125 c 0
 66.9716796875 66.5087890625 78.8154296875 77.7392578125 92.4052734375 77.7392578125 c 0
 96.1689453125 77.7392578125 99.931640625 76.8955078125 103.385742188 75.208984375 c 0
 161.0703125 47.037109375 217.983398438 25.4033203125 298.140625 25.4033203125 c 0
 314.526367188 25.4033203125 328.639648438 27.255859375 357.681640625 38.494140625 c 0
 447.818359375 73.3720703125 523.891601562 150.114257812 523.891601562 283.614257812 c 0
 523.891601562 369.250976562 497.484375 418.299804688 468.975585938 446.80859375 c 0
 439.102539062 476.681640625 403.884765625 485.004882812 392 485.004882812 c 0
 361.7109375 485.004882812 324.163085938 462.409179688 307.08203125 445.328125 c 0
 291.932617188 430.178710938 289.853515625 422.173828125 289.853515625 402.748046875 c 0
 289.853515625 365.995117188 304.258789062 351.817382812 316.379882812 325.553710938 c 0
 317.911132812 322.235351562 318.676757812 318.650390625 318.676757812 315.064453125 c 0
 318.676757812 304.649414062 311.586914062 295.200195312 302.765625 291.76953125 c 0
 276.284179688 281.470703125 230.759765625 274.581054688 181.1171875 274.581054688 c 0
 139.547851562 274.581054688 109.487304688 280.16796875 88.4150390625 301.240234375 c 0
 63.3701171875 326.28515625 58.625 360.916992188 58.212890625 381.248046875 c 2
 53.96875 590.58984375 l 2
 53.9658203125 590.759765625 53.9638671875 590.930664062 53.9638671875 591.100585938 c 0
EndSplineSet
EndChar

StartChar: DiakGHA
Encoding: 71951 71951 40
Width: 1012
Flags: W
HStem: -30.041 50.9902<375.846 478.173> -21.8906 50.9902<705.451 823.276> 378.96 51.0508<114.22 223.168> 554.165 50.9902<303.105 377.132>
VStem: 46.2168 50.9893<442.929 581.418> 249.119 50.9902<454.677 552.446> 269.479 50.9902<81.2836 194.043> 404.914 50.9902<344.93 526.249> 628.745 50.9902<195.813 389.656> 902.3 50.9902<115.131 372.339>
LayerCount: 2
Fore
SplineSet
46.216796875 508.19921875 m 0xbdc0
 46.216796875 536.46484375 45.607421875 582.73828125 75.8740234375 582.73828125 c 0
 90.5546875 582.73828125 101.85546875 571.493164062 101.85546875 557.577148438 c 0
 101.85546875 556.193359375 101.741210938 554.809570312 101.513671875 553.44140625 c 0
 98.75 536.862304688 97.2060546875 521.83984375 97.2060546875 508.180664062 c 0
 97.2060546875 482 102.87890625 460.826171875 116.513671875 443.295898438 c 0
 122.180664062 436.009765625 139.219726562 430.010742188 161.401367188 430.010742188 c 0
 183.020507812 430.010742188 211.857421875 436.43359375 221.669921875 447.000976562 c 0
 241.854492188 468.73828125 249.119140625 489.837890625 249.119140625 508.716796875 c 0xbdc0
 249.119140625 511.951171875 248.74609375 515.200195312 248.74609375 519.236328125 c 0
 248.74609375 561.6875 281.872070312 605.155273438 328.3671875 605.155273438 c 0
 352.817382812 605.155273438 386.494140625 595.467773438 414.048828125 567.913085938 c 0
 438.497070312 543.46484375 455.904296875 505.788085938 455.904296875 453.912109375 c 0
 455.904296875 410.704101562 450.119140625 376.422851562 440.94921875 349.751953125 c 0
 427.81640625 311.5546875 407.135742188 286.283203125 386.526367188 257.65234375 c 0
 362.229492188 223.8984375 320.46875 173.205078125 320.46875 138.712890625 c 0
 320.46875 130.31640625 322.005859375 121.388671875 326.087890625 111.02734375 c 0
 341.12109375 72.865234375 381.54296875 20.94921875 426.9765625 20.94921875 c 0xbbc0
 434.140625 20.94921875 441.270507812 22.2431640625 448.749023438 25.28125 c 0
 496.375976562 44.6298828125 557.545898438 116.748046875 587.541015625 162.126953125 c 0
 616.774414062 206.35546875 628.745117188 241.073242188 628.745117188 303.827148438 c 0
 628.745117188 337.509765625 624.379882812 367.578125 621.369140625 382.630859375 c 0
 621.043945312 384.2578125 620.880859375 385.91015625 620.880859375 387.5625 c 0
 620.880859375 401.314453125 632.263671875 412.75390625 646.857421875 412.75390625 c 0
 658.842773438 412.75390625 669.181640625 403.607421875 671.364257812 392.689453125 c 0
 675 374.510742188 679.735351562 341.888671875 679.735351562 303.827148438 c 0
 679.735351562 273.20703125 676.703125 239.038085938 666.763671875 206.235351562 c 0
 661.087890625 187.505859375 651.056640625 167.448242188 638.243164062 146.696289062 c 1
 654.1953125 109.782226562 674.143554688 80.1142578125 694.16015625 60.09765625 c 0
 716.044921875 38.2119140625 736.973632812 29.099609375 751.681640625 29.099609375 c 0
 777.05078125 29.099609375 818.681640625 39.365234375 850.962890625 71.6474609375 c 0
 872.271484375 92.955078125 891.065429688 125.087890625 899.138671875 175.37109375 c 0
 901.2265625 191.151367188 902.299804688 208.400390625 902.299804688 226.307617188 c 0
 902.299804688 271.40625 895.399414062 320.591796875 882.10546875 361.803710938 c 0
 881.298828125 364.302734375 880.895507812 366.905273438 880.895507812 369.506835938 c 0
 880.895507812 383.098632812 892.172851562 394.80859375 906.842773438 394.80859375 c 0
 917.814453125 394.80859375 927.5625 387.022460938 930.62890625 377.516601562 c 0
 945.904296875 330.159179688 953.290039062 276.484375 953.290039062 226.307617188 c 0
 953.290039062 139.271484375 926.181640625 74.7724609375 887.028320312 35.619140625 c 0
 842.12109375 -9.2880859375 787.974609375 -21.890625 751.681640625 -21.890625 c 0x7bc0
 683.310546875 -21.890625 632.504882812 45.53515625 604.6796875 98.6240234375 c 1
 570.29296875 54.3984375 517.329101562 -1.9150390625 467.983398438 -21.9619140625 c 0
 454.51953125 -27.4306640625 440.602539062 -30.041015625 426.9765625 -30.041015625 c 0
 354.315429688 -30.041015625 300.650390625 36.4365234375 278.645507812 92.29296875 c 0
 272.436523438 108.055664062 269.478515625 123.680664062 269.478515625 138.712890625 c 0xbbc0
 269.478515625 188.290039062 299.381835938 225.598632812 324.171875 258.704101562 c 0
 334.326171875 272.265625 344.270507812 286.327148438 353.971679688 299.682617188 c 0
 387.26953125 345.520507812 404.9140625 373.3046875 404.9140625 453.912109375 c 0
 404.9140625 494.241210938 392.318359375 517.53515625 377.985351562 531.869140625 c 0
 361.426757812 548.426757812 339.608398438 554.165039062 328.3671875 554.165039062 c 0
 311.952148438 554.165039062 299.736328125 533.552734375 299.736328125 519.236328125 c 0
 299.736328125 516.004882812 300.109375 512.754882812 300.109375 508.716796875 c 0
 300.109375 475.640625 286.606445312 441.981445312 259.063476562 412.319335938 c 0
 238.53125 390.208007812 201.064453125 378.959960938 161.379882812 378.959960938 c 0
 130.49609375 378.959960938 95.50390625 387.23046875 76.220703125 412.024414062 c 0
 53.7099609375 440.965820312 46.216796875 474.028320312 46.216796875 508.19921875 c 0xbdc0
EndSplineSet
EndChar

StartChar: DiakNGA
Encoding: 71952 71952 41
Width: 550
Flags: W
HStem: -25.9893 50.9902<118.85 363.627> -15.6914 50.6865<95.34 276.459> 234.014 50.71<181.386 264> 345.28 50.9902<91.1452 164.997> 501.748 51.1123<162.45 382.139>
VStem: 37.4873 50.9902<399.95 467.97> 167.678 50.9902<401.853 488.877> 422.595 50.9922<398.532 471.137> 440.579 50.9902<87.5922 174.983>
LayerCount: 2
Fore
SplineSet
146.266601562 489.802734375 m 1x3e
 119.400390625 480.096679688 88.4775390625 455.749023438 88.4775390625 427.774414062 c 0
 88.4775390625 409.836914062 107.795898438 396.270507812 124.248046875 396.270507812 c 0
 137.590820312 396.270507812 167.677734375 406.89453125 167.677734375 428.060546875 c 0
 167.677734375 449.375976562 155.051757812 471.354492188 146.266601562 489.802734375 c 1x3e
198.09765625 499.500976562 m 1
 207.344726562 479.505859375 218.66796875 455.2421875 218.66796875 428.060546875 c 0
 218.66796875 409.982421875 212.365234375 391.075195312 197.569335938 376.279296875 c 0
 179.12890625 357.838867188 149.712890625 345.280273438 124.248046875 345.280273438 c 0
 79.755859375 345.280273438 37.4873046875 380.403320312 37.4873046875 427.774414062 c 0
 37.4873046875 454.859375 50.2431640625 480.954101562 71.1240234375 501.834960938 c 0
 109.604492188 540.315429688 170.17578125 552.860351562 248.291992188 552.860351562 c 0
 328.506835938 552.860351562 406.608398438 540.42578125 448.581054688 498.453125 c 0
 463.51171875 483.521484375 473.586914062 463.875976562 473.586914062 440.064453125 c 0xbf
 473.586914062 406.321289062 453.428710938 377.618164062 429.35546875 353.544921875 c 0
 397.3984375 321.587890625 355.423828125 295.083007812 313.243164062 273.403320312 c 1
 371.807617188 261.182617188 428.586914062 238.75390625 462.158203125 205.182617188 c 0
 479.302734375 188.038085938 491.569335938 166.48046875 491.569335938 141.505859375 c 0
 491.569335938 37.4296875 367.806640625 -25.9892578125 280.07421875 -25.9892578125 c 0xbe80
 202.65625 -25.9892578125 143.809570312 -19.943359375 116.171875 -15.69140625 c 0
 104.680664062 -13.9228515625 95.0029296875 -3.3388671875 95.0029296875 9.01171875 c 0
 95.0029296875 23.6640625 106.217773438 34.9951171875 120.150390625 34.9951171875 c 0x7e80
 121.4296875 34.9951171875 122.708984375 34.8974609375 123.9765625 34.703125 c 0
 148.337890625 30.955078125 205.493164062 25.0009765625 280.07421875 25.0009765625 c 0
 339.838867188 25.0009765625 440.579101562 69.791015625 440.579101562 141.505859375 c 0xbe80
 440.579101562 148.821289062 437.040039062 158.09765625 426.108398438 169.029296875 c 0
 385.001953125 210.134765625 290.866210938 232.760742188 205.696289062 234.013671875 c 0
 191.931640625 234.215820312 181.004882812 245.749023438 181.004882812 260 c 0
 181.004882812 272.387695312 190.74609375 283.009765625 202.3125 284.723632812 c 0
 214.345703125 286.506835938 244.9140625 296.91796875 277.62890625 312.793945312 c 0
 318.725585938 332.736328125 364.7421875 361.39453125 393.361328125 390.013671875 c 0
 413.607421875 410.258789062 422.594726562 428.584960938 422.594726562 440.217773438 c 0xbf
 422.594726562 448.64453125 419.780273438 455.21875 412.536132812 462.462890625 c 0
 386.84765625 488.151367188 309.865234375 501.748046875 248.259765625 501.748046875 c 0
 230.927734375 501.748046875 213.915039062 500.9609375 198.09765625 499.500976562 c 1
EndSplineSet
EndChar

StartChar: DiakCA
Encoding: 71953 71953 42
Width: 882
Flags: W
HStem: -24.9082 50.8628<318.934 564.792> 348.829 50.9848<104.186 240.111> 486.556 50.9902<293.562 400.639>
VStem: 40.4382 51.1946<412.84 519.298> 247.126 50.9902<412.75 482.976> 419.016 50.9902<362.223 467.409> 766.005 50.9902<206.418 354.223>
LayerCount: 2
Fore
SplineSet
91.632793076 464.381835938 m 0
 91.632793076 426.394408842 112.39462652 399.813667235 152.118337588 399.813667235 c 0
 185.323747217 399.813667235 225.959271705 406.768750233 241.660394307 422.469872835 c 0
 245.706736976 426.516215505 247.125995986 429.713846946 247.125995986 435.124023438 c 0
 247.125995986 437.354807723 246.803863914 440.179236807 245.846770136 443.737184753 c 0
 242.759511141 455.204308464 241.117206924 465.661596584 241.117206924 475.591796875 c 0
 241.117206924 492.392150135 246.452601525 507.983827315 257.453961513 518.985187302 c 0
 274.882264776 536.413490565 297.661963647 537.545879014 313.958984375 537.545879014 c 0
 326.347187919 537.545879014 339.229135127 535.891582139 350.461914062 535.891582139 c 0
 364.95347896 535.891582139 379.633733994 532.053517391 394.285176722 526.154233547 c 0
 427.682652761 512.707012377 470.005839951 485.911935541 470.005839951 438.775390625 c 0
 470.005839951 350.807529052 401.640087728 250.763067276 323.142195973 222.415857351 c 2
 161.794670464 164.197846034 l 1
 191.25261971 128.679785534 234.44147956 87.6049242896 274.182084613 67.0491136745 c 0
 325.947164249 40.2737853021 381.940664142 25.9546338028 440.274283351 25.9546338028 c 0
 478.246778535 25.9546338028 517.21087808 32.022244534 556.645720976 44.671341103 c 0
 593.66679815 56.5457706473 647.15525286 88.8678903898 690.017091266 131.729728796 c 0
 734.501111779 176.213749309 766.004902236 230.263685122 766.004902236 282 c 0
 766.004902236 306.381570884 759.472955856 331.067978891 743.017325485 356.590250483 c 0
 740.369720403 360.69661982 739.045917861 365.411298191 739.045917861 370.125976562 c 0
 739.045917861 383.515608396 750.528453607 395.662089951 764.8828125 395.662089951 c 0
 773.301552715 395.662089951 781.623126107 390.846547621 785.906889387 384.202118413 c 0
 807.309830335 351.00459636 816.995097764 316.083359834 816.995097764 282 c 0
 816.995097764 148.222867058 672.285996264 28.1998234545 572.278095589 -3.87837606069 c 0
 527.975561924 -18.0882930595 483.780486925 -24.9081777868 440.570391486 -24.9081777868 c 0
 373.871525133 -24.9081777868 309.519553848 -8.6585473622 250.741909975 21.7437689738 c 0
 192.887625636 51.6681654392 132.890454941 113.067322572 99.0371296681 162.545356459 c 0
 96.1386915887 166.781543492 94.689472549 171.714502215 94.689472549 176.647460938 c 0
 94.689472549 187.302503897 102.085660611 196.877985386 111.174129771 200.157355787 c 2
 305.775735158 270.374982784 l 2
 365.111380613 291.801584027 419.015644424 377.089682586 419.015644424 438.775390625 c 0
 419.015644424 461.77608461 374.218145249 484.901386611 350.461914062 484.901386611 c 0
 338.183651201 484.901386611 325.373286529 486.555683486 313.958984375 486.555683486 c 0
 300.383775111 486.555683486 293.987410066 483.426514745 293.536840066 482.975944745 c 2
 293.536840066 482.975944745 292.107402451 482.462067323 292.107402451 475.591796875 c 0
 292.107402451 465.798988715 298.116191514 446.854340252 298.116191514 435.124023438 c 0
 298.116191514 415.638718413 289.980841658 398.612512459 277.745164395 386.376835195 c 0
 250.802988835 359.434659635 201.966396981 348.828895926 152.437235739 348.828895926 c 0
 85.3991620023 348.828895926 40.4382018951 399.876808619 40.4382018951 463.67764248 c 0
 40.4382018951 488.578145409 45.6047875755 533.572246201 73.99609375 533.572246201 c 0
 88.791896139 533.572246201 99.923808701 521.88611246 99.923808701 508.215820312 c 0
 99.923808701 505.143647096 99.3617127388 502.071473879 98.2375208145 499.167608813 c 0
 93.8075796661 487.724766121 91.632793076 475.752551107 91.632793076 464.381835938 c 0
EndSplineSet
EndChar

StartChar: DiakCHA
Encoding: 71954 71954 43
Width: 1268
Flags: W
HStem: -155.278 50.9902<651.314 920.05> -24.8887 51.3496<305.393 580.55> 52.876 50.9902<810.268 931.3> 342.933 50.9844<105.608 242.178> 391.046 50.9863<847.824 946.437> 479.005 50.9902<296.247 408.537> 557.043 50.9902<786.383 991.66>
VStem: 42.1699 50.9902<406.01 513.424> 249.262 50.9902<407.065 477.726> 420.499 50.9902<349.967 464.607> 592.479 50.9902<240.301 431.039> 787.08 51.0977<233.626 384.041> 804.88 50.8086<167.968 327.622> 996.494 50.9902<179.059 341.385> 1152.98 50.9902<146.369 412.12>
LayerCount: 2
Fore
SplineSet
243.21484375 463.408203125 m 0xf7f6
 243.21484375 518.265625 299.313476562 529.995117188 350.513671875 529.995117188 c 0
 351.015625 529.995117188 351.5078125 529.995117188 351.989257812 529.995117188 c 0
 368.486328125 529.995117188 387.135742188 525.850585938 405.599609375 518.088867188 c 0
 436.83984375 504.956054688 471.489257812 478.98828125 471.489257812 434.971679688 c 0
 471.489257812 327.66796875 403.5390625 256.787109375 327.642578125 217.8125 c 0
 246.5078125 176.149414062 201.947265625 165.6171875 164.838867188 156.481445312 c 1
 194.129882812 121.515625 236.59765625 81.3828125 275.708984375 61.15234375 c 0
 321.326171875 37.5576171875 378.552734375 26.4609375 437.405273438 26.4609375 c 0
 486.458007812 26.4609375 536.640625 34.169921875 582.172851562 48.7744140625 c 0
 622.982421875 61.865234375 674.534179688 82.18359375 717.392578125 109.46484375 c 1
 650.286132812 154.208984375 592.479492188 226.909179688 592.479492188 333.7265625 c 0
 592.479492188 414.232421875 622.216796875 474.560546875 664.455078125 516.799804688 c 0
 734.581054688 586.92578125 833.203125 608.033203125 893.568359375 608.033203125 c 0
 930.166992188 608.033203125 975.856445312 598.170898438 1021.63085938 577.87890625 c 0
 1112.74121094 537.489257812 1199.25195312 456.497070312 1203.46972656 331.365234375 c 0
 1203.79785156 321.614257812 1203.96972656 311.9609375 1203.96972656 302.400390625 c 0
 1203.96972656 172.07421875 1171.21679688 58.556640625 1073.6875 -38.97265625 c 0
 1059.13574219 -53.5244140625 1043.20996094 -67.68359375 1025.828125 -81.4873046875 c 0
 951.946289062 -140.158203125 864.279296875 -155.278320312 792.357421875 -155.278320312 c 0
 723.165039062 -155.278320312 667.0078125 -141.294921875 647.46875 -136.15234375 c 0
 637.28515625 -133.471679688 628.8671875 -123.446289062 628.8671875 -111.983398438 c 0
 628.8671875 -97.1728515625 640.309570312 -86.021484375 654.116210938 -86.021484375 c 0
 656.266601562 -86.021484375 658.416015625 -86.296875 660.508789062 -86.84765625 c 0
 678.196289062 -91.501953125 729.948242188 -104.288085938 792.357421875 -104.288085938 c 0
 857.513671875 -104.288085938 932.633789062 -90.3642578125 994.150390625 -41.5126953125 c 0
 1010.12109375 -28.830078125 1024.58105469 -15.958984375 1037.65332031 -2.88671875 c 0
 1124.25976562 83.7197265625 1152.97949219 180.749023438 1152.97949219 302.400390625 c 0
 1152.97949219 311.346679688 1152.81933594 320.423828125 1152.50878906 329.633789062 c 0
 1149.04199219 432.490234375 1076.77148438 497.616210938 1000.94042969 531.25 c 0
 961.186523438 548.881835938 921.056640625 557.04296875 893.568359375 557.04296875 c 0
 843.54296875 557.04296875 756.751953125 537.004882812 700.646484375 480.899414062 c 0
 667.32421875 447.578125 643.469726562 401.198242188 643.469726562 333.686523438 c 0
 643.469726562 238.997070312 698.477539062 179.02734375 760.517578125 142.66015625 c 1
 784.712890625 165.750976562 804.879882812 191.764648438 804.879882812 232.883789062 c 0xf7ee
 804.879882812 246.46875 802.205078125 261.197265625 796.1015625 277.56640625 c 0
 790.012695312 293.896484375 787.080078125 311.177734375 787.080078125 328.232421875 c 0
 787.080078125 388.470703125 821.388671875 442.032226562 881.76171875 442.032226562 c 0xeff6
 970.97265625 442.032226562 1047.484375 368.106445312 1047.484375 268.5 c 0
 1047.484375 199.489257812 1019.52050781 140.188476562 980.518554688 101.185546875 c 0
 951.7734375 72.4404296875 917.240234375 52.8759765625 877.469726562 52.8759765625 c 0
 850.201171875 52.8759765625 810.05078125 61.919921875 767.158203125 81.7314453125 c 1
 713.678710938 41.869140625 647.608398438 16.2001953125 597.805664062 0.2255859375 c 0
 547.322265625 -15.9677734375 491.747070312 -24.888671875 436.745117188 -24.888671875 c 0
 371.250976562 -24.888671875 306.569335938 -12.23828125 252.26953125 15.84765625 c 0
 194.419921875 45.7685546875 134.421875 107.1640625 100.571289062 156.639648438 c 0
 97.6728515625 160.875 96.2236328125 165.80859375 96.2236328125 170.741210938 c 0
 96.2236328125 197.563476562 135.012695312 201.682617188 155.973632812 206.818359375 c 0
 189.04296875 214.919921875 228.754882812 224.375 304.3359375 263.1875 c 0
 365.842773438 294.771484375 420.499023438 348.694335938 420.499023438 434.915039062 c 0
 420.499023438 461.146484375 377.327148438 479.004882812 351.989257812 479.004882812 c 0
 334.669921875 479.004882812 294.205078125 479.12109375 294.205078125 463.408203125 c 0
 294.205078125 453.33984375 300.251953125 438.862304688 300.251953125 427.928710938 c 0
 300.251953125 409.064453125 292.196289062 392.627929688 280.3984375 380.831054688 c 0
 253.336914062 353.76953125 203.603515625 342.932617188 153.954101562 342.932617188 c 0
 86.3623046875 342.932617188 42.169921875 394.848632812 42.169921875 458.485351562 c 0
 42.169921875 483.337890625 47.2666015625 527.67578125 75.5234375 527.67578125 c 0
 90.3193359375 527.67578125 101.451171875 515.989257812 101.451171875 502.319335938 c 0
 101.451171875 499.247070312 100.888671875 496.174804688 99.7646484375 493.271484375 c 0
 95.3349609375 481.828125 93.16015625 469.856445312 93.16015625 458.485351562 c 0
 93.16015625 420.498046875 113.921875 393.916992188 153.645507812 393.916992188 c 0
 186.784179688 393.916992188 228.572265625 401.188476562 244.318359375 416.934570312 c 0
 248.15625 420.772460938 249.26171875 423.510742188 249.26171875 427.928710938 c 0
 249.26171875 438.9609375 243.21484375 452.342773438 243.21484375 463.408203125 c 0xf7f6
855.688476562 232.791015625 m 0
 855.688476562 182.8515625 834.270507812 147.522460938 809.163085938 119.551757812 c 1
 838.333007812 108.651367188 864.159179688 103.866210938 877.469726562 103.866210938 c 0
 899.244140625 103.866210938 922.890625 115.706054688 944.450195312 137.266601562 c 0
 973.8671875 166.68359375 996.494140625 213.561523438 996.494140625 268.5 c 0
 996.494140625 340.307617188 943.876953125 391.045898438 881.529296875 391.045898438 c 0
 851.708007812 391.045898438 838.177734375 360.060546875 838.177734375 328.337890625 c 0xeff6
 838.177734375 317.0859375 840.0625 305.662109375 843.876953125 295.43359375 c 0
 851.935546875 273.819335938 855.688476562 252.803710938 855.688476562 232.791015625 c 0
EndSplineSet
EndChar

StartChar: DiakJA
Encoding: 71955 71955 44
Width: 826
Flags: W
HStem: -24.9951 50.9902<347.828 541.4> 239.005 50.9678<636.119 719.085> 344.94 50.9844<119.609 256.075> 481.013 50.9902<310.14 378.043>
VStem: 55.8613 51.1943<408.952 515.41> 263.157 50.9902<409.074 479.733> 396.399 50.9902<315.24 475.962> 534.603 50.9902<50.0028 179.097> 726.032 50.9902<127.228 234.424>
LayerCount: 2
Fore
SplineSet
365.884765625 532.002929688 m 0
 421.459960938 532.002929688 447.389648438 470.46875 447.389648438 419.514648438 c 0
 447.389648438 378.75 442.13671875 347.380859375 433.291015625 321.53515625 c 0
 421.083984375 285.868164062 403.420898438 263.28125 386.681640625 239.74609375 c 0
 351.44140625 190.197265625 302.385742188 144.47265625 254.693359375 105.3515625 c 1
 291.775390625 70.583984375 370.317382812 25.9951171875 446 25.9951171875 c 0
 480.783203125 25.9951171875 512.965820312 29.5947265625 542.084960938 35.7392578125 c 1
 536.818359375 54.728515625 534.602539062 73.5537109375 534.602539062 91.537109375 c 0
 534.602539062 154.067382812 562.369140625 217.12890625 590.286132812 245.045898438 c 0
 612.096679688 266.856445312 646.806640625 289.97265625 688.586914062 289.97265625 c 0
 742.420898438 289.97265625 777.022460938 241.122070312 777.022460938 184.907226562 c 0
 777.022460938 92.638671875 690.61328125 31.474609375 613.064453125 3.044921875 c 1
 638.004882812 -33.060546875 668.56640625 -55.3232421875 718.55859375 -78.328125 c 0
 726.672851562 -82.0625 733.08984375 -91.2021484375 733.08984375 -101.038085938 c 0
 733.08984375 -115.747070312 721.28125 -126.94140625 707.67578125 -126.94140625 c 0
 704.099609375 -126.94140625 700.522460938 -126.1796875 697.211914062 -124.65625 c 0
 635.604492188 -96.3056640625 592.15234375 -63.296875 562.268554688 -12.0166015625 c 1
 527.0859375 -20.208984375 488.104492188 -24.9951171875 446 -24.9951171875 c 0
 350.83984375 -24.9951171875 259.702148438 28.1572265625 214.7421875 73.1181640625 c 0
 205.483398438 82.3759765625 192.212890625 93.083984375 192.212890625 108.611328125 c 0
 192.212890625 116.11328125 195.96875 123.719726562 201.78125 128.287109375 c 0
 253.627929688 169.024414062 307.793945312 216.833984375 345.087890625 269.26953125 c 0
 376.029296875 312.7734375 396.399414062 341.978515625 396.399414062 419.514648438 c 0
 396.399414062 443.915039062 387.579101562 465.559570312 378.268554688 474.870117188 c 0
 373.439453125 479.69921875 369.5390625 481.012695312 365.884765625 481.012695312 c 0
 348.565429688 481.012695312 308.100585938 481.129882812 308.100585938 465.416015625 c 0
 308.100585938 455.34765625 314.147460938 440.870117188 314.147460938 429.936523438 c 0
 314.147460938 411.073242188 306.091796875 394.63671875 294.294921875 382.838867188 c 0
 267.235351562 355.780273438 217.50390625 344.940429688 167.860351562 344.940429688 c 0
 100.822265625 344.940429688 55.861328125 395.98828125 55.861328125 459.7890625 c 0
 55.861328125 484.689453125 61.02734375 529.68359375 89.4189453125 529.68359375 c 0
 104.21484375 529.68359375 115.346679688 517.997070312 115.346679688 504.327148438 c 0
 115.346679688 501.254882812 114.784179688 498.182617188 113.66015625 495.279296875 c 0
 109.23046875 483.8359375 107.055664062 471.864257812 107.055664062 460.493164062 c 0
 107.055664062 422.505859375 127.817382812 395.924804688 167.541015625 395.924804688 c 0
 200.6796875 395.924804688 242.467773438 403.196289062 258.213867188 418.942382812 c 0
 262.051757812 422.780273438 263.157226562 425.518554688 263.157226562 429.936523438 c 0
 263.157226562 440.96875 257.110351562 454.350585938 257.110351562 465.416015625 c 0
 257.110351562 520.2734375 313.206054688 532.002929688 364.405273438 532.002929688 c 0
 364.908203125 532.002929688 365.401367188 532.002929688 365.884765625 532.002929688 c 0
726.032226562 184.907226562 m 0
 726.032226562 210.119140625 714.862304688 239.004882812 688.580078125 239.004882812 c 0
 663.147460938 239.004882812 637.514648438 220.908203125 624.462890625 207.040039062 c 0
 608.249023438 189.813476562 585.592773438 134.087890625 585.592773438 91.537109375 c 0
 585.592773438 77.7216796875 587.255859375 63.59765625 591.200195312 49.400390625 c 1
 633.204101562 64.232421875 666.11328125 84.9013671875 688.606445312 107.39453125 c 0
 714.19140625 132.978515625 726.032226562 160.336914062 726.032226562 184.907226562 c 0
EndSplineSet
EndChar

StartChar: DiakNYA
Encoding: 71957 71957 45
Width: 950
Flags: W
HStem: -24.9951 50.9902<504.012 577.4> 403.447 49.1904<828.228 895.631> 443.765 50.9902<138.477 255.82 489.586 627.718>
VStem: 47.1621 50.9902<259.905 405.244> 440.432 50.9902<29.8531 156.651> 699.1 50.9902<182.058 316.991>
LayerCount: 2
Fore
SplineSet
379.302734375 380.416992188 m 1xbc
 416.3203125 429.418945312 469.768554688 494.754882812 545.990234375 494.754882812 c 0xbc
 597.20703125 494.754882812 658.338867188 475.034179688 700.885742188 432.487304688 c 0
 712.623046875 420.75 722.884765625 407.200195312 730.817382812 391.883789062 c 1
 778.125976562 415.631835938 824.369140625 436.34765625 861.427734375 450.90625 c 0
 864.365234375 452.060546875 867.477539062 452.637695312 870.590820312 452.637695312 c 0
 884.103515625 452.637695312 895.951171875 441.3828125 895.951171875 426.7109375 c 0
 895.951171875 416.328125 888.900390625 406.896484375 880.119140625 403.447265625 c 0xdc
 843.11328125 388.909179688 795.16796875 367.319335938 746.747070312 342.745117188 c 1
 749.055664062 329.036132812 750.08984375 314.653320312 750.08984375 299.859375 c 0
 750.08984375 224.20703125 723.505859375 134.982421875 679.19140625 75.8955078125 c 0
 653.504882812 41.6474609375 616.790039062 7.6796875 580.202148438 -10.275390625 c 0
 561.7578125 -19.3271484375 542.905273438 -24.9951171875 524 -24.9951171875 c 0
 470.298828125 -24.9951171875 440.431640625 26.9228515625 440.431640625 76.1279296875 c 0
 440.431640625 126.965820312 473.068359375 211.603515625 515.5234375 254.059570312 c 0
 553.171875 291.708007812 617.615234375 331.9296875 685.55078125 368.3828125 c 1
 662.088867188 413.774414062 597.7109375 443.764648438 545.990234375 443.764648438 c 0
 485.259765625 443.764648438 432.314453125 367.736328125 401.184570312 323.872070312 c 0
 396.762695312 317.640625 388.756835938 313.329101562 380.78125 313.329101562 c 0
 372.987304688 313.329101562 365.153320312 317.403320312 360.66015625 323.482421875 c 0
 333.6875 359.974609375 284.747070312 402.2421875 247.245117188 428.163085938 c 0
 235.556640625 436.2421875 224.786132812 442.606445312 216.838867188 446.211914062 c 0
 209.944335938 449.338867188 206.7734375 449.681640625 206.7734375 449.681640625 c 1
 178.653320312 449.681640625 143.76171875 433.294921875 121.978515625 408.400390625 c 0
 110.512695312 395.296875 98.15234375 366.556640625 98.15234375 333.856445312 c 0
 98.15234375 310.973632812 103.775390625 286.375 118.479492188 262.568359375 c 0
 120.956054688 258.55859375 122.194335938 253.999023438 122.194335938 249.439453125 c 0
 122.194335938 236.05078125 110.752929688 223.918945312 96.34765625 223.918945312 c 0
 87.732421875 223.918945312 79.29296875 228.944335938 75.0673828125 235.78515625 c 0
 55.080078125 268.145507812 47.162109375 302.440429688 47.162109375 333.856445312 c 0
 47.162109375 431.145507812 120.690429688 500.671875 206.7734375 500.671875 c 0
 218.327148438 500.671875 227.958007812 497.147460938 237.669921875 492.776367188 c 0
 249.900390625 487.272460938 262.659179688 479.545898438 275.995117188 470.364257812 c 0
 311.768554688 445.732421875 349.538085938 412.498046875 379.302734375 380.416992188 c 1xbc
524 25.9951171875 m 0
 532.224609375 25.9951171875 544.141601562 28.859375 557.740234375 35.541015625 c 0
 638.73828125 75.3408203125 699.099609375 188.184570312 699.099609375 299.859375 c 0
 699.099609375 305.849609375 698.885742188 311.6640625 698.467773438 317.250976562 c 1
 636.859375 283.338867188 580.043945312 246.442382812 551.518554688 217.916992188 c 0
 515.010742188 181.409179688 491.421875 106.39453125 491.421875 76.1279296875 c 0
 491.421875 54.5986328125 497.923828125 40.4228515625 509.423828125 30.4921875 c 0
 512.563476562 27.779296875 516.684570312 25.9951171875 524 25.9951171875 c 0
EndSplineSet
EndChar

StartChar: DiakTTA
Encoding: 71958 71958 46
Width: 776
Flags: W
HStem: -24.9951 50.9902<283.595 476.261> 511.005 50.9902<191.454 301.185>
VStem: 320.59 50.9902<344.702 494.424> 658.755 50.9492<158.942 247.775>
LayerCount: 2
Fore
SplineSet
187.03125 155.504882812 m 1
 225.095703125 94.5009765625 271.743164062 25.9951171875 366 25.9951171875 c 0
 479.216796875 25.9951171875 572.380859375 93.306640625 627.424804688 148.350585938 c 0
 654.711914062 175.638671875 658.754882812 184.793945312 658.754882812 203.541015625 c 0
 658.754882812 209.893554688 657.787109375 213.95703125 656.1484375 218.166015625 c 0
 653.478515625 225.026367188 640.350585938 243.301757812 631.444335938 255.40625 c 0
 628.215820312 259.79296875 626.6015625 264.999023438 626.6015625 270.205078125 c 0
 626.6015625 283.603515625 638.21484375 295.790039062 652.403320312 295.790039062 c 0
 660.20703125 295.790039062 668.083007812 291.669921875 672.553710938 285.596679688 c 0
 689.666015625 262.349609375 709.704101562 241.422851562 709.704101562 202.654296875 c 0
 709.704101562 146.70703125 659.525390625 106.69921875 620.6328125 73.169921875 c 0
 567.310546875 27.2021484375 468.629882812 -24.9951171875 366 -24.9951171875 c 0
 240.444335938 -24.9951171875 179.154296875 70.4287109375 132.010742188 147.571289062 c 0
 129.575195312 151.555664062 128.357421875 156.078125 128.357421875 160.599609375 c 0
 128.357421875 167.630859375 131.5546875 174.776367188 136.963867188 179.48046875 c 0
 182.791015625 219.329101562 210.453125 245.001953125 250.4453125 282.994140625 c 0
 286.966796875 317.69140625 320.58984375 363.911132812 320.58984375 422.892578125 c 0
 320.58984375 458.416992188 311.98828125 482.038085938 299.196289062 494.830078125 c 0
 289.482421875 504.54296875 275.356445312 511.004882812 252 511.004882812 c 0
 237.768554688 511.004882812 217.5078125 504.124023438 194.435546875 491.018554688 c 0
 165.811523438 474.760742188 134.02734375 450.232421875 103.015625 425.865234375 c 0
 98.501953125 422.319335938 93.0458984375 420.545898438 87.5888671875 420.545898438 c 0
 74.810546875 420.545898438 63.873046875 430.907226562 62.70703125 443.154296875 c 2
 54.6201171875 528.06640625 l 2
 54.544921875 528.859375 54.5068359375 529.65625 54.5068359375 530.453125 c 0
 54.5068359375 544.34375 66.0595703125 555.54296875 80.498046875 555.54296875 c 0
 93.2763671875 555.54296875 104.213867188 545.181640625 105.379882812 532.934570312 c 2
 108.995117188 494.96875 l 1
 128.998046875 509.978515625 149.454101562 524.259765625 170.00390625 535.861328125 c 0
 196.3046875 550.709960938 223.54296875 561.995117188 252 561.995117188 c 0
 285.625 561.995117188 314.514648438 551.596679688 335.213867188 530.896484375 c 0
 361.873046875 504.23828125 371.580078125 465.534179688 371.580078125 422.892578125 c 0
 371.580078125 343.53125 327.5546875 285.904296875 285.5546875 246.005859375 c 0
 250.407226562 212.61328125 224.161132812 188.151367188 187.03125 155.504882812 c 1
EndSplineSet
EndChar

StartChar: DiakDDA
Encoding: 71960 71960 47
Width: 920
Flags: W
HStem: -25.9951 50.9902<261.996 385.674> -18.7334 50.9902<624.589 748.022> 348.242 50.9844<113.409 257.861> 484.241 51.0635<305.664 391.185>
VStem: 49.6611 51.1943<412.254 518.712> 189.018 50.9902<47.0217 143.31> 259.697 50.9902<410.503 481.31> 437.803 50.9893<342.728 439.365> 825.889 50.9902<103.136 216.423>
LayerCount: 2
Fore
SplineSet
240.0078125 89.1826171875 m 0xbf80
 240.0078125 52.3896484375 281.155273438 25.0625 320.079101562 25.0625 c 0
 321.385742188 25.0625 322.703125 24.9951171875 324 24.9951171875 c 0xbf80
 385.326171875 24.9951171875 445.106445312 93.4033203125 478.216796875 134.791015625 c 0
 482.80078125 140.520507812 490.342773438 144.1875 497.755859375 144.1875 c 0
 503.379882812 144.1875 509.00390625 142.303710938 513.594726562 138.536132812 c 0
 547.576171875 110.654296875 585.370117188 77.6962890625 622.25390625 55.525390625 c 0
 647.064453125 40.611328125 669.780273438 32.2568359375 685.920898438 32.2568359375 c 0
 733.643554688 32.2568359375 796.625 83.748046875 818.986328125 124.868164062 c 0
 824.244140625 134.538085938 825.888671875 142.1328125 825.888671875 143.940429688 c 0
 825.888671875 189.776367188 804.463867188 222.6796875 771.126953125 256.016601562 c 0
 766.249023438 260.89453125 763.809570312 267.294921875 763.809570312 273.694335938 c 0
 763.809570312 287.287109375 775.868164062 299.396484375 789.51171875 299.396484375 c 0
 795.911132812 299.396484375 802.311523438 296.95703125 807.189453125 292.079101562 c 0
 844.567382812 254.701171875 876.87890625 208.33984375 876.87890625 143.940429688 c 0
 876.87890625 128.521484375 871.384765625 114.456054688 863.888671875 100.612304688 c 0
 833.921875 45.2646484375 761.694335938 -18.7333984375 685.920898438 -18.7333984375 c 0x7f80
 654.465820312 -18.7333984375 624.467773438 -5.3212890625 596.294921875 11.5712890625 c 0
 562.219726562 32.00390625 529.497070312 59.052734375 501.349609375 82.4521484375 c 1
 461.864257812 35.3974609375 403.248046875 -25.9951171875 324 -25.9951171875 c 0
 254.723632812 -25.9951171875 189.017578125 20.0869140625 189.017578125 89.1826171875 c 0
 189.017578125 135.560546875 208.15234375 162.435546875 234.201171875 188.484375 c 0
 254.533203125 208.81640625 281.905273438 231.513671875 319.248046875 258.650390625 c 0
 354.854492188 284.524414062 407.245117188 322.787109375 429.994140625 363.017578125 c 0
 435.772460938 373.237304688 437.802734375 380.677734375 437.802734375 387.357421875 c 0
 437.802734375 431.338867188 395.174804688 467.4296875 354.891601562 484.241210938 c 1
 336.158203125 483.673828125 304.612304688 480.431640625 304.612304688 462.543945312 c 0
 304.612304688 452.4296875 310.6875 437.865234375 310.6875 426.869140625 c 0
 310.6875 385.030273438 273.354492188 365.3515625 240.65234375 357.194335938 c 0
 215.259765625 350.859375 188.005859375 348.2421875 161.66015625 348.2421875 c 0
 94.6220703125 348.2421875 49.6611328125 399.290039062 49.6611328125 463.090820312 c 0
 49.6611328125 487.991210938 54.8271484375 532.985351562 83.21875 532.985351562 c 0
 98.0146484375 532.985351562 109.146484375 521.298828125 109.146484375 507.62890625 c 0
 109.146484375 504.556640625 108.583984375 501.484375 107.459960938 498.581054688 c 0
 103.030273438 487.137695312 100.85546875 475.166015625 100.85546875 463.794921875 c 0
 100.85546875 425.807617188 121.6171875 399.2265625 161.340820312 399.2265625 c 0
 194.473632812 399.2265625 241.15625 404.124023438 256.482421875 419.451171875 c 0
 259.103515625 422.072265625 259.697265625 423.471679688 259.697265625 426.869140625 c 0
 259.697265625 428.666992188 259.377929688 431.326171875 258.212890625 435.001953125 c 0
 255.232421875 444.40234375 253.622070312 453.577148438 253.622070312 462.543945312 c 0
 253.622070312 517.016601562 308.21875 535.3046875 359.684570312 535.3046875 c 0
 362.78125 535.3046875 365.876953125 534.733398438 368.80078125 533.591796875 c 0
 428.806640625 510.158203125 488.791992188 457.0546875 488.791992188 387.3359375 c 0
 488.791992188 369.719726562 483.010742188 353.477539062 474.91015625 338.78125 c 0
 448.20703125 290.333984375 389.481445312 246.642578125 349.418945312 217.524414062 c 0
 312.965820312 189.858398438 287.057617188 169.221679688 270.237304688 152.400390625 c 0
 256.431640625 138.594726562 248.978515625 127.754882812 244.859375 117.470703125 c 0
 241.556640625 109.224609375 240.0078125 100.690429688 240.0078125 89.1826171875 c 0xbf80
EndSplineSet
EndChar

StartChar: DiakDDHA
Encoding: 71961 71961 48
Width: 862
Flags: W
HStem: -24.9951 50.9902<251.024 360.501> -15.0957 50.9902<569.71 702.284> 242.291 50.9902<99.3811 195.108> 420.503 50.9913<184.27 291.369>
VStem: 43.6446 50.9902<302.301 368.614> 187.895 50.9902<38.0089 118.131> 200.645 50.9902<300.079 355.127> 373.212 50.9902<269.433 350.126> 756.408 50.9902<85.7125 197.863>
LayerCount: 2
Fore
SplineSet
807.398418076 134.849609375 m 0x7d80
 807.398418076 49.3769196245 712.683714059 -15.095683701 636.239257812 -15.095683701 c 0x7d80
 569.17741294 -15.095683701 529.851098801 18.9291451306 469.885321681 73.2345266774 c 1
 465.689854585 68.7363754798 461.503555655 64.4004924738 457.327232469 60.2241692869 c 0
 400.508445428 3.40538224598 344.885474359 -24.9950977635 294 -24.9950977635 c 0
 232.437154734 -24.9950977635 187.894550674 25.8415978948 187.894550674 85.3525390625 c 0xbd80
 187.894550674 117.899882155 209.565398967 139.756020803 227.416043676 157.606665512 c 0
 260.07391813 190.264539966 306.499361987 223.138851201 338.630460309 255.269949524 c 0
 351.202176929 267.841666144 361.119868215 279.96897546 366.858158524 290.358306947 c 0
 371.480568345 298.727306304 373.211933486 305.457648828 373.211933486 310.670898438 c 0
 373.211933486 314.704431819 371.916168523 319.796602218 367.309878718 328.120241311 c 0
 349.774893779 359.806238575 312.168022694 389.384637765 277.845939682 405.971723068 c 0
 258.340533404 415.398244113 240.206257981 420.502784154 223.881455708 420.502784154 c 0
 210.929300215 420.502784154 197.112175626 417.76600981 183.507918328 413.018703379 c 1
 212.712826194 397.712733347 251.634746201 372.10236062 251.634746201 328.513671875 c 0xbb80
 251.634746201 279.978248927 204.484012713 242.291035049 158.235351562 242.291035049 c 0
 102.499784104 242.291035049 43.644550674 269.272222281 43.644550674 328.596679688 c 0
 43.644550674 359.428542292 61.1811029635 387.00464831 83.6281935698 409.451738917 c 0
 118.330800696 444.154346043 170.738262712 471.494121201 223.801757812 471.494121201 c 0
 249.421878396 471.494121201 274.862872813 463.887611868 298.644208476 452.642809892 c 0
 344.244391248 431.081151935 388.581302708 395.345826339 412.007264386 352.785723349 c 0
 419.191737593 339.733028916 424.202129014 326.860796231 424.202129014 310.670898438 c 0
 424.202129014 269.829589267 397.205724835 241.665765464 374.818340144 219.278380773 c 0
 341.635234141 186.09527477 295.316929702 153.313641396 263.611839469 121.608551163 c 0
 253.900133203 111.896844897 246.608159285 102.942461946 242.706753795 96.0809400779 c 0
 239.541273972 90.5137133208 238.884746201 86.9054515234 238.884746201 85.3525390625 c 0
 238.884746201 52.8893439036 260.863093305 25.9950977635 294 25.9950977635 c 0xbd80
 325.044237411 25.9950977635 369.937417714 45.0068611708 421.475074572 96.544518029 c 0
 430.433697302 105.503140759 439.575281806 115.411350913 448.854218938 126.303925324 c 0
 453.526297935 131.78849402 460.778403124 135.104472764 467.901367188 135.104472764 c 0
 473.909366661 135.104472764 479.917366134 132.954767895 484.666562777 128.655358158 c 2
 496.07897667 118.323787932 l 2
 563.369207225 57.3533480842 588.185770022 35.894511826 636.239257812 35.894511826 c 0
 682.692879915 35.894511826 756.408222549 80.4290787057 756.408222549 134.849609375 c 0
 756.408222549 190.149597503 735.799583414 197.090366458 706.377183601 221.162988469 c 0
 700.726658377 225.78609735 697.194355361 233.215623836 697.194355361 240.529296875 c 0
 697.194355361 254.483046477 709.252577557 266.297832139 722.822265625 266.297832139 c 0
 728.435098969 266.297832139 734.047932312 264.421613859 738.634370734 260.6691773 c 0
 760.689884621 242.624256812 783.687105601 228.119439624 796.386233988 198.673578559 c 0
 803.754171835 181.589313592 807.398418076 160.956529039 807.398418076 134.849609375 c 0x7d80
128.675834752 381.661763501 m 1
 111.332184822 366.949496599 94.634746201 340.939945608 94.634746201 328.596679688 c 0
 94.634746201 301.93563197 132.970504853 293.281230576 158.235351562 293.281230576 c 0
 174.819998901 293.281230576 200.644550674 310.397048733 200.644550674 328.513671875 c 0x3b80
 200.644550674 332.733556796 198.533784577 338.523779001 190.962237524 346.095326054 c 0
 177.141216489 359.916347089 149.763406604 372.936960124 128.675834752 381.661763501 c 1
EndSplineSet
EndChar

StartChar: DiakNNA
Encoding: 71962 71962 49
Width: 802
Flags: W
HStem: -24.9951 50.9902<342.729 546.278> 159.56 50.9902<122.775 205.394> 298.541 51.052<101.378 203.526> 434.624 50.9902<512.464 632.682> 441.695 50.9902<147.449 260.404>
VStem: 211.604 50.9902<216.491 290.548> 698.093 50.9902<197.315 361.14>
LayerCount: 2
Fore
SplineSet
100.013729826 282.523264295 m 1xe6
 108.009751097 247.114444384 128.692298474 210.549785264 164.266601562 210.549785264 c 0
 196.653085901 210.549785264 211.603535049 227.828638706 211.603535049 257.88671875 c 0
 211.603535049 279.037467656 186.611100537 298.541035049 168.751953125 298.541035049 c 0
 155.081935803 298.541035049 129.172196136 292.560755656 100.013729826 282.523264295 c 1xe6
570.853515625 485.614238389 m 0xf6
 677.573202857 485.614238389 749.082988389 378.85297121 749.082988389 273.443359375 c 0
 749.082988389 241.24381093 738.213351422 207.137990092 721.586488808 173.509866416 c 0
 687.079763829 103.719404908 624.842762956 29.9109967028 555.378946755 -5.96454662381 c 0
 533.034920495 -17.5044263195 509.708279866 -24.9950977635 486 -24.9950977635 c 0
 401.070284003 -24.9950977635 378.795610812 -17.9883352909 323.760043174 0.357212752013 c 0
 314.374438371 3.4858088801 306.698261611 13.1801154237 306.698261611 24.0673828125 c 0
 306.698261611 38.8957916487 318.284048864 50.011699326 332.009765625 50.011699326 c 0
 334.691521135 50.011699326 337.373276645 49.583390098 339.943081769 48.726771642 c 0
 393.219602769 30.96758409 402.88158221 25.9950977635 486 25.9950977635 c 0
 498.573791472 25.9950977635 514.492469598 30.3391405428 531.986942719 39.3943316082 c 0
 590.275140974 69.5644755394 646.621615743 137.159884007 675.802092217 196.059614704 c 0
 690.274030217 225.270695327 698.092792861 253.041990565 698.092792861 273.443359375 c 0
 698.092792861 351.505926293 647.078834417 434.624042861 570.853515625 434.624042861 c 0xf6
 541.879155134 434.624042861 523.184113721 424.235888459 504.312210893 405.363985631 c 0
 478.233623559 379.285398297 453.349346503 336.214022178 427.927211795 303.918929391 c 0
 423.362784623 298.120494259 415.75537914 294.368183486 408.265625 294.368183486 c 0
 401.916784278 294.368183486 395.567943556 296.768717874 390.704529952 301.56978665 c 0
 341.785432835 349.861782529 306.617199806 383.997089713 279.179694021 406.093161564 c 0
 244.623981557 433.92169348 224.654225986 441.695331924 201.743164062 441.695331924 c 0
 182.976011956 441.695331924 154.821941588 429.807233036 132.545292627 407.530584076 c 0
 113.565051799 388.550343248 99.57558022 363.455094229 96.3991651074 335.142979146 c 1
 121.384197648 343.262689094 167.316774749 349.599305302 168.989197765 349.59302952 c 0
 216.184704275 349.493669856 262.593730576 309.616227056 262.593730576 257.88671875 c 0
 262.593730576 202.623717654 223.419153412 159.559589736 164.266601562 159.559589736 c 0
 136.680985621 159.559589736 111.374843389 171.589405915 91.7807789733 191.18347033 c 0
 62.0868931333 220.87735617 44.726581924 267.409166493 44.726581924 322.940429688 c 0
 44.726581924 372.226568132 66.9659937919 414.102095859 96.4713261511 443.607428218 c 0
 126.418894432 473.554996499 164.820397965 492.685527451 201.743164062 492.685527451 c 0xee
 239.970377889 492.685527451 272.736282731 476.800565335 310.711327119 446.262940754 c 0
 336.849707981 425.243766852 366.590628512 396.827189044 405.255169405 358.832713097 c 1
 443.627564896 412.73734627 481.398076318 485.614238389 570.853515625 485.614238389 c 0xf6
EndSplineSet
EndChar

StartChar: DiakTA
Encoding: 71963 71963 50
Width: 632
Flags: W
HStem: -47.9951 50.9902<177.673 384.424> 120.118 50.9902<180.445 295.232> 329.977 50.9902<401.841 483.324> 476.701 50.9902<192.452 312.061>
VStem: 126.819 50.9902<175.497 260.982 370.167 461.542> 351.001 50.9902<228.866 326.792> 524.526 50.9902<142.887 289.508>
LayerCount: 2
Fore
SplineSet
177.809570312 204.481445312 m 0
 177.809570312 183.305664062 200.616210938 171.108398438 218.778320312 171.108398438 c 0
 297.678710938 171.108398438 351.000976562 221.345703125 351.000976562 316.7421875 c 0
 351.000976562 320.1171875 350.967773438 323.4765625 350.90234375 326.791992188 c 1
 273.280273438 318.372070312 231.232421875 294.631835938 208.291015625 271.689453125 c 0
 181.876953125 245.275390625 177.809570312 216.696289062 177.809570312 204.481445312 c 0
240.010742188 476.701171875 m 0
 205.69921875 476.701171875 176.000976562 447.411132812 176.000976562 416.537109375 c 0
 176.000976562 408.239257812 179.8984375 402.56640625 179.8984375 394.874023438 c 0
 179.8984375 381.357421875 168.646484375 369.517578125 153.969726562 369.517578125 c 0
 131.643554688 369.517578125 125.010742188 395.071289062 125.010742188 416.537109375 c 0
 125.010742188 476.20703125 177.07421875 527.69140625 240.040039062 527.69140625 c 0
 276.052734375 527.69140625 318.052734375 521.080078125 350.956054688 488.176757812 c 0
 374.55078125 464.58203125 390.65625 429.841796875 397.801757812 380.79296875 c 1
 403.046875 380.908203125 408.391601562 380.966796875 413.836914062 380.966796875 c 0
 501.736328125 380.966796875 575.516601562 317.83203125 575.516601562 224.62109375 c 0
 575.516601562 198.956054688 570.181640625 171.213867188 558.922851562 141.751953125 c 0
 546.06640625 108.104492188 520.767578125 70.7177734375 487.405273438 37.3564453125 c 0
 441.733398438 -8.31640625 379.203125 -47.9951171875 310 -47.9951171875 c 0
 260.76953125 -47.9951171875 207.172851562 -36.5166015625 162.19140625 -24.0751953125 c 0
 105.962890625 -8.5234375 63.4365234375 8.7705078125 62.73828125 9.056640625 c 0
 54.1240234375 12.5810546875 47.228515625 21.9384765625 47.228515625 32.19140625 c 0
 47.228515625 46.9736328125 58.94921875 58.11328125 72.599609375 58.11328125 c 0
 85.1328125 58.11328125 204.424804688 2.9951171875 310 2.9951171875 c 0
 392.642578125 2.9951171875 485.846679688 93.41015625 511.293945312 160.001953125 c 0
 520.678710938 184.564453125 524.526367188 206.110351562 524.526367188 224.62109375 c 0
 524.526367188 289.754882812 475.452148438 329.9765625 413.836914062 329.9765625 c 0
 409.768554688 329.9765625 405.770507812 329.94140625 401.840820312 329.873046875 c 1
 401.940429688 325.569335938 401.991210938 321.208007812 401.991210938 316.822265625 c 0
 401.991210938 250.487304688 382.059570312 203.114257812 350.228515625 171.283203125 c 0
 310.57421875 131.62890625 258.197265625 120.118164062 218.778320312 120.118164062 c 0
 171.607421875 120.118164062 126.819335938 153.416015625 126.819335938 204.481445312 c 0
 126.819335938 304.024414062 224.4296875 364.599609375 346.71875 377.6171875 c 1
 335.663085938 446.42578125 307.955078125 476.701171875 240.010742188 476.701171875 c 0
EndSplineSet
EndChar

StartChar: DiakTHA
Encoding: 71964 71964 51
Width: 630
Flags: W
HStem: -24.9951 50.9902<235.566 439.286> 212.593 50.9902<420.957 514.456>
VStem: 46.9014 52.5156<443.31 507.379> 271.878 50.9902<318.907 418.6> 338.348 50.8887<83.3276 180.858> 526.437 50.9902<90.3359 200.42>
LayerCount: 2
Fore
SplineSet
99.4169921875 482.67578125 m 0
 99.4169921875 475.172851562 97.97265625 468.032226562 97.97265625 458.142578125 c 0
 97.97265625 452.887695312 98.15234375 447.430664062 98.525390625 442.236328125 c 1
 128.485351562 453.650390625 170.96484375 467.680664062 203.84765625 475.71875 c 0
 213.775390625 478.145507812 220.751953125 479.95703125 229.490234375 479.95703125 c 0
 240.032226562 479.95703125 249.131835938 476.967773438 258.701171875 472.673828125 c 0
 289.369140625 458.911132812 322.868164062 428.337890625 322.868164062 383.751953125 c 0
 322.868164062 329.864257812 291.357421875 262.329101562 167.913085938 138.885742188 c 0
 166.037109375 137.009765625 164.138671875 135.120117188 162.21875 133.216796875 c 0
 167.456054688 87.609375 208.2265625 58.46875 246.397460938 42.4541015625 c 0
 272.797851562 31.376953125 300.690429688 25.9951171875 320 25.9951171875 c 0
 343.577148438 25.9951171875 383.365234375 29.4423828125 421.102539062 40.650390625 c 0
 473.579101562 56.236328125 526.436523438 85.0126953125 526.436523438 150.40625 c 0
 526.436523438 177.913085938 519.645507812 190.647460938 512.663085938 197.629882812 c 0
 501.913085938 208.380859375 480.525390625 212.592773438 451.522460938 212.592773438 c 0
 446.002929688 212.592773438 435.03515625 209.521484375 423.6796875 198.165039062 c 0
 409.233398438 183.719726562 393.623046875 155.432617188 389.236328125 105.72265625 c 0
 388.151367188 93.4228515625 377.205078125 82.9404296875 364.338867188 82.9404296875 c 0
 349.862304688 82.9404296875 338.34765625 94.025390625 338.34765625 108.025390625 c 0
 338.34765625 108.763671875 338.379882812 109.501953125 338.4453125 110.23828125 c 0
 343.602539062 168.682617188 362.572265625 209.188476562 387.635742188 234.250976562 c 0
 407.03515625 253.650390625 429.826171875 263.583007812 451.522460938 263.583007812 c 0
 481.833984375 263.583007812 520.677734375 261.681640625 548.731445312 233.626953125 c 0
 567.771484375 214.587890625 577.426757812 186.537109375 577.426757812 150.40625 c 0
 577.426757812 22.8369140625 439.083984375 -24.9951171875 320 -24.9951171875 c 0
 257.157226562 -24.9951171875 190.775390625 6.0185546875 154.317382812 42.4775390625 c 0
 128.97265625 67.8212890625 110.657226562 101.991210938 110.657226562 143.544921875 c 0
 110.657226562 157.841796875 123.953125 167.053710938 131.677734375 174.77734375 c 0
 253.158203125 296.258789062 271.877929688 353.0625 271.877929688 383.751953125 c 0
 271.877929688 404.967773438 248.158203125 425.149414062 229.360351562 428.944335938 c 1
 202.3671875 424.377929688 115.534179688 396.478515625 90.9951171875 383.5625 c 0
 87.361328125 381.650390625 83.3544921875 380.694335938 79.34765625 380.694335938 c 0
 48.38671875 380.694335938 46.9013671875 427.95703125 46.9013671875 458.678710938 c 0
 46.9013671875 483.475585938 49.1552734375 507.813476562 73.431640625 507.813476562 c 0
 88.0625 507.813476562 99.4169921875 496.620117188 99.4169921875 482.67578125 c 0
EndSplineSet
EndChar

StartChar: DiakDA
Encoding: 71965 71965 52
Width: 514
Flags: W
HStem: -24.9951 50.9902<105.909 341.072> 168.445 50.9902<185.277 346.419> 191.929 50.9902<253.64 416.724> 422.858 50.9902<41.5854 312.141> 451.595 50.9902<250.657 373.77>
VStem: 131.501 50.9902<226.199 272.935> 374.554 50.9902<385.164 451.376> 422.119 50.9902<90.7698 183.786>
LayerCount: 2
Fore
SplineSet
41.30859375 449.650390625 m 2x96
 41.490234375 462.919921875 52.931640625 474.30078125 66.3017578125 474.30078125 c 0
 87.7919921875 474.30078125 107.060546875 473.848632812 124.298828125 473.848632812 c 0x96
 212.276367188 473.848632812 247.771484375 479.254882812 303.185546875 493.314453125 c 0
 325.107421875 498.875 341.015625 502.584960938 368.936523438 502.584960938 c 0
 413.025390625 502.584960938 425.543945312 462.783203125 425.543945312 420.521484375 c 0
 425.543945312 390.063476562 407.448242188 368.01953125 389.969726562 350.541015625 c 0
 369.455078125 330.026367188 341.004882812 311.866210938 306.270507812 302.559570312 c 0
 267.911132812 292.28125 213.288085938 286.038085938 190.059570312 262.809570312 c 0
 184.745117188 257.495117188 182.491210938 252.82421875 182.491210938 244.827148438 c 0
 182.491210938 236.268554688 184.655273438 232.64453125 187.5625 229.737304688 c 0
 192.4140625 224.885742188 205.508789062 219.435546875 227.5625 219.435546875 c 0xce
 267.375976562 219.435546875 325.638671875 242.918945312 369.483398438 242.918945312 c 0
 414.489257812 242.918945312 456.984375 228.975585938 465.860351562 191.697265625 c 0
 469.028320312 178.390625 473.109375 161.750976562 473.109375 142.4921875 c 0
 473.109375 113.107421875 462.337890625 80.126953125 430.9453125 48.734375 c 0
 418.846679688 36.63671875 403.916015625 24.7783203125 385.533203125 12.97265625 c 0
 351.887695312 -8.6357421875 283.9140625 -24.9951171875 236 -24.9951171875 c 0
 169.590820312 -24.9951171875 148.779296875 -21.587890625 103.758789062 -17.8349609375 c 0
 91.396484375 -16.8046875 80.85546875 -5.8271484375 80.85546875 7.0732421875 c 0
 80.85546875 21.53125 91.9287109375 33.064453125 105.934570312 33.064453125 c 0
 106.631835938 33.064453125 107.330078125 33.03515625 108.025390625 32.9775390625 c 0
 152.87890625 29.2392578125 171.283203125 25.9951171875 236 25.9951171875 c 0
 268.7890625 25.9951171875 335.697265625 41.5888671875 357.997070312 55.91015625 c 0
 373.90625 66.126953125 385.950195312 75.8515625 394.919921875 84.8212890625 c 0
 417.7890625 107.690429688 422.119140625 125.561523438 422.119140625 142.4921875 c 0
 422.119140625 154.216796875 419.432617188 166.506835938 416.299804688 179.670898438 c 0
 410.899414062 188.849609375 386.90234375 191.928710938 369.483398438 191.928710938 c 0xa5
 353.783203125 191.928710938 335.98046875 189.430664062 318.508789062 184.033203125 c 0
 286.999023438 174.298828125 255.8515625 168.4453125 227.5625 168.4453125 c 0
 199.413085938 168.4453125 171.288085938 173.907226562 151.477539062 193.717773438 c 0
 138.404296875 206.791015625 131.500976562 224.95703125 131.500976562 244.827148438 c 0
 131.500976562 266.748046875 140.524414062 285.475585938 153.987304688 298.9375 c 0
 186.97265625 331.922851562 243.127929688 338.44140625 293.009765625 351.807617188 c 0
 327.668945312 361.09375 358.09375 382.868164062 371.276367188 409.999023438 c 0
 373.918945312 415.438476562 374.553710938 419.484375 374.553710938 420.521484375 c 0
 374.553710938 429.2109375 375.282226562 451.594726562 368.936523438 451.594726562 c 0xce
 333.673828125 451.594726562 313.354492188 442.702148438 279.744140625 435.233398438 c 0
 236.407226562 425.603515625 194.111328125 422.858398438 124.298828125 422.858398438 c 0
 106.799804688 422.858398438 87.5185546875 423.028320312 65.9560546875 423.3125 c 0
 52.6796875 423.487304688 41.29296875 434.932617188 41.29296875 448.305664062 c 0
 41.29296875 448.420898438 41.2939453125 448.53515625 41.294921875 448.650390625 c 2
 41.30859375 449.650390625 l 2x96
EndSplineSet
EndChar

StartChar: DiakDHA
Encoding: 71966 71966 53
Width: 1138
Flags: W
HStem: -32.0664 50.9902<741.282 940.294> -24.9951 50.9902<425.769 629.495> 229.563 50.9902<107.463 209.093> 262.09 50.9902<651.94 747.492> 453.909 50.9893<209.572 376.72>
VStem: 45.7559 50.9902<299.422 367.1> 215.462 50.9902<283.259 357.233> 342.74 50.9902<58.2031 244.053> 390.95 50.9902<268.963 439.122> 574.672 50.9902<126.374 237.191> 767.005 50.9902<125.646 243.041> 1024.39 50.9902<100.42 310.374>
LayerCount: 2
Fore
SplineSet
185.802734375 280.553710938 m 0x2e70
 201.073242188 280.553710938 215.461914062 310.28515625 215.461914062 324.354492188 c 0
 215.461914062 335.719726562 211.998046875 345.336914062 202.924804688 354.41015625 c 0
 191.875976562 365.458984375 169.913085938 376.796875 131.80859375 381.799804688 c 1
 118.227539062 368.334960938 108.044921875 354.227539062 102.474609375 343.236328125 c 0
 98.03125 334.467773438 96.74609375 327.708984375 96.74609375 325.768554688 c 0
 96.74609375 315.912109375 99.7783203125 309.029296875 106.234375 302.573242188 c 0
 117.934570312 290.873046875 145.0390625 280.553710938 185.802734375 280.553710938 c 0x2e70
393.73046875 144.555664062 m 0x6f70
 393.76171875 69.7451171875 415.388671875 25.9951171875 504 25.9951171875 c 0x6f70
 544.369140625 25.9951171875 594.419921875 34.2548828125 639.620117188 51.1005859375 c 1
 593.178710938 99.888671875 574.671875 157.204101562 574.671875 194.247070312 c 0
 574.671875 264.959960938 645.909179688 313.080078125 709.061523438 313.080078125 c 0
 769.466796875 313.080078125 817.995117188 253.65234375 817.995117188 191.418945312 c 0
 817.995117188 125.329101562 779.16796875 75.0810546875 734.991210938 43.55859375 c 1
 765.436523438 28.6572265625 803.690429688 18.923828125 851.896484375 18.923828125 c 0
 907.543945312 18.923828125 949.5625 40.6728515625 978.584960938 69.6953125 c 0
 1009.3203125 100.4296875 1024.39160156 139.578125 1024.39160156 165.962890625 c 0
 1024.39160156 233.025390625 1020.25488281 291.2734375 981.7109375 351.658203125 c 0
 979.104492188 355.7421875 977.80078125 360.420898438 977.80078125 365.098632812 c 0
 977.80078125 378.48828125 989.2734375 390.630859375 1003.63964844 390.630859375 c 0
 1012.10449219 390.630859375 1020.45410156 385.765625 1024.72460938 379.076171875 c 0
 1071.03515625 306.521484375 1075.38183594 234.666992188 1075.38183594 165.962890625 c 0
 1075.38183594 122.782226562 1054.05566406 73.029296875 1014.65234375 33.6259765625 c 0
 976.955078125 -4.072265625 921.727539062 -32.06640625 851.896484375 -32.06640625 c 0x9f70
 781.361328125 -32.06640625 725.75390625 -13.4130859375 683.775390625 14.1875 c 1
 625.264648438 -12.7998046875 558.642578125 -24.9951171875 504 -24.9951171875 c 0
 448.716796875 -24.9951171875 409.354492188 -9.6279296875 383.600585938 16.1259765625 c 0
 343.598632812 56.1279296875 342.740234375 111.693359375 342.740234375 144.75 c 0x4f70
 342.740234375 175.971679688 353.911132812 212.48828125 364.637695312 251.190429688 c 0
 377.630859375 298.071289062 390.950195312 348.057617188 390.950195312 385.360351562 c 0
 390.950195312 410.25 385.356445312 426.874023438 375.33203125 436.8984375 c 0
 366.254882812 445.9765625 349.690429688 453.909179688 317.322265625 453.909179688 c 0
 264.956054688 453.909179688 220.869140625 440.487304688 186.129882812 421.7109375 c 1
 228.841796875 407.194335938 266.452148438 374.209960938 266.452148438 324.354492188 c 0
 266.452148438 296.37109375 253.776367188 270.525390625 235.811523438 252.560546875 c 0
 223.18359375 239.93359375 206.280273438 229.563476562 185.802734375 229.563476562 c 0
 116.270507812 229.563476562 45.755859375 255.3828125 45.755859375 325.768554688 c 0
 45.755859375 339.643554688 50.1474609375 352.879882812 56.8544921875 366.206054688 c 0
 65.27734375 382.940429688 78.029296875 400.282226562 94.9072265625 417.159179688 c 0
 140.08203125 462.333984375 216.407226562 504.8984375 317.263671875 504.8984375 c 0
 357.756835938 504.8984375 389.616210938 494.58203125 411.298828125 472.8984375 c 0
 434.947265625 449.25 441.940429688 417.081054688 441.940429688 385.360351562 c 0x6ef0
 441.940429688 337.228515625 426.778320312 284.443359375 413.76953125 237.508789062 c 0
 403.102539062 199.020507812 394.0625 164.034179688 393.73046875 144.555664062 c 0x6f70
767.004882812 191.418945312 m 0
 767.004882812 224.651367188 739.333984375 262.08984375 709.061523438 262.08984375 c 0x1e70
 673.844726562 262.08984375 625.662109375 234.3359375 625.662109375 194.247070312 c 0
 625.662109375 172.322265625 640.342773438 122.391601562 680.171875 82.5625 c 0
 682.943359375 79.791015625 685.8359375 77.0615234375 688.853515625 74.3837890625 c 0
 728.568359375 98.029296875 767.004882812 136.473632812 767.004882812 191.418945312 c 0
EndSplineSet
EndChar

StartChar: DiakNA
Encoding: 71967 71967 54
Width: 790
Flags: W
HStem: -25.9951 50.9902<330.356 522.266> 6.74316 49.334<275.978 356.548> 446.353 50.9902<148.28 270.198 491.31 631.539>
VStem: 54.709 50.9902<280.435 406.066> 679.844 50.9883<210.598 397.673>
LayerCount: 2
Fore
SplineSet
198.998046875 497.342773438 m 0xb8
 279.471679688 497.342773438 346.505859375 438.833984375 389.977539062 382.477539062 c 1
 422.452148438 437.216796875 471.439453125 495.928710938 553.965820312 495.928710938 c 0
 601.15625 495.928710938 647.934570312 482.560546875 682.067382812 448.428710938 c 0
 713.15625 417.338867188 730.83203125 371.428710938 730.83203125 311.71875 c 0
 730.83203125 267.75390625 719.15234375 219.122070312 694.948242188 166.211914062 c 0
 652.420898438 73.2509765625 567.967773438 -25.9951171875 438 -25.9951171875 c 0xb8
 382.12109375 -25.9951171875 337.290039062 -10.2998046875 291.84375 6.7431640625 c 0
 282.877929688 10.1044921875 275.650390625 19.6123046875 275.650390625 30.1455078125 c 0
 275.650390625 44.953125 287.31640625 56.0771484375 300.997070312 56.0771484375 c 0x78
 303.982421875 56.0771484375 306.96875 55.5458984375 309.799804688 54.484375 c 0
 354.86328125 37.5849609375 392.056640625 24.9951171875 438 24.9951171875 c 0
 543.728515625 24.9951171875 613.030273438 109.841796875 648.552734375 187.436523438 c 0
 670.131835938 234.575195312 679.84375 277.752929688 679.84375 311.935546875 c 0
 679.84375 400.987304688 635.463867188 444.938476562 553.965820312 444.938476562 c 0
 520.454101562 444.938476562 495.700195312 431.76171875 473.450195312 409.51171875 c 0
 451.20703125 387.268554688 432.32421875 355.448242188 414.971679688 322.131835938 c 0
 411.017578125 314.540039062 402.145507812 308.689453125 392.795898438 308.689453125 c 0
 384.482421875 308.689453125 376.258789062 313.356445312 371.923828125 319.916015625 c 0
 334.956054688 375.868164062 272.287109375 446.352539062 198.998046875 446.352539062 c 0
 190.791992188 446.352539062 180.7265625 443.858398438 170.127929688 438.81640625 c 0
 147.268554688 427.94140625 121.638671875 404.357421875 110.396484375 382.661132812 c 0
 106.755859375 375.634765625 105.69921875 370.177734375 105.69921875 368.610351562 c 0
 105.69921875 338.280273438 114.00390625 300.248046875 126.891601562 280.916992188 c 0
 129.677734375 276.737304688 131.071289062 271.900390625 131.071289062 267.063476562 c 0
 131.071289062 253.6796875 119.568359375 241.515625 105.244140625 241.515625 c 0
 96.97265625 241.515625 88.775390625 246.137695312 84.4296875 252.65625 c 0
 62.513671875 285.52734375 54.708984375 331.076171875 54.708984375 368.610351562 c 0
 54.708984375 382.172851562 59.0634765625 394.462890625 65.02734375 406.029296875 c 0
 87.1494140625 448.936523438 141.138671875 497.342773438 198.998046875 497.342773438 c 0xb8
EndSplineSet
EndChar

StartChar: DiakPA
Encoding: 71968 71968 55
Width: 900
Flags: W
HStem: -24.9951 50.9902<408.38 670.291> 243.706 50.9902<104.547 190.963> 467.151 50.9902<191.078 344.403>
VStem: 195.655 50.9902<299.371 372.127> 376.642 50.9902<305.112 435.392> 788.186 50.9905<120.144 298.93>
LayerCount: 2
Fore
SplineSet
156.061523438 294.696269639 m 0
 178.201146718 294.696269639 195.655292861 310.360976912 195.655292861 338.114257812 c 0
 195.655292861 351.353307586 191.760093084 360.115817801 183.293674726 368.582236159 c 0
 173.210395625 378.66551526 154.400361371 388.503163148 126.803982786 395.89765213 c 0
 125.845461204 396.154489354 124.899279429 396.469213681 123.970999859 396.841825109 c 0
 111.637657333 384.430639577 102.158150937 372.013449784 96.7893884961 362.211293257 c 0
 76.934225629 325.960217435 121.172220347 294.696269639 156.061523438 294.696269639 c 0
246.645488389 338.114257812 m 0
 246.645488389 282.728963231 204.265320428 243.706074111 156.061523438 243.706074111 c 0
 142.64862477 243.706074111 126.427440554 246.898289848 109.215516098 254.023723591 c 0
 74.8768492045 268.23932722 40.4456974595 299.121415908 40.4456974595 347.856123992 c 0
 40.4456974595 361.930568708 45.3875607309 374.541071662 51.958474766 386.599551526 c 0
 60.5490723341 402.364412737 73.0504428894 418.145447819 88.4093291971 433.504334126 c 0
 127.592226596 472.687231525 192.149343025 518.141582139 267.78515625 518.141582139 c 0
 363.506352279 518.141582139 427.631816514 459.139547786 427.631816514 371.765625 c 0
 427.631816514 274.821371588 346.666761438 215.973564489 300.395322959 157.232701147 c 1
 353.806513492 76.2697858306 394.326043984 25.9950977635 528 25.9950977635 c 0
 640.619918699 25.9950977635 707.740711215 55.7595317567 744.971510238 92.99033078 c 0
 775.717051044 123.735871586 788.185566299 161.314412256 788.185566299 197.978515625 c 0
 788.185566299 269.543894106 770.303580968 300.076324002 738.099160203 343.014319007 c 0
 734.780462184 347.439122671 733.121113174 352.71760821 733.121113174 357.99609375 c 0
 733.121113174 371.395024702 744.754540982 383.590800889 758.916992188 383.590800889 c 0
 766.641298143 383.590800889 774.423042935 379.592014835 778.934094264 373.577409413 c 0
 814.214941521 326.537293992 839.176049733 279.777091868 839.176049733 197.980189416 c 0
 839.176049733 149.008581154 822.056917727 97.781650674 781.151414797 56.876147744 c 0
 731.265319714 6.99005266176 649.146939213 -24.9950977635 528 -24.9950977635 c 0
 430.228897982 -24.9950977635 369.195349829 -0.841154392598 321.169084533 47.1851109028 c 0
 294.202710528 74.1514849077 272.181458853 106.814607625 247.733200439 144.594455875 c 0
 245.070584971 148.708990605 243.739277236 153.437014834 243.739277236 158.165039063 c 0
 243.739277236 163.139172159 245.212789898 168.113305256 248.15981522 172.373073205 c 0
 288.351330675 230.467765518 376.641620986 298.18509494 376.641620986 371.765625 c 0
 376.641620986 432.94858592 337.976101203 467.151386611 267.78515625 467.151386611 c 0
 234.946390021 467.151386611 196.200788035 450.344774565 171.577658624 434.788488651 c 1
 210.587117445 419.012040054 246.645488389 388.597772645 246.645488389 338.114257812 c 0
EndSplineSet
EndChar

StartChar: DiakPHA
Encoding: 71969 71969 56
Width: 1072
Flags: W
HStem: -198.943 50.9902<515.542 770.382> -24.9951 50.9902<418.38 652.91> 243.706 50.9902<114.547 200.963> 467.151 50.9902<201.078 354.403>
VStem: 205.655 50.9902<299.371 372.126> 386.642 50.9902<305.112 435.392> 774.135 50.9902<132.252 273.099> 966.468 50.9902<16.6091 184.672>
LayerCount: 2
Fore
SplineSet
166.061523438 294.696289062 m 0
 188.201171875 294.696289062 205.655273438 310.361328125 205.655273438 338.114257812 c 0
 205.655273438 351.353515625 201.759765625 360.116210938 193.293945312 368.58203125 c 0
 183.209960938 378.665039062 164.400390625 388.502929688 136.803710938 395.897460938 c 0
 135.845703125 396.154296875 134.899414062 396.46875 133.970703125 396.841796875 c 0
 121.637695312 384.430664062 112.158203125 372.013671875 106.7890625 362.2109375 c 0
 86.9345703125 325.959960938 131.171875 294.696289062 166.061523438 294.696289062 c 0
256.645507812 338.114257812 m 0
 256.645507812 282.728515625 214.265625 243.706054688 166.061523438 243.706054688 c 0
 152.6484375 243.706054688 136.427734375 246.8984375 119.215820312 254.0234375 c 0
 84.876953125 268.239257812 50.4453125 299.12109375 50.4453125 347.856445312 c 0
 50.4453125 361.930664062 55.3876953125 374.541015625 61.9580078125 386.599609375 c 0
 70.548828125 402.364257812 83.05078125 418.145507812 98.4091796875 433.50390625 c 0
 137.591796875 472.6875 202.149414062 518.141601562 277.78515625 518.141601562 c 0
 373.506835938 518.141601562 437.631835938 459.139648438 437.631835938 371.765625 c 0
 437.631835938 274.821289062 356.666992188 215.973632812 310.395507812 157.232421875 c 1
 363.806640625 76.26953125 404.326171875 25.9951171875 538 25.9951171875 c 0
 628.213867188 25.9951171875 686.389648438 58.1767578125 722.90234375 94.6904296875 c 0
 743.587890625 115.375 757.438476562 137.879882812 765.424804688 156.743164062 c 0
 771.8046875 171.809570312 774.134765625 184.647460938 774.134765625 190.004882812 c 0
 774.134765625 255.80859375 767.197265625 276.912109375 751.750976562 302.23828125 c 0
 749.323242188 306.21875 748.109375 310.733398438 748.109375 315.248046875 c 0
 748.109375 328.697265625 759.649414062 340.243164062 773.104492188 340.243164062 c 0
 775.21484375 340.243164062 777.326171875 339.977539062 779.381835938 339.447265625 c 0
 808.846679688 331.842773438 897.940429688 309.427734375 959.467773438 247.901367188 c 0
 992.572265625 214.796875 1017.45800781 169.305664062 1017.45800781 110.80859375 c 0
 1017.45800781 -83.2890625 825.571289062 -198.943359375 641.237304688 -198.943359375 c 0
 590.469726562 -198.943359375 541.602539062 -186.866210938 502.44140625 -175.26171875 c 0
 492.640625 -172.358398438 484.578125 -162.4921875 484.578125 -151.299804688 c 0
 484.578125 -136.470703125 496.091796875 -125.345703125 509.858398438 -125.345703125 c 0
 512.262695312 -125.345703125 514.666992188 -125.690429688 516.990234375 -126.37890625 c 0
 554.194335938 -137.40234375 598.669921875 -147.953125 641.237304688 -147.953125 c 0
 740.482421875 -147.953125 836.578125 -110.864257812 897.615234375 -49.826171875 c 0
 940.56640625 -6.8759765625 966.467773438 47.4560546875 966.467773438 110.80859375 c 0
 966.467773438 203.084960938 882.630859375 250.299804688 817.671875 274.295898438 c 1
 822.793945312 252.055664062 825.125 225.333007812 825.125 190.004882812 c 0
 825.125 174.436523438 820.78125 156.663085938 812.403320312 136.857421875 c 0
 801.942382812 112.127929688 784.721679688 84.3701171875 758.975585938 58.6240234375 c 0
 713.336914062 12.9853515625 641.274414062 -24.9951171875 538 -24.9951171875 c 0
 440.228515625 -24.9951171875 379.1953125 -0.8408203125 331.168945312 47.185546875 c 0
 304.203125 74.1513671875 282.181640625 106.814453125 257.733398438 144.594726562 c 0
 255.0703125 148.708984375 253.739257812 153.4375 253.739257812 158.165039062 c 0
 253.739257812 163.139648438 255.212890625 168.11328125 258.16015625 172.373046875 c 0
 298.3515625 230.467773438 386.641601562 298.185546875 386.641601562 371.765625 c 0
 386.641601562 432.948242188 347.9765625 467.151367188 277.78515625 467.151367188 c 0
 244.946289062 467.151367188 206.201171875 450.344726562 181.578125 434.788085938 c 1
 220.586914062 419.01171875 256.645507812 388.59765625 256.645507812 338.114257812 c 0
EndSplineSet
EndChar

StartChar: DiakBA
Encoding: 71970 71970 57
Width: 854
Flags: W
HStem: -25.9951 50.9902<392.221 539.932> 244.119 50.9902<106.153 186.672> 453.423 50.9902<177.669 365.369>
VStem: 46.5254 50.9902<304.538 386.11> 189.361 50.9902<298.459 370.64> 440.747 50.9902<266.552 395.475> 755.047 50.9902<213.109 356.38>
LayerCount: 2
Fore
SplineSet
119.176757812 386.760742188 m 1
 109.403272752 375.236722676 97.515625 358.918227831 97.515625 343.153320312 c 0
 97.515625 324.206054688 102.591796875 313.993164062 108.865234375 307.719726562 c 0
 116.099609375 300.486328125 129.079101562 295.109375 149.802734375 295.109375 c 0
 176.594921341 295.109375 189.361328125 309.951344855 189.361328125 333.25390625 c 0
 189.361328125 357.509257543 162.976789008 382.711914062 132.83203125 382.711914062 c 0
 128.071289062 382.711914062 123.311523438 384.061523438 119.176757812 386.760742188 c 1
240.3515625 333.25390625 m 0
 240.3515625 284.567172521 203.748442025 244.119140625 149.802734375 244.119140625 c 0
 120.778320312 244.119140625 92.908203125 251.6015625 72.814453125 271.6953125 c 0
 55.0869140625 289.422851562 46.525390625 314.438476562 46.525390625 343.153320312 c 0
 46.525390625 357.401367188 50.546875 371.20703125 56.880859375 384.447265625 c 0
 64.8203125 401.044921875 76.708984375 417.206054688 91.8125 432.310546875 c 0
 131.047851562 471.544921875 193.224609375 504.413085938 267.181640625 504.413085938 c 0
 345.62890625 504.413085938 413.298828125 473.534179688 453.62890625 433.204101562 c 0
 475.974609375 410.858398438 491.737304688 384.120117188 491.737304688 354.907226562 c 0
 491.737304688 292.522460938 462.046875 233.913085938 440.51171875 195.53125 c 0
 418.712843443 156.677455532 378.338928221 112.716773819 350.185546875 74.4091796875 c 1
 376.654296875 52.732421875 422.015625 24.9951171875 468 24.9951171875 c 0
 483.52734375 24.9951171875 514.690429688 33.75390625 549.384765625 50.9140625 c 0
 625.88245073 88.7530559649 755.046875 185.585281883 755.046875 286.584960938 c 0
 755.046875 358.152815322 707.034293776 384.857788533 665.635742188 417.977539062 c 0
 659.905273438 422.561523438 656.239257812 430.104492188 656.239257812 437.516601562 c 0
 656.239257812 451.509765625 668.293945312 463.291992188 681.858398438 463.291992188 c 0
 687.384765625 463.291992188 692.91015625 461.473632812 697.45703125 457.8359375 c 0
 748.246497862 417.204364211 806.037109375 378.227452485 806.037109375 286.584960938 c 0
 806.037109375 219.331054688 766.163085938 158.055664062 716.536132812 108.428710938 c 0
 672.900390625 64.79296875 620.15625 28.9384765625 571.896484375 5.1103515625 c 0
 533.34765625 -13.9228515625 497.741210938 -25.9951171875 468 -25.9951171875 c 0
 427.423828125 -25.9951171875 391.55859375 -12.0078125 363.634765625 3.564453125 c 0
 327.028320312 23.9775390625 305.014648438 45.509765625 297.560546875 53.2861328125 c 0
 292.930664062 58.1142578125 290.615234375 64.3486328125 290.615234375 70.583984375 c 0
 290.615234375 75.49609375 292.052734375 80.408203125 294.92578125 84.6328125 c 0
 324.265189728 127.753924414 373.38168996 180.126970145 396.021484375 220.483398438 c 0
 416.436523438 256.8671875 440.747070312 308.942382812 440.747070312 354.907226562 c 0
 440.747070312 364.408203125 434.170898438 380.48046875 417.54296875 397.109375 c 0
 387.934570312 426.717773438 332.219726562 453.422851562 267.181640625 453.422851562 c 0
 230.532226562 453.422851562 197.056640625 442.91796875 169.663085938 427.553710938 c 1
 207.354304942 414.344269132 240.3515625 374.746510562 240.3515625 333.25390625 c 0
EndSplineSet
EndChar

StartChar: DiakBHA
Encoding: 71971 71971 58
Width: 1000
HStem: -199.995 50.9902<299.812 552.75> -168.422 49.1312<246.927 343.983> -25.9951 50.9902<325.454 436.876> 237.048 50.9902<640.725 722.563> 248.362 50.9902<92.3782 172.897> 457.665 50.9902<163.894 351.595>
VStem: 32.75 50.9902<308.781 390.352> 175.586 50.9902<302.702 374.883> 426.973 50.9902<276.312 399.716> 749.757 50.9902<65.0803 209.897>
LayerCount: 2
Fore
SplineSet
105.401931557 391.003702106 m 1x2fc0
 95.6274697275 379.479674416 83.740214951 363.161811718 83.740214951 347.396484375 c 0
 83.740214951 328.448507397 88.8168944225 318.236292813 95.090123546 311.963063689 c 0
 102.323980689 304.729206546 115.30297294 299.352519639 136.02734375 299.352519639 c 0
 162.820203641 299.352519639 175.585956924 314.193368506 175.585956924 337.49609375 c 0
 175.585956924 361.751579111 149.201209206 386.955097549 119.056640625 386.955097549 c 0
 114.296360409 386.955097549 109.536080194 388.304632401 105.401931557 391.003702106 c 1x2fc0
670.599609375 288.038066514 m 0x37c0
 751.905046356 288.038066514 800.747050889 217.045002839 800.747050889 143.749023438 c 0
 800.747050889 122.450975874 793.320709202 90.6496468733 778.053153171 51.9626882535 c 0
 730.283453214 -69.082513861 621.369700504 -199.995097764 445.890625 -199.995097764 c 0xb7c0
 385.232252044 -199.995097764 304.242483744 -185.199626665 262.29950543 -168.422213782 c 0
 253.593472987 -164.939754817 246.610370986 -155.542020367 246.610370986 -145.21484375 c 0
 246.610370986 -130.431882216 258.316547942 -119.291035049 271.9765625 -119.291035049 c 0x67c0
 275.139753538 -119.291035049 278.302944575 -119.886930282 281.28242074 -121.078720748 c 0
 313.09764404 -133.804810068 393.69692544 -149.004902236 445.890625 -149.004902236 c 0
 596.948079752 -149.004902236 689.092065009 -34.3874676338 730.598944181 70.6874118397 c 0
 744.131606005 104.945415296 749.756855361 134.443146835 749.756855361 143.749023438 c 0
 749.756855361 192.013128423 722.472178954 237.047870986 670.599609375 237.047870986 c 0xb7c0
 661.364404429 237.047870986 651.924803981 226.758674649 643.183111482 218.016982151 c 0
 624.068813874 198.902684542 600.675852603 167.071027507 576.227359489 133.385918421 c 0
 549.370698939 96.3827459517 520.728078217 56.6409800252 489.78731786 25.7002196686 c 0
 461.955370239 -2.13172795231 430.127225686 -25.9950977635 392 -25.9950977635 c 0
 328.497201735 -25.9950977635 275.552488921 16.2189086157 245.497103841 46.2742936955 c 0
 229.612613544 62.1587839928 220.282449536 74.5559079446 219.550447881 75.5320708281 c 0
 216.22841747 79.9582378327 214.567402267 85.2393728429 214.567402267 90.52050785 c 0
 214.567402267 97.8680728235 218.151976916 105.343803269 223.82752024 109.94979633 c 0
 268.280138009 146.025364299 319.687441082 177.595098093 360.625071757 218.532728768 c 0
 399.763743585 257.671400596 426.972675674 301.949190878 426.972675674 359.150390625 c 0
 426.972675674 368.650056364 420.397163063 384.721792849 403.769032091 401.34992382 c 0
 374.160143818 430.958812094 318.444152843 457.665058486 253.407226562 457.665058486 c 0
 216.757955304 457.665058486 183.282241712 447.159895293 155.889008751 431.79625494 c 1
 193.57946232 418.585060501 226.576152451 378.988831343 226.576152451 337.49609375 c 0
 226.576152451 288.808676863 189.972618615 248.362324111 136.02734375 248.362324111 c 0x2fc0
 107.003444306 248.362324111 79.1328562496 255.843901039 59.0383904082 275.938366881 c 0
 41.3114633511 293.665293938 32.750019424 318.680949644 32.750019424 347.396484375 c 0
 32.750019424 361.64408363 36.7718087416 375.44919145 43.105619793 388.68996415 c 0
 51.0448496134 405.286849755 62.9334899618 421.44848668 78.0370221874 436.552018906 c 0
 117.271648808 475.786645526 179.449284848 508.655254014 253.407226562 508.655254014 c 0
 331.854460842 508.655254014 399.524587001 477.776338336 439.855345445 437.445579892 c 0
 462.20053861 415.100386727 477.962871201 388.363135787 477.962871201 359.150390625 c 0
 477.962871201 220.346911736 358.766609066 147.781776784 277.231533613 86.8162965385 c 1
 300.803878885 62.3020676454 343.438873919 24.9950977635 392 24.9950977635 c 0
 406.863752537 24.9950977635 428.698437628 36.809712853 453.692972721 61.8042479452 c 0
 504.074249261 112.185524485 556.128844438 203.183189392 607.032489101 254.086834056 c 0
 622.797891934 269.852236888 641.889682829 288.038066514 670.599609375 288.038066514 c 0x37c0
EndSplineSet
EndChar

StartChar: DiakMA
Encoding: 71972 71972 59
Width: 588
Flags: W
HStem: -24.9951 50.9902<225.12 420.465> 160.445 50.9902<384.211 471.507> 286.133 50.9902<100.233 169.353> 464.323 50.9902<183.091 340.813>
VStem: 41.2598 50.9902<346.427 378.096> 157.226 50.9902<47.9829 130.659> 172.817 50.9912<341.9 406.786> 368.175 50.9902<355.267 438.843> 481.08 50.9902<71.2568 153.439>
LayerCount: 2
Fore
SplineSet
310 -24.9951171875 m 0xfd80
 221.3984375 -24.9951171875 157.225585938 10.6025390625 157.225585938 86.767578125 c 0xfd80
 157.225585938 115.77734375 172.052734375 137.1171875 185.354492188 156.310546875 c 0
 209.227539062 190.758789062 241.677734375 224.432617188 269.889648438 255.978515625 c 0
 301.05859375 290.828125 344.333984375 341.276367188 363.27734375 389.350585938 c 0
 366.8203125 398.341796875 368.174804688 405.470703125 368.174804688 408.8515625 c 0
 368.174804688 414.5 365.428710938 422.25390625 356.724609375 430.958007812 c 0
 339.510742188 448.171875 301.755859375 464.323242188 253.430664062 464.323242188 c 0
 232.120117188 464.323242188 205.9296875 457.958007812 181.733398438 447.866210938 c 1
 204.77734375 431.004882812 223.80859375 401.975585938 223.80859375 369.196289062 c 0xfb80
 223.80859375 330.389648438 193.884765625 304.044921875 166.350585938 292.557617188 c 0
 157.029296875 288.668945312 147.603515625 286.1328125 137.465820312 286.1328125 c 0
 126.87890625 286.1328125 116.7421875 288.799804688 106.186523438 293.077148438 c 0
 75.330078125 305.580078125 41.259765625 334.34375 41.259765625 378.095703125 c 0
 41.259765625 404.446289062 57.255859375 422.501953125 71.7236328125 436.969726562 c 0
 109.166992188 474.413085938 180.5390625 515.313476562 253.430664062 515.313476562 c 0
 311.881835938 515.313476562 362.50390625 497.350585938 392.814453125 467.041015625 c 0
 408.342773438 451.512695312 419.165039062 431.5546875 419.165039062 408.8515625 c 0
 419.165039062 395.665039062 415.678710938 383.1875 410.7734375 370.686523438 c 0
 404.625 355.016601562 395.819335938 338.963867188 385.592773438 322.760742188 c 0
 357.068359375 277.561523438 323.431640625 239.022460938 291.845703125 204.189453125 c 0
 268.576171875 178.524414062 243.924804688 151.125976562 227.51953125 127.515625 c 0
 218.49609375 114.528320312 208.215820312 101.374023438 208.215820312 86.767578125 c 0
 208.215820312 73.0283203125 211.84375 60.3974609375 222.091796875 50.1494140625 c 0
 233.850585938 38.390625 258.762695312 25.9951171875 310 25.9951171875 c 0
 372.006835938 25.9951171875 434.520507812 45.5458984375 464.934570312 75.9599609375 c 0
 476.608398438 87.6337890625 481.080078125 98.5146484375 481.080078125 107.98046875 c 0
 481.080078125 133.07421875 474.065429688 144.555664062 467.936523438 150.684570312 c 0
 460.5 158.12109375 451.760742188 160.4453125 443.879882812 160.4453125 c 0
 433.099609375 160.4453125 417.362304688 155.456054688 404.723632812 145.733398438 c 0
 400.25 142.29296875 394.875 140.572265625 389.5 140.572265625 c 0
 376.092773438 140.572265625 363.895507812 152.23828125 363.895507812 166.360351562 c 0
 363.895507812 173.963867188 367.762695312 181.65234375 373.666992188 186.193359375 c 0
 394.704101562 202.375 419.79296875 211.435546875 443.879882812 211.435546875 c 0
 495.641601562 211.435546875 532.0703125 168.30859375 532.0703125 107.98046875 c 0
 532.0703125 81.3134765625 519.259765625 58.09765625 501.013671875 39.8515625 c 0
 460.720703125 -0.44140625 388.165039062 -24.9951171875 310 -24.9951171875 c 0xfd80
92.25 378.095703125 m 1
 92.25 358.719726562 118.071289062 337.123046875 137.465820312 337.123046875 c 0
 152.260742188 337.123046875 172.817382812 355.251953125 172.817382812 369.243164062 c 0xfb80
 172.817382812 392.4140625 149.247070312 414.840820312 125.7890625 416.169921875 c 1
 114.142578125 407.465820312 100.02734375 394.639648438 94.2529296875 383.5859375 c 0
 92.3525390625 379.950195312 92.25 378.095703125 92.25 378.095703125 c 1
EndSplineSet
EndChar

StartChar: DiakYA
Encoding: 71973 71973 60
Width: 916
Flags: W
HStem: -24.9951 50.9902<182.355 313.906 537.599 685.758> 221.785 50.9902<177.654 294.713> 401.432 58.1328<53.8939 130.289> 452.302 50.9902<150.329 358.668>
VStem: 75.2051 50.9902<84.2408 175.804> 464.113 50.9902<190.29 367.682> 806.354 50.9902<176.189 320.927>
LayerCount: 2
Fore
SplineSet
240 25.9951171875 m 0xce
 289.725585938 25.9951171875 350.716796875 62.1982421875 390.888671875 108.135742188 c 1
 359.555664062 140.288085938 316.732421875 186.620117188 283.49609375 208.27734375 c 0
 268.635742188 217.9609375 256.8515625 221.78515625 249.192382812 221.78515625 c 0
 212.330078125 221.78515625 173.837890625 202.126953125 149.831054688 178.120117188 c 0
 133.234375 161.5234375 126.1953125 144.654296875 126.1953125 136.971679688 c 0
 126.1953125 131.006835938 128.578125 119.81640625 134.146484375 107.354492188 c 0
 150.615234375 70.498046875 191.877929688 25.9951171875 240 25.9951171875 c 0xce
427.024414062 71.9697265625 m 1
 379.2265625 18.3603515625 308.9921875 -24.9951171875 240 -24.9951171875 c 0
 166.088867188 -24.9951171875 111.23828125 33.4248046875 87.541015625 86.591796875 c 0
 79.9296875 103.66796875 75.205078125 120.544921875 75.205078125 136.971679688 c 0
 75.205078125 165.943359375 91.8876953125 192.360351562 113.741210938 214.213867188 c 0
 146.036132812 246.508789062 195.317382812 272.775390625 249.192382812 272.775390625 c 0
 271.729492188 272.775390625 292.108398438 263.538085938 311.041015625 251.2578125 c 0
 349.084960938 226.579101562 388.208984375 184.087890625 421.575195312 149.733398438 c 1
 447.83984375 192.314453125 464.11328125 241.696289062 464.11328125 291.12109375 c 0
 464.11328125 376.922851562 404.862304688 416.8046875 340.173828125 436.880859375 c 0
 300.756835938 449.114257812 261.41015625 452.301757812 242.12109375 452.301757812 c 0xde
 194.788085938 452.301757812 142.073242188 427.666015625 86.8955078125 403.525390625 c 0
 83.705078125 402.129882812 80.28125 401.431640625 76.8583984375 401.431640625 c 0
 63.380859375 401.431640625 51.462890625 412.696289062 51.462890625 427.342773438 c 0
 51.462890625 447.751953125 73.04296875 453.137695312 87.5517578125 459.564453125 c 0xee
 142.766601562 484.0234375 185.399414062 503.291992188 242.12109375 503.291992188 c 0xde
 266.088867188 503.291992188 309.287109375 499.864257812 355.3359375 485.58203125 c 0
 436.892578125 460.286132812 515.103515625 401.080078125 515.103515625 291.12109375 c 0
 515.103515625 226.29296875 492.750976562 164.244140625 458.403320312 112.622070312 c 1
 485.295898438 86.46484375 512.508789062 62.7666015625 538.864257812 46.673828125 c 0
 563.172851562 31.83203125 585.973632812 23.8740234375 606.98828125 23.8740234375 c 0
 695.92578125 23.8740234375 751.584960938 99.216796875 780.352539062 164.7421875 c 0
 798.139648438 205.2578125 806.353515625 245.392578125 806.353515625 265.665039062 c 0
 806.353515625 273.958007812 801.743164062 290.236328125 792.076171875 308.430664062 c 0
 779.396484375 332.294921875 759.129882812 358.984375 737.743164062 379.638671875 c 0
 732.736328125 384.473632812 730.109375 391.073242188 730.109375 397.626953125 c 0
 730.109375 411.279296875 742.169921875 423.340820312 755.799804688 423.340820312 c 0
 762.0625 423.340820312 768.32421875 421.004882812 773.161132812 416.333984375 c 0
 798.512695312 391.8515625 821.530273438 361.780273438 837.157226562 332.356445312 c 0
 848.93359375 310.18359375 857.34375 287.887695312 857.34375 265.665039062 c 0
 857.34375 234.677734375 847.344726562 190.454101562 827.08203125 144.251953125 c 0
 791.56640625 63.2685546875 720.681640625 -27.1162109375 606.98828125 -27.1162109375 c 0
 573.08203125 -27.1162109375 541.505859375 -14.69921875 512.478515625 2.98828125 c 0
 482.249023438 21.4072265625 453.927734375 45.9931640625 427.024414062 71.9697265625 c 1
EndSplineSet
EndChar

StartChar: DiakYYA
Encoding: 71974 71974 61
Width: 962
Flags: W
HStem: -25.9951 50.9902<219.326 393.666 526.101 750.739> 354.429 50.9902<426.969 521.117>
VStem: 42.959 50.9902<172.641 362.19> 327.923 50.9902<148.263 304.35> 554.904 50.9902<156.902 318.692> 868.859 50.9902<146.115 367.13>
LayerCount: 2
Fore
SplineSet
471.504882812 354.428730361 m 0
 468.025876508 354.428730361 460.282671954 352.774156914 451.106057398 348.301992364 c 0
 439.702978055 342.744774407 426.527070402 333.414120376 414.892277581 321.779327556 c 0
 393.718735691 300.605785665 378.913066514 273.087710185 378.913066514 247.694335938 c 0
 378.913066514 164.355499996 411.969274198 113.307115827 460.080142245 79.378925246 c 1
 474.097254944 88.824169206 487.022505766 99.3503769081 498.468459267 110.796330409 c 0
 533.428278747 145.756149889 554.904316299 189.066912922 554.904316299 239.916015625 c 0
 554.904316299 285.738787169 540.277851983 313.631945836 523.304190734 330.605607085 c 0
 506.116610618 347.7931872 484.780439952 354.428730361 471.504882812 354.428730361 c 0
411.341392054 52.7567365017 m 1
 361.406286854 95.6339820455 327.922870986 159.77815469 327.922870986 247.694335938 c 0
 327.922870986 292.048753061 351.39015682 330.460982704 378.806355787 357.877181671 c 0
 394.334655314 373.405481198 411.53984403 385.815294362 428.832015708 394.212574611 c 0
 442.613329296 400.904941223 456.747524454 405.418925889 471.504882812 405.418925889 c 0
 499.245440597 405.418925889 532.358599302 393.663976286 559.359175676 366.663399912 c 0
 586.574293571 339.448282017 605.894511826 297.342345347 605.894511826 239.916015625 c 0
 605.894511826 173.622088853 577.203872915 117.38331895 534.559222746 74.7386687812 c 0
 526.720650756 66.9000967918 518.421259807 59.5129852961 509.733814742 52.5758396477 c 1
 558.52629746 32.6651245704 614.680416929 24.9950977635 663.837890625 24.9950977635 c 0
 718.235735319 24.9950977635 767.320162141 48.7004775758 804.074492085 85.4548075194 c 0
 844.417281173 125.797596608 868.859394424 181.311921881 868.859394424 234.259765625 c 0
 868.859394424 322.681307945 852.313701819 354.834425019 831.042720331 408.723315397 c 0
 829.878836393 411.671952909 829.296894424 414.797890517 829.296894424 417.923828125 c 0
 829.296894424 431.434204251 840.553461831 443.286113389 855.221679688 443.286113389 c 0
 865.588846145 443.286113389 875.012366542 436.253414343 878.470861347 427.491756861 c 0
 899.961719986 373.047395066 919.849589951 329.668265455 919.849589951 234.259765625 c 0
 919.849589951 165.939755606 889.389654816 98.6328734798 840.138084609 49.3813032731 c 0
 795.139013571 4.38223223537 733.588797495 -25.9950977635 663.837890625 -25.9950977635 c 0
 600.216846097 -25.9950977635 524.402638782 -15.0494193301 459.880588997 19.6989710518 c 1
 409.494043918 -7.61910734864 289.341570674 -26.4430304674 281.362557602 -26.4430304674 c 1
 281.525884484 -26.391038739 281.737897162 -26.0624268924 282 -25.9950977635 c 1
 230.223132681 -25.9950977635 183.179738091 2.76547637978 145.251813025 40.6934014454 c 0
 111.896687448 74.0485270228 84.5360724617 115.695514712 66.3574617621 157.993549865 c 0
 51.8217876661 191.815191355 42.959003799 226.268022779 42.959003799 258.30078125 c 0
 42.959003799 314.131257981 62.9328247332 370.427592745 87.09917331 432.976828333 c 0
 90.5171407667 441.823479327 99.9747056272 448.939433701 110.4140625 448.939433701 c 0
 125.211490976 448.939433701 136.342754014 437.25575868 136.342754014 423.583984375 c 0
 136.342754014 420.51715346 135.782611246 417.450322546 134.66232571 414.550923278 c 0
 110.747222151 352.65649411 93.949199326 301.459934006 93.949199326 258.30078125 c 0
 93.949199326 235.835066569 100.711964339 207.234482201 113.250306766 178.10899206 c 0
 128.913894383 141.723826367 153.28039387 104.855414699 181.361292635 76.7745159341 c 0
 213.917663691 44.2181448782 250.133009496 24.9950977635 282 24.9950977635 c 0
 324.402967326 24.9950977635 369.992470688 34.7222954429 411.341392054 52.7567365017 c 1
EndSplineSet
EndChar

StartChar: DiakRA
Encoding: 71975 71975 62
Width: 472
Flags: W
HStem: -24.9951 50.9902<197.366 303.329> 497.181 49.2109<33.0547 104.158>
VStem: 105.954 50.9902<70.6898 379.861> 363.341 50.9902<82.6395 377.652>
LayerCount: 2
Fore
SplineSet
234 25.9951171875 m 0
 269.296875 25.9951171875 293.00390625 40.328125 321.2109375 58.6640625 c 0
 323.981445312 60.4638671875 326.698242188 62.619140625 329.40625 65.326171875 c 0
 344.680664062 80.6005859375 363.340820312 118.932617188 363.340820312 214.045898438 c 0
 363.340820312 280.873046875 361.375976562 321.592773438 357.048828125 345.172851562 c 0
 353.561523438 364.174804688 349.330078125 370.4921875 345.28125 374.540039062 c 0
 341.41015625 378.411132812 333.80078125 382.754882812 320.857421875 389.2265625 c 0
 298.799804688 400.254882812 251.444335938 419.236328125 199.91015625 439.197265625 c 1
 185.810546875 402.625976562 190.366210938 410.541992188 173.594726562 367.416992188 c 0
 167.891601562 352.75 163.00390625 321.326171875 160.466796875 286.327148438 c 0
 157.287109375 242.454101562 156.921875 192.4765625 156.921875 155.217773438 c 2
 156.944335938 129.193359375 l 2
 156.944335938 94.0537109375 189.604492188 45.697265625 221.030273438 29.958984375 c 0
 227.116210938 26.9111328125 231.845703125 25.9951171875 234 25.9951171875 c 0
32.7333984375 520.46484375 m 0
 32.7333984375 535.2578125 44.423828125 546.391601562 58.091796875 546.391601562 c 0
 61.185546875 546.391601562 64.2802734375 545.821289062 67.2021484375 544.680664062 c 0
 146.528320312 513.724609375 292.203125 460.583984375 343.677734375 434.845703125 c 0
 356.435546875 428.466796875 369.401367188 422.474609375 381.264648438 410.611328125 c 0
 394.771484375 397.104492188 402.61328125 378.852539062 407.098632812 354.6484375 c 0
 412.734375 324.232421875 414.331054688 281.912109375 414.331054688 214.045898438 c 0
 414.331054688 114.079101562 396.083007812 59.875 365.474609375 29.2666015625 c 0
 360.176757812 23.96875 354.614257812 19.5380859375 348.98046875 15.8759765625 c 0
 320.616210938 -2.560546875 285.015625 -24.9951171875 234 -24.9951171875 c 0
 221.127929688 -24.9951171875 209.23828125 -21.18359375 198.262695312 -15.712890625 c 0
 184.481445312 -8.8427734375 171.561523438 1.044921875 159.670898438 12.9345703125 c 0
 130.740234375 41.865234375 105.954101562 84.2626953125 105.954101562 129.171875 c 2
 105.931640625 155.196289062 l 2
 105.931640625 192.83984375 106.234375 243.741210938 109.590820312 290.040039062 c 0
 112.282226562 327.17578125 116.385742188 361.036132812 126.073242188 385.944335938 c 0
 142.7734375 428.891601562 137.838867188 419.915039062 152.302734375 457.494140625 c 1
 119.016601562 470.2109375 77.203125 486.025390625 48.6181640625 497.180664062 c 0
 39.8115234375 500.6171875 32.7333984375 510.057617188 32.7333984375 520.46484375 c 0
EndSplineSet
EndChar

StartChar: DiakLA
Encoding: 71976 71976 63
Width: 802
Flags: W
HStem: -24.9951 50.9902<284.007 533.805> 228.444 50.9902<167.656 289.788> 436.334 50.9902<183.968 298.217>
VStem: 53.1943 50.9902<169.743 291.625> 324.724 50.9902<315.287 409.748> 693.833 50.9902<178.45 372.351>
LayerCount: 2
Fore
SplineSet
242.73828125 487.32421875 m 0
 305.006835938 487.32421875 375.713867188 437.229492188 375.713867188 365.662109375 c 0
 375.713867188 305.767578125 329.345703125 258.453125 285.607421875 238.498046875 c 0
 272.23828125 232.3984375 258.392578125 228.444335938 244.15234375 228.444335938 c 0
 217.000976562 228.444335938 162.780273438 232.477539062 123.51953125 271.737304688 c 0
 117.204101562 278.053710938 111.469726562 285.201171875 106.459960938 293.192382812 c 1
 104.984375 282.759765625 104.184570312 271.58203125 104.184570312 259.596679688 c 0
 104.184570312 203.99609375 125.549804688 155.870117188 164.078125 117.341796875 c 0
 219.6953125 61.724609375 312.844726562 25.9951171875 428 25.9951171875 c 0
 556.22265625 25.9951171875 641.212890625 108.810546875 680.083007812 194.560546875 c 0
 689.930664062 216.28515625 693.833007812 234.706054688 693.833007812 239.797851562 c 0
 693.833007812 307.080078125 690.272460938 324.331054688 679.260742188 362.869140625 c 0
 678.6171875 365.120117188 678.295898438 367.444335938 678.295898438 369.767578125 c 0
 678.295898438 383.395507812 689.571289062 395.038085938 704.251953125 395.038085938 c 0
 715.526367188 395.038085938 725.447265625 386.865234375 728.282226562 376.94140625 c 0
 739.903320312 336.272460938 744.823242188 308.291015625 744.823242188 239.797851562 c 0
 744.823242188 221.508789062 738.333984375 199.5234375 726.571289062 173.538085938 c 0
 680.7890625 72.400390625 579.56640625 -24.9951171875 428 -24.9951171875 c 0
 302.7578125 -24.9951171875 195.915039062 13.3798828125 127.991210938 81.3037109375 c 0
 80.748046875 128.546875 53.1943359375 190.022460938 53.1943359375 259.596679688 c 0
 53.1943359375 373.50390625 114.080078125 446.3046875 191.518554688 476.329101562 c 0
 210.53515625 483.701171875 227.850585938 487.32421875 242.73828125 487.32421875 c 0
324.723632812 365.662109375 m 0
 324.723632812 406.954101562 276.974609375 436.333984375 242.73828125 436.333984375 c 0
 236.618164062 436.333984375 224.129882812 434.268554688 209.985351562 428.782226562 c 0
 184.173828125 418.76953125 153.477539062 395.861328125 135.67578125 370.200195312 c 1
 137.05078125 338.70703125 147.19140625 320.177734375 159.609375 307.758789062 c 0
 182.700195312 284.668945312 221.5390625 279.434570312 244.15234375 279.434570312 c 0
 264.12890625 279.434570312 284.22265625 295.180664062 297.106445312 308.064453125 c 0
 313.877929688 324.8359375 324.723632812 345.84375 324.723632812 365.662109375 c 0
EndSplineSet
EndChar

StartChar: DiakVA
Encoding: 71977 71977 64
Width: 760
Flags: W
HStem: -24.9951 50.9902<328.628 568.534> 216.778 50.9902<530.485 640.51> 442.005 50.9902<129.056 284.568> 590.005 50.9902<347.831 470.311>
VStem: 62.3037 50.9902<513.663 613.985> 237.176 50.9902<59.314 159.724> 291.881 50.9902<512.601 575.694> 515.187 50.9902<451.118 550.639> 647.707 50.9902<94.7823 210.688>
LayerCount: 2
Fore
SplineSet
62.3037109375 555.919921875 m 0
 62.3037109375 580.642578125 67.2333984375 628.661132812 96.19921875 628.661132812 c 0
 111.017578125 628.661132812 122.137695312 617.041015625 122.137695312 603.333984375 c 0
 122.137695312 600.51953125 121.666015625 597.705078125 120.72265625 595.020507812 c 0
 115.649414062 580.583984375 113.293945312 567.310546875 113.293945312 555.919921875 c 0
 113.293945312 538.26953125 118.49609375 525.180664062 128.400390625 515.275390625 c 0
 140.510742188 503.165039062 163.42578125 492.995117188 202.670898438 492.995117188 c 0
 250.639648438 492.995117188 274.979492188 503.215820312 284.116210938 512.3515625 c 0
 289.424804688 517.66015625 291.880859375 523.458007812 291.880859375 533.049804688 c 0
 291.880859375 539.181640625 290.458007812 546.506835938 290.458007812 554.169921875 c 0
 290.458007812 612.99609375 341.33984375 640.995117188 398.670898438 640.995117188 c 0
 470.268554688 640.995117188 566.176757812 588.809570312 566.176757812 502.38671875 c 0
 566.176757812 470.209960938 549.354492188 440.103515625 527.86328125 410.3359375 c 0
 473.689453125 335.301757812 372.638671875 248.681640625 319.952148438 174.819335938 c 0
 298.869140625 145.263671875 288.166015625 119.959960938 288.166015625 103.5 c 0
 288.166015625 86.7998046875 293.735351562 74.81640625 304.365234375 64.1875 c 0
 331.421875 37.1298828125 387.752929688 25.9951171875 444 25.9951171875 c 0
 552.115234375 25.9951171875 647.70703125 59.6943359375 647.70703125 170.774414062 c 0
 647.70703125 193.045898438 642.094726562 202.990234375 637.176757812 207.909179688 c 0
 631.756835938 213.329101562 622.545898438 216.778320312 608.409179688 216.778320312 c 0
 580.604492188 216.778320312 542.822265625 201.475585938 530.672851562 194.99609375 c 0
 527.0078125 193.041015625 522.956054688 192.063476562 518.905273438 192.063476562 c 0
 505.48828125 192.063476562 493.44140625 203.40234375 493.44140625 217.94140625 c 0
 493.44140625 227.19140625 499.18359375 236.01171875 506.668945312 240.00390625 c 0
 523.870117188 249.178710938 565.356445312 267.768554688 608.409179688 267.768554688 c 0
 630.188476562 267.768554688 654.635742188 262.514648438 673.21875 243.932617188 c 0
 690.329101562 226.822265625 698.697265625 201.75390625 698.697265625 170.774414062 c 0
 698.697265625 29.4140625 581.022460938 -24.9951171875 444 -24.9951171875 c 0
 371.91796875 -24.9951171875 306.000976562 -9.607421875 268.270507812 28.123046875 c 0
 249.038085938 47.35546875 237.17578125 73.2666015625 237.17578125 103.5 c 0
 237.17578125 138.489257812 255.037109375 171.674804688 278.181640625 204.174804688 c 0
 332.32421875 280.202148438 432.987304688 366.28515625 486.267578125 439.943359375 c 0
 505.829101562 466.986328125 515.186523438 489.408203125 515.186523438 502.38671875 c 0
 515.186523438 557.0703125 443.12890625 590.004882812 398.670898438 590.004882812 c 0
 372.432617188 590.004882812 356.6484375 583.1484375 349.4296875 575.9296875 c 0
 344.431640625 570.931640625 341.448242188 564.705078125 341.448242188 554.169921875 c 0
 341.448242188 548.045898438 342.87109375 540.716796875 342.87109375 533.049804688 c 0
 342.87109375 463.622070312 277.552734375 442.004882812 202.670898438 442.004882812 c 0
 123.459960938 442.004882812 62.3037109375 480.102539062 62.3037109375 555.919921875 c 0
EndSplineSet
EndChar

